<?xml version="1.0" encoding="UTF-8" standalone="no"?>
<!DOCTYPE svg PUBLIC "-//W3C//DTD SVG 1.1//EN" "http://www.w3.org/Graphics/SVG/1.1/DTD/svg11.dtd">

<svg width="100%" height="100%" viewBox="0 0 774 167" version="1.1" xmlns="http://www.w3.org/2000/svg" xmlnsXlink="http://www.w3.org/1999/xlink" xml:space="preserve" xmlnsSerif="http://www.serif.com/" style="fill-rule:evenodd;clip-rule:evenodd;stroke-linejoin:round;stroke-miterlimit:2;">
    <title>500SongsLogo</title>
    <g transform="matrix(1,0,0,1,-113.237,-747.098)">
        <g transform="matrix(1.39856,0,0,1.39856,-548.921,534.584)">
            <g transform="matrix(1.0545,0,0,0.714286,-264.493,72)">
                <path d="M823,241.5C823,239.568 821.938,238 820.629,238L800.371,238C799.062,238 798,239.568 798,241.5C798,243.432 799.062,245 800.371,245L820.629,245C821.938,245 823,243.432 823,241.5Z" style="fill:rgb(246,26,48);"/>
            </g>
            <g transform="matrix(1.4545,0,0,0.714286,-593.693,82)">
                <path d="M823,241.5C823,239.568 822.23,238 821.281,238L799.719,238C798.77,238 798,239.568 798,241.5C798,243.432 798.77,245 799.719,245L821.281,245C822.23,245 823,243.432 823,241.5Z" style="fill:rgb(246,26,48);"/>
            </g>
            <g transform="matrix(0.727252,0,0,0.714286,4.83455,92)">
                <path d="M823,241.5C823,239.568 821.46,238 819.562,238L801.438,238C799.54,238 798,239.568 798,241.5C798,243.432 799.54,245 801.438,245L819.562,245C821.46,245 823,243.432 823,241.5Z" style="fill:rgb(246,26,48);"/>
            </g>
            <g transform="matrix(-1.0545,-1.29139e-16,8.74748e-17,-0.714286,1769.86,437)">
                <path d="M823,241.5C823,239.568 821.938,238 820.629,238L800.371,238C799.062,238 798,239.568 798,241.5C798,243.432 799.062,245 800.371,245L820.629,245C821.938,245 823,243.432 823,241.5Z" style="fill:rgb(246,26,48);"/>
            </g>
            <g transform="matrix(-1.4545,-1.78125e-16,8.74748e-17,-0.714286,2099.06,417)">
                <path d="M823,241.5C823,239.568 822.23,238 821.281,238L799.719,238C798.77,238 798,239.568 798,241.5C798,243.432 798.77,245 799.719,245L821.281,245C822.23,245 823,243.432 823,241.5Z" style="fill:rgb(246,26,48);"/>
            </g>
            <g transform="matrix(-0.727252,-8.90626e-17,8.74748e-17,-0.714286,1500.53,427)">
                <path d="M823,241.5C823,239.568 821.46,238 819.562,238L801.438,238C799.54,238 798,239.568 798,241.5C798,243.432 799.54,245 801.438,245L819.562,245C821.46,245 823,243.432 823,241.5Z" style="fill:rgb(246,26,48);"/>
            </g>
            <g transform="matrix(102.661,0,0,102.661,471.506,225.252)">
                <path d="M0.303,0.014C0.473,0.014 0.592,-0.079 0.592,-0.235L0.592,-0.237C0.592,-0.389 0.478,-0.459 0.352,-0.459C0.305,-0.459 0.272,-0.449 0.24,-0.434L0.246,-0.54L0.561,-0.54L0.561,-0.7L0.093,-0.7L0.073,-0.345L0.188,-0.281C0.221,-0.301 0.257,-0.316 0.3,-0.316C0.361,-0.316 0.403,-0.285 0.403,-0.235L0.403,-0.233C0.403,-0.183 0.364,-0.151 0.3,-0.151C0.241,-0.151 0.187,-0.179 0.13,-0.227L0.019,-0.097C0.092,-0.029 0.179,0.014 0.303,0.014Z" style="fill:white;fill-rule:nonzero;"/>
            </g>
            <g transform="matrix(102.661,0,0,102.661,525.917,225.252)">
                <path d="M0.414,0.014C0.63,0.014 0.792,-0.149 0.792,-0.35L0.792,-0.352C0.792,-0.553 0.632,-0.714 0.416,-0.714C0.2,-0.714 0.038,-0.551 0.038,-0.35L0.038,-0.348C0.038,-0.147 0.198,0.014 0.414,0.014ZM0.416,-0.161C0.31,-0.161 0.237,-0.249 0.237,-0.35L0.237,-0.352C0.237,-0.453 0.308,-0.539 0.414,-0.539C0.521,-0.539 0.594,-0.451 0.594,-0.35L0.594,-0.348C0.594,-0.247 0.523,-0.161 0.416,-0.161Z" style="fill:white;fill-rule:nonzero;"/>
            </g>
            <g transform="matrix(102.661,0,0,102.661,600.961,225.252)">
                <path d="M0.414,0.014C0.63,0.014 0.792,-0.149 0.792,-0.35L0.792,-0.352C0.792,-0.553 0.632,-0.714 0.416,-0.714C0.2,-0.714 0.038,-0.551 0.038,-0.35L0.038,-0.348C0.038,-0.147 0.198,0.014 0.414,0.014ZM0.416,-0.161C0.31,-0.161 0.237,-0.249 0.237,-0.35L0.237,-0.352C0.237,-0.453 0.308,-0.539 0.414,-0.539C0.521,-0.539 0.594,-0.451 0.594,-0.35L0.594,-0.348C0.594,-0.247 0.523,-0.161 0.416,-0.161Z" style="fill:white;fill-rule:nonzero;"/>
            </g>
            <g transform="matrix(102.661,0,0,102.661,694.177,225.252)">
                <path d="M0.337,0.012C0.507,0.012 0.62,-0.073 0.62,-0.216L0.62,-0.218C0.62,-0.349 0.52,-0.401 0.359,-0.436C0.262,-0.458 0.238,-0.472 0.238,-0.504L0.238,-0.506C0.238,-0.531 0.261,-0.551 0.308,-0.551C0.37,-0.551 0.44,-0.527 0.504,-0.482L0.601,-0.619C0.525,-0.68 0.432,-0.712 0.313,-0.712C0.145,-0.712 0.042,-0.618 0.042,-0.488L0.042,-0.486C0.042,-0.342 0.157,-0.3 0.306,-0.266C0.401,-0.244 0.424,-0.228 0.424,-0.199L0.424,-0.197C0.424,-0.167 0.396,-0.149 0.344,-0.149C0.263,-0.149 0.186,-0.178 0.117,-0.233L0.009,-0.104C0.095,-0.027 0.213,0.012 0.337,0.012Z" style="fill:white;fill-rule:nonzero;"/>
            </g>
            <g transform="matrix(102.661,0,0,102.661,749.846,225.252)">
                <path d="M0.414,0.014C0.63,0.014 0.792,-0.149 0.792,-0.35L0.792,-0.352C0.792,-0.553 0.632,-0.714 0.416,-0.714C0.2,-0.714 0.038,-0.551 0.038,-0.35L0.038,-0.348C0.038,-0.147 0.198,0.014 0.414,0.014ZM0.416,-0.161C0.31,-0.161 0.237,-0.249 0.237,-0.35L0.237,-0.352C0.237,-0.453 0.308,-0.539 0.414,-0.539C0.521,-0.539 0.594,-0.451 0.594,-0.35L0.594,-0.348C0.594,-0.247 0.523,-0.161 0.416,-0.161Z" style="fill:white;fill-rule:nonzero;"/>
            </g>
            <g transform="matrix(102.661,0,0,102.661,824.891,225.252)">
                <path d="M0.062,0L0.254,0L0.254,-0.384L0.553,0L0.723,0L0.723,-0.7L0.531,-0.7L0.531,-0.33L0.243,-0.7L0.062,-0.7L0.062,0Z" style="fill:white;fill-rule:nonzero;"/>
            </g>
            <g transform="matrix(102.661,0,0,102.661,894.213,225.252)">
                <path d="M0.419,0.014C0.546,0.014 0.649,-0.033 0.723,-0.094L0.723,-0.409L0.401,-0.409L0.401,-0.267L0.539,-0.267L0.539,-0.182C0.51,-0.163 0.474,-0.153 0.427,-0.153C0.316,-0.153 0.237,-0.234 0.237,-0.347L0.237,-0.349C0.237,-0.456 0.315,-0.541 0.416,-0.541C0.485,-0.541 0.535,-0.517 0.585,-0.475L0.699,-0.612C0.625,-0.676 0.538,-0.714 0.415,-0.714C0.198,-0.714 0.038,-0.554 0.038,-0.35L0.038,-0.348C0.038,-0.136 0.201,0.014 0.419,0.014Z" style="fill:white;fill-rule:nonzero;"/>
            </g>
            <g transform="matrix(102.661,0,0,102.661,962.893,225.252)">
                <path d="M0.337,0.012C0.507,0.012 0.62,-0.073 0.62,-0.216L0.62,-0.218C0.62,-0.349 0.52,-0.401 0.359,-0.436C0.262,-0.458 0.238,-0.472 0.238,-0.504L0.238,-0.506C0.238,-0.531 0.261,-0.551 0.308,-0.551C0.37,-0.551 0.44,-0.527 0.504,-0.482L0.601,-0.619C0.525,-0.68 0.432,-0.712 0.313,-0.712C0.145,-0.712 0.042,-0.618 0.042,-0.488L0.042,-0.486C0.042,-0.342 0.157,-0.3 0.306,-0.266C0.401,-0.244 0.424,-0.228 0.424,-0.199L0.424,-0.197C0.424,-0.167 0.396,-0.149 0.344,-0.149C0.263,-0.149 0.186,-0.178 0.117,-0.233L0.009,-0.104C0.095,-0.027 0.213,0.012 0.337,0.012Z" style="fill:white;fill-rule:nonzero;"/>
            </g>
            <g transform="matrix(0.353301,0,0,0.353301,551.604,175.005)">
                <g transform="matrix(134.557,0,0,134.557,193.972,269.741)">
                    <rect x="0.066" y="-0.7" width="0.195" height="0.7" style="fill:rgb(246,26,48);fill-rule:nonzero;"/>
                </g>
                <g transform="matrix(134.557,0,0,134.557,246.046,269.741)">
                    <path d="M0.062,0L0.254,0L0.254,-0.384L0.553,0L0.723,0L0.723,-0.7L0.531,-0.7L0.531,-0.33L0.243,-0.7L0.062,-0.7L0.062,0Z" style="fill:rgb(246,26,48);fill-rule:nonzero;"/>
                </g>
                <g transform="matrix(134.557,0,0,134.557,403.747,269.741)">
                    <path d="M0.303,0.014C0.473,0.014 0.592,-0.079 0.592,-0.235L0.592,-0.237C0.592,-0.389 0.478,-0.459 0.352,-0.459C0.305,-0.459 0.272,-0.449 0.24,-0.434L0.246,-0.54L0.561,-0.54L0.561,-0.7L0.093,-0.7L0.073,-0.345L0.188,-0.281C0.221,-0.301 0.257,-0.316 0.3,-0.316C0.361,-0.316 0.403,-0.285 0.403,-0.235L0.403,-0.233C0.403,-0.183 0.364,-0.151 0.3,-0.151C0.241,-0.151 0.187,-0.179 0.13,-0.227L0.019,-0.097C0.092,-0.029 0.179,0.014 0.303,0.014Z" style="fill:rgb(246,26,48);fill-rule:nonzero;"/>
                </g>
                <g transform="matrix(134.557,0,0,134.557,541.937,269.741)">
                    <path d="M0.062,0L0.328,0C0.58,0 0.727,-0.15 0.727,-0.352L0.727,-0.354C0.727,-0.556 0.582,-0.7 0.332,-0.7L0.062,-0.7L0.062,0ZM0.256,-0.172L0.256,-0.528L0.335,-0.528C0.451,-0.528 0.528,-0.463 0.528,-0.351L0.528,-0.349C0.528,-0.236 0.451,-0.172 0.335,-0.172L0.256,-0.172Z" style="fill:rgb(246,26,48);fill-rule:nonzero;"/>
                </g>
                <g transform="matrix(134.557,0,0,134.557,648.909,269.741)">
                    <path d="M0.006,0L0.21,0L0.26,-0.125L0.53,-0.125L0.581,0L0.789,0L0.491,-0.705L0.304,-0.705L0.006,0ZM0.317,-0.276L0.396,-0.475L0.474,-0.276L0.317,-0.276Z" style="fill:rgb(246,26,48);fill-rule:nonzero;"/>
                </g>
                <g transform="matrix(134.557,0,0,134.557,749.154,269.741)">
                    <path d="M0.264,0L0.459,0L0.459,-0.265L0.725,-0.7L0.508,-0.7L0.363,-0.445L0.219,-0.7L-0.002,-0.7L0.264,-0.262L0.264,0Z" style="fill:rgb(246,26,48);fill-rule:nonzero;"/>
                </g>
                <g transform="matrix(134.557,0,0,134.557,850.476,269.741)">
                    <path d="M0.337,0.012C0.507,0.012 0.62,-0.073 0.62,-0.216L0.62,-0.218C0.62,-0.349 0.52,-0.401 0.359,-0.436C0.262,-0.458 0.238,-0.472 0.238,-0.504L0.238,-0.506C0.238,-0.531 0.261,-0.551 0.308,-0.551C0.37,-0.551 0.44,-0.527 0.504,-0.482L0.601,-0.619C0.525,-0.68 0.432,-0.712 0.313,-0.712C0.145,-0.712 0.042,-0.618 0.042,-0.488L0.042,-0.486C0.042,-0.342 0.157,-0.3 0.306,-0.266C0.401,-0.244 0.424,-0.228 0.424,-0.199L0.424,-0.197C0.424,-0.167 0.396,-0.149 0.344,-0.149C0.263,-0.149 0.186,-0.178 0.117,-0.233L0.009,-0.104C0.095,-0.027 0.213,0.012 0.337,0.012Z" style="fill:rgb(246,26,48);fill-rule:nonzero;"/>
                </g>
            </g>
        </g>
    </g>
</svg>
