<?xml version="1.0" encoding="utf-8"?>
<!-- Generator: Adobe Illustrator 19.2.1, SVG Export Plug-In . SVG Version: 6.00 Build 0)  -->
<svg version="1.1" id="Layer_1" xmlns="http://www.w3.org/2000/svg" xmlns:xlink="http://www.w3.org/1999/xlink" x="0px" y="0px"
	 viewBox="0 0 100 100" style="enable-background:new 0 0 100 100;" xml:space="preserve">
<title>download</title>
<path id="download" d="M85.87,93.75H14.13c-1.72,0-3.12-1.4-3.12-3.12s1.4-3.12,3.12-3.12h71.73c1.72,0,3.12,1.4,3.12,3.12
	S87.59,93.75,85.87,93.75z M46.87,70.58V9.38c0-1.73,1.4-3.12,3.12-3.12s3.13,1.4,3.13,3.12v61.21l23.71-23.71
	c1.22-1.22,3.2-1.22,4.42,0s1.22,3.2,0,4.42L52.26,80.28c-0.02,0.02-0.03,0.04-0.05,0.05c-0.46,0.47-1.03,0.75-1.63,0.86h0l0,0
	h-0.01h0h0l-0.01,0h0l0,0h-0.01l-0.01,0l0,0h0c-0.1,0.02-0.21,0.03-0.32,0.04l0,0l0,0H50.2h-0.01h0l0,0h-0.01h-0.01l0,0h0h-0.01h0
	h-0.01h0h-0.01h0h-0.01h-0.01h0h0h-0.01h-0.01H50.1v0h-0.01h-0.01h0h0h0h-0.01h0l0,0h0h-0.02l0,0l0,0c-0.01,0-0.03,0-0.04,0l0,0l0,0
	c-0.01,0-0.03,0-0.04,0l0,0l0,0h-0.02h0l0,0h0h-0.01h0h0h0h-0.01H49.9v0h-0.01h-0.01h-0.01h0h0h-0.01h-0.01h0h-0.01h0h-0.01h0h-0.01
	h0l0,0h-0.01h-0.01l0,0h0H49.8h-0.01l0,0l0,0c-0.11-0.01-0.21-0.02-0.32-0.04h0l0,0l-0.01,0h-0.01l0,0h0l-0.01,0h0h0h-0.01l0,0h0
	c-0.6-0.11-1.17-0.4-1.63-0.86c-0.02-0.02-0.03-0.03-0.05-0.05L18.75,51.29c-1.22-1.22-1.22-3.2,0-4.42c1.22-1.22,3.2-1.22,4.42,0
	L46.87,70.58L46.87,70.58z"/>
</svg>
