<?xml version="1.0" encoding="UTF-8" standalone="no"?>
<!DOCTYPE svg PUBLIC "-//W3C//DTD SVG 1.1//EN" "http://www.w3.org/Graphics/SVG/1.1/DTD/svg11.dtd">
<svg width="100%" height="100%" viewBox="0 0 637 178" version="1.1" xmlns="http://www.w3.org/2000/svg" xmlnsXlink="http://www.w3.org/1999/xlink" xml:space="preserve" xmlnsSerif="http://www.serif.com/" style="fill-rule:evenodd;clip-rule:evenodd;stroke-linejoin:round;stroke-miterlimit:2;">
    <g transform="matrix(1,0,0,1,-181.737,-715.03)">
        <g transform="matrix(1.20406,0,0,1.20406,-102.029,-136.345)">
            <path d="M752.049,792.415C749.531,790.888 746.925,789.531 744.232,788.344C741.959,787.326 739.41,786.372 736.584,785.481C733.758,784.59 730.988,784.145 728.274,784.145C726.069,784.145 724.303,784.484 722.977,785.163C721.65,785.842 720.973,786.987 720.945,788.598C720.924,789.786 721.289,790.761 722.039,791.524C722.789,792.288 723.879,792.987 725.31,793.624C726.741,794.26 728.49,794.875 730.558,795.468C732.625,796.062 734.966,796.783 737.581,797.631C741.715,798.903 745.444,800.303 748.767,801.83C752.091,803.356 754.922,805.159 757.261,807.237C759.599,809.315 761.379,811.838 762.599,814.807C763.82,817.775 764.393,821.38 764.319,825.621C764.224,831.049 763.148,835.608 761.09,839.298C759.033,842.988 756.352,845.935 753.048,848.14C749.744,850.345 746.027,851.936 741.896,852.911C737.765,853.887 733.622,854.374 729.466,854.374C726.158,854.374 722.77,854.12 719.301,853.611C715.832,853.102 712.389,852.381 708.97,851.448C705.551,850.515 702.262,849.412 699.104,848.14C695.945,846.868 693.023,845.426 690.337,843.815L701.404,822.059C704.34,823.925 707.407,825.579 710.605,827.021C713.297,828.293 716.351,829.438 719.769,830.456C723.186,831.474 726.676,831.982 730.238,831.982C732.952,831.982 734.846,831.622 735.919,830.901C736.992,830.18 737.538,829.226 737.559,828.038C737.581,826.766 737.07,825.685 736.025,824.794C734.981,823.904 733.531,823.119 731.677,822.44C729.823,821.762 727.693,821.083 725.288,820.405C722.882,819.726 720.331,818.92 717.633,817.987C713.67,816.63 710.26,815.167 707.404,813.598C704.548,812.029 702.204,810.248 700.372,808.255C698.541,806.261 697.203,803.993 696.356,801.448C695.51,798.903 695.116,795.977 695.174,792.669C695.261,787.665 696.25,783.255 698.14,779.438C700.03,775.621 702.567,772.44 705.749,769.896C708.932,767.351 712.549,765.422 716.601,764.107C720.653,762.792 724.927,762.135 729.422,762.135C732.73,762.135 735.947,762.453 739.074,763.089C742.202,763.725 745.22,764.531 748.129,765.506C751.038,766.482 753.755,767.542 756.28,768.687C758.804,769.832 761.075,770.914 763.093,771.931L752.049,792.415ZM522.233,853.229L501.75,853.229L501.881,845.723C495.34,851.151 487.871,853.865 479.474,853.865C473.622,853.865 468.042,852.826 462.735,850.748C457.427,848.67 452.815,845.638 448.898,841.652C444.982,837.665 441.886,832.788 439.612,827.021C437.338,821.253 436.265,814.68 436.394,807.3C436.505,800.939 437.795,795.023 440.266,789.552C442.736,784.082 446.085,779.332 450.311,775.303C454.537,771.274 459.491,768.093 465.172,765.761C470.853,763.428 476.959,762.262 483.49,762.262C487.562,762.262 491.455,762.707 495.172,763.598C498.888,764.489 502.322,765.803 505.472,767.542C508.622,769.281 511.449,771.359 513.951,773.776C516.453,776.194 518.484,778.929 520.042,781.982L501.348,796.104C499.629,792.542 497.007,789.68 493.482,787.517C489.958,785.354 486.202,784.272 482.216,784.272C479.247,784.272 476.522,784.866 474.042,786.054C471.562,787.241 469.412,788.895 467.594,791.015C465.776,793.136 464.332,795.659 463.263,798.585C462.195,801.512 461.63,804.713 461.569,808.191C461.507,811.753 461.96,814.976 462.927,817.86C463.894,820.744 465.272,823.225 467.059,825.303C468.846,827.381 471.002,828.993 473.527,830.138C476.051,831.283 478.883,831.855 482.021,831.855C489.231,831.855 495.644,828.887 501.261,822.949L485.612,822.949L485.923,805.138L523.073,805.138L522.233,853.229ZM298.833,784.527L261.683,784.527L261.421,799.54L291.701,799.54L291.35,819.641L261.07,819.641L260.484,853.229L235.675,853.229L237.252,762.898L299.211,762.898L298.833,784.527ZM332.113,853.229L307.303,853.229L308.88,762.898L333.689,762.898L332.113,853.229ZM598.878,784.527L560.456,784.527L560.234,797.25L593.058,797.25L592.707,817.351L559.883,817.351L559.634,831.601L599.201,831.601L598.824,853.229L534.447,853.229L536.024,762.898L599.256,762.898L598.878,784.527ZM369.307,853.229L344.498,853.229L346.074,762.898L365.413,762.898L400.871,808.827L401.672,762.898L426.482,762.898L424.905,853.229L405.185,853.229L370.082,808.827L369.307,853.229ZM635.211,853.229L610.402,853.229L611.978,762.898L653.454,762.898C657.865,762.898 661.92,763.81 665.62,765.634C669.32,767.457 672.481,769.832 675.101,772.758C677.722,775.685 679.763,779.035 681.224,782.809C682.685,786.584 683.382,790.379 683.315,794.196C683.223,799.455 681.993,804.353 679.623,808.891C677.254,813.429 674.009,817.139 669.887,820.023L688.392,853.229L660.402,853.229L644.982,825.494L635.695,825.494L635.211,853.229ZM650.296,808.064C652.372,808.064 654.069,806.41 654.139,804.351C654.298,804.07 654.7,803.303 655.041,802.313C655.113,802.133 655.177,801.942 655.231,801.739C655.234,801.727 655.231,801.716 655.233,801.705C655.434,800.994 655.583,800.208 655.583,799.413C655.583,795.37 656.215,793.821 657.015,791.859C657.174,791.471 657.339,791.067 657.507,790.627C657.842,789.746 657.502,788.757 656.692,788.271C656.132,787.935 655.038,787.582 654.013,788.996C653.487,789.723 652.683,791.346 652.038,792.722C652.213,790.509 652.511,787.481 652.948,785.361C653.132,784.472 652.874,783.894 652.625,783.566C652.297,783.131 651.777,782.858 651.199,782.817C650.487,782.764 649.526,783.005 648.984,784.432C648.493,785.727 648.029,787.714 647.667,789.507C647.529,786.605 647.373,783.098 647.336,781.414C647.306,780.044 646.512,779.226 645.212,779.226C644.224,779.226 643.485,780.038 643.331,781.294C643.058,783.519 643.005,786.82 643.016,789.454C642.603,787.678 642.145,785.805 641.805,784.684C641.48,783.615 640.441,782.991 639.332,783.198C638.81,783.296 638.365,783.589 638.078,784.022C637.787,784.461 637.686,785.015 637.8,785.54C638.386,788.228 638.896,792.264 639.124,794.375C638.533,793.863 637.857,793.325 637.228,792.908C636.023,792.107 634.281,791.827 633.107,793.003C632.853,793.258 632.715,793.619 632.719,794.019C632.722,794.426 632.871,794.811 633.118,795.05C635.125,796.996 636.234,798.344 637.124,799.427C638.108,800.623 638.845,801.517 640.203,802.54L640.203,804.219C640.203,806.339 641.928,808.064 644.048,808.064L650.296,808.064Z" style="fill:white;fill-rule:nonzero;"/>
        </g>
        <g transform="matrix(1.20406,0,0,1.20406,-102.029,-136.345)">
            <path d="M480.621,716.123C479.337,714.639 477.612,713.439 475.446,712.523C473.28,711.606 470.8,711.148 468.007,711.148C463.904,711.148 460.901,711.922 458.997,713.472C457.094,715.021 456.118,717.127 456.072,719.789C456.048,721.186 456.279,722.332 456.765,723.226C457.251,724.121 458.012,724.896 459.048,725.551C460.084,726.205 461.417,726.773 463.045,727.253C464.673,727.733 466.596,728.213 468.814,728.693C471.292,729.217 473.519,729.806 475.493,730.461C477.468,731.115 479.144,731.934 480.524,732.916C481.903,733.898 482.952,735.087 483.67,736.484C484.387,737.88 484.728,739.626 484.691,741.721C484.654,743.86 484.207,745.714 483.35,747.286C482.493,748.857 481.314,750.166 479.812,751.214C478.31,752.261 476.528,753.036 474.468,753.538C472.408,754.04 470.156,754.291 467.712,754.291C460.511,754.291 454.331,752.043 449.172,747.548L451.528,743.816C452.342,744.689 453.321,745.518 454.463,746.304C455.606,747.089 456.882,747.777 458.29,748.366C459.698,748.955 461.207,749.413 462.816,749.741C464.425,750.068 466.124,750.232 467.914,750.232C471.624,750.232 474.527,749.566 476.623,748.235C478.72,746.904 479.791,744.885 479.839,742.179C479.864,740.739 479.59,739.528 479.018,738.546C478.446,737.564 477.577,736.713 476.411,735.993C475.245,735.272 473.794,734.65 472.058,734.127C470.321,733.603 468.301,733.079 465.997,732.556C463.562,731.988 461.434,731.399 459.612,730.788C457.789,730.177 456.253,729.413 455.003,728.497C453.754,727.58 452.824,726.478 452.213,725.19C451.603,723.903 451.314,722.321 451.347,720.444C451.384,718.305 451.821,716.396 452.658,714.716C453.495,713.035 454.665,711.639 456.168,710.526C457.672,709.413 459.432,708.562 461.45,707.973C463.468,707.383 465.699,707.089 468.143,707.089C471.242,707.089 473.994,707.558 476.4,708.496C478.806,709.435 480.976,710.755 482.911,712.457L480.621,716.123ZM393.958,711.475L368.033,711.475L367.734,728.562L389.6,728.562L389.534,732.359L367.668,732.359L367.292,753.898L362.709,753.898L363.521,707.416L394.029,707.416L393.958,711.475ZM576.611,711.475L550.555,711.475L550.263,728.235L572.98,728.235L572.913,732.097L550.195,732.097L549.886,749.839L576.531,749.839L576.46,753.898L545.232,753.898L546.044,707.416L576.682,707.416L576.611,711.475ZM596.231,753.898L591.648,753.898L592.46,707.416L612.1,707.416C614.108,707.416 615.944,707.842 617.61,708.693C619.275,709.544 620.707,710.657 621.905,712.032C623.103,713.406 624.025,714.967 624.671,716.712C625.317,718.458 625.625,720.226 625.593,722.015C625.564,723.717 625.284,725.343 624.755,726.893C624.226,728.442 623.504,729.839 622.587,731.083C621.671,732.326 620.572,733.374 619.292,734.225C618.011,735.076 616.583,735.654 615.006,735.96L626.084,753.898L620.912,753.898L610.279,736.745L596.531,736.745L596.231,753.898ZM532.486,711.475L515.923,711.475L515.183,753.898L510.6,753.898L511.341,711.475L494.777,711.475L494.848,707.416L532.557,707.416L532.486,711.475ZM440.288,753.898L435.444,753.898L429.674,739.364L408.79,739.364L402.579,753.898L397.669,753.898L417.924,707.416L421.787,707.416L440.288,753.898ZM351.474,742.118C352.272,742.118 352.92,742.766 352.92,743.564C352.92,744.362 352.272,745.01 351.474,745.01L335.479,745.01C334.681,745.01 334.033,744.362 334.033,743.564C334.033,742.766 334.681,742.118 335.479,742.118L351.474,742.118ZM653.757,742.118C654.555,742.118 655.203,742.766 655.203,743.564C655.203,744.362 654.555,745.01 653.757,745.01L637.763,745.01C636.964,745.01 636.316,744.362 636.316,743.564C636.316,742.766 636.964,742.118 637.763,742.118L653.757,742.118ZM660.867,735.698C661.665,735.698 662.313,736.346 662.313,737.144C662.313,737.942 661.665,738.59 660.867,738.59L637.763,738.59C636.964,738.59 636.316,737.942 636.316,737.144C636.316,736.346 636.964,735.698 637.763,735.698L660.867,735.698ZM351.474,735.698C352.272,735.698 352.92,736.346 352.92,737.144C352.92,737.942 352.272,738.59 351.474,738.59L328.37,738.59C327.571,738.59 326.923,737.942 326.923,737.144C326.923,736.346 327.571,735.698 328.37,735.698L351.474,735.698ZM428.69,735.763L419.729,712.784L409.835,735.763L428.69,735.763ZM611.767,711.475L596.972,711.475L596.601,732.686L611.79,732.686C613.143,732.686 614.381,732.392 615.504,731.803C616.627,731.213 617.591,730.417 618.394,729.413C619.197,728.409 619.828,727.274 620.286,726.009C620.745,724.743 620.986,723.412 621.011,722.015C621.035,720.619 620.807,719.277 620.328,717.989C619.849,716.702 619.192,715.578 618.357,714.617C617.523,713.657 616.533,712.894 615.386,712.326C614.239,711.759 613.033,711.475 611.767,711.475ZM351.474,729.278C352.272,729.278 352.92,729.926 352.92,730.724C352.92,731.523 352.272,732.171 351.474,732.171L320.944,732.171C320.146,732.171 319.498,731.523 319.498,730.724C319.498,729.926 320.146,729.278 320.944,729.278L351.474,729.278ZM668.292,729.278C669.09,729.278 669.738,729.926 669.738,730.724C669.738,731.523 669.09,732.171 668.292,732.171L637.763,732.171C636.964,732.171 636.316,731.523 636.316,730.724C636.316,729.926 636.964,729.278 637.763,729.278L668.292,729.278ZM660.867,722.858C661.665,722.858 662.313,723.506 662.313,724.305C662.313,725.103 661.665,725.751 660.867,725.751L637.763,725.751C636.964,725.751 636.316,725.103 636.316,724.305C636.316,723.506 636.964,722.858 637.763,722.858L660.867,722.858ZM351.474,722.858C352.272,722.858 352.92,723.506 352.92,724.305C352.92,725.103 352.272,725.751 351.474,725.751L328.37,725.751C327.571,725.751 326.923,725.103 326.923,724.305C326.923,723.506 327.571,722.858 328.37,722.858L351.474,722.858ZM351.474,716.439C352.272,716.439 352.92,717.087 352.92,717.885C352.92,718.683 352.272,719.331 351.474,719.331L335.479,719.331C334.681,719.331 334.033,718.683 334.033,717.885C334.033,717.087 334.681,716.439 335.479,716.439L351.474,716.439ZM653.757,716.439C654.555,716.439 655.203,717.087 655.203,717.885C655.203,718.683 654.555,719.331 653.757,719.331L637.763,719.331C636.964,719.331 636.316,718.683 636.316,717.885C636.316,717.087 636.964,716.439 637.763,716.439L653.757,716.439Z" style="fill:rgb(246,26,48);fill-rule:nonzero;"/>
        </g>
    </g>
</svg>
