<svg width="28" height="21" viewBox="0 0 28 21" fill="none" xmlns="http://www.w3.org/2000/svg">
<path d="M26.7212 18.6541C26.6978 18.6359 25.6621 17.5506 24.9451 16.1508C26.2338 14.9151 27.007 13.3648 27.007 11.6731C27.007 8.02524 23.4222 5.01121 18.7501 4.47316C17.2786 1.84672 13.8062 0 9.7621 0C4.37775 0 0.0149641 3.26481 0.0149641 7.29567C0.0149641 8.98279 0.788175 10.5331 2.07686 11.7734C1.35988 13.1732 0.328934 14.2585 0.31019 14.2767C0.0149641 14.5822 -0.0693862 15.0291 0.104 15.4167C0.272701 15.8042 0.666335 16.055 1.09746 16.055C3.60454 16.055 5.62894 15.134 6.96449 14.2858C7.39092 14.3816 7.82673 14.4545 8.2766 14.5047C9.75273 17.1266 13.2205 18.9733 17.2646 18.9733C18.2393 18.9733 19.1765 18.8639 20.0669 18.6632C21.4024 19.5068 23.4222 20.4324 25.9339 20.4324C26.365 20.4324 26.754 20.1816 26.9274 19.7941C27.0961 19.4065 27.0164 18.9596 26.7212 18.6541ZM7.2972 12.8586L6.67863 12.7218L6.14441 13.0592C5.2025 13.6566 3.77792 14.3451 2.03468 14.5412C2.44706 14.0259 2.98128 13.2827 3.41709 12.4254L3.90445 11.477L3.13124 10.7338C2.39083 10.027 1.51452 8.85512 1.51452 7.29567C1.51452 4.07646 5.21656 1.45913 9.7621 1.45913C14.3076 1.45913 18.0097 4.07646 18.0097 7.29567C18.0097 10.5149 14.3076 13.1322 9.7621 13.1322C8.93266 13.1322 8.10321 13.041 7.2972 12.8586ZM20.8776 17.4366L20.3434 17.0992L19.7248 17.2406C18.9188 17.423 18.0893 17.5142 17.2599 17.5142C14.2092 17.5142 11.5428 16.3332 10.1182 14.5822C15.3339 14.4363 19.5092 11.2353 19.5092 7.29567C19.5092 6.86249 19.4483 6.44299 19.3546 6.03261C22.8879 6.69378 25.5075 8.96911 25.5075 11.6731C25.5075 13.2325 24.6312 14.4044 23.8908 15.1112L23.1176 15.8544L23.6002 16.7983C24.0407 17.6601 24.5749 18.4033 24.9826 18.914C23.2441 18.7225 21.8195 18.0294 20.8776 17.4366Z" fill="white"/>
</svg>
