<?xml version="1.0" encoding="UTF-8" standalone="no"?>
<!DOCTYPE svg PUBLIC "-//W3C//DTD SVG 1.1//EN" "http://www.w3.org/Graphics/SVG/1.1/DTD/svg11.dtd">
<svg 
    width="100%" 
    height="100%" 
    viewBox="0 0 100 100" 
    version="1.1" 
    xmlns="http://www.w3.org/2000/svg" 
    xmlnsXlink="http://www.w3.org/1999/xlink" 
    xml:space="preserve" 
    xmlnsSerif="http://www.serif.com/" 
    style="fill-rule:evenodd;clip-rule:evenodd;stroke-linejoin:round;stroke-miterlimit:2;"
>
    <g id="Instructor" transform="matrix(0.162214,0,0,0.165589,-1.90215,7.59114)">
        <path d="M244.544,269.891C257.022,269.99 269.407,272.37 281.436,275.817C307.443,283.147 335.161,282.82 361.361,274.935C404.427,262.193 454.613,274.916 482.637,309.945C498.446,329.705 506.926,355.201 506.777,380.36C506.777,394.617 506.821,408.874 506.776,423.13C506.533,448.732 484.979,472.242 458.232,473.26C457.692,473.28 457.151,473.291 456.61,473.296C365.409,473.589 274.207,473.589 183.005,473.296C157.596,473.056 134.076,451.8 132.889,425.076C132.861,424.428 132.846,423.779 132.84,423.13C132.762,398.388 130.527,373.237 136.91,350.012C143.066,327.614 156.178,307.061 174.471,292.908C193.982,277.812 218.65,270.037 243.427,269.89C243.8,269.889 244.172,269.89 244.544,269.891ZM395.25,321.752C347.469,341.205 293.041,341.415 244.745,321.752C244.745,321.752 242.009,321.837 240.15,322.063C212.166,325.471 188.612,351.405 188.521,380.353L188.521,417.805L451.474,417.805C451.474,404.446 451.998,391.013 451.417,377.741C450.2,349.922 427.24,324.318 397.666,321.839C396.593,321.749 395.598,321.609 395.25,321.752ZM543.94,251C580.819,251.18 616.501,277.757 625.745,315.264C628.844,327.84 630.051,341.948 622.948,351.793C616.175,361.181 603.179,365.611 592.038,362.051C581.04,358.537 572.845,347.803 572.694,335.968C572.499,320.636 559.844,306.749 543.948,306.495C536.191,306.42 528.433,306.462 520.675,306.493C517.304,306.533 514.012,307.445 510.846,308.572L509.217,308.861C505.019,308.198 502.682,303.044 499.602,299.056C492.157,289.419 483.274,280.888 473.552,273.542L472.285,272.135C471.719,270.595 471.308,270.159 471.686,268.464C472.045,266.858 472.64,266.462 473.788,265.396C473.829,265.358 478.034,262.608 481.642,260.71C493.571,254.433 506.998,251.098 520.513,251.001C528.322,250.982 536.131,250.988 543.94,251ZM119.481,251.001C135.812,251.118 151.918,256.021 165.582,264.98L166.207,265.396L167.554,266.728C168.347,268.554 168.682,270.523 167.71,272.135C166.908,273.466 165.452,274.286 164.151,275.304C152.861,284.181 142.868,294.665 134.892,306.634L133.756,307.843C129.51,310.07 124.671,306.556 119.23,306.493C111.533,306.463 103.836,306.468 96.14,306.493C81.372,306.635 67.715,319.282 67.223,334.675C66.979,342.314 64.37,349.904 59.062,355.211C50.329,363.944 35.483,365.742 24.946,359.235C16.478,354.005 11.538,344.133 11.732,333.977C12.549,291.137 49.475,251.365 95.782,251.002C103.682,250.963 111.582,250.982 119.481,251.001ZM320.357,38.704C370.807,38.943 418.774,76.317 429.026,128.125C436.204,164.395 424.139,203.852 397.181,229.862C366.366,259.593 317.785,269.189 277.653,252.661C242.285,238.095 215.486,204.288 209.975,165.744C204.126,124.83 222.72,81.389 257.832,57.677C275.753,45.575 297.182,38.949 318.92,38.708C319.399,38.704 319.878,38.703 320.357,38.704ZM532.555,69.032C562.578,69.175 591.718,87.353 604.931,114.362C616.397,137.798 615.58,166.855 602.65,189.667C586.281,218.545 551.161,235.548 517.493,229.32C484.4,223.198 456.611,194.609 452.155,160.394C447.806,127.001 466.347,91.651 497.689,76.789C508.524,71.651 520.421,69.013 532.555,69.032ZM107.962,69.032C137.97,69.175 167.125,87.353 180.337,114.362C191.794,137.781 190.986,166.855 178.056,189.667C161.687,218.545 126.567,235.548 92.899,229.32C59.806,223.199 32.017,194.609 27.561,160.394C23.213,127 41.753,91.651 73.095,76.789C83.924,71.654 95.827,69.013 107.962,69.032ZM319.637,94.196C299.402,94.389 279.889,106.37 270.589,124.239C262.698,139.401 262.367,158.24 269.688,173.652C281.639,198.816 313.923,212.671 341.327,201.262C359.187,193.826 372.59,176.489 375.16,157.284C377.509,139.732 370.873,121.205 357.893,109.121C347.812,99.736 334.179,94.328 320.357,94.196C320.117,94.196 319.877,94.196 319.637,94.196ZM107.537,124.524C95.951,124.635 85.048,133.563 82.827,145.077C80.66,156.311 87.253,168.67 97.88,173.185C109.635,178.179 124.858,172.508 130.525,160.793C137.739,145.88 126.523,124.938 108.19,124.528C107.972,124.525 107.755,124.523 107.537,124.524ZM532.131,124.524C520.484,124.636 509.549,133.659 507.392,145.231C505.3,156.455 511.923,168.703 522.473,173.185C534.23,178.178 549.453,172.508 555.119,160.793C562.313,145.917 551.117,124.938 532.784,124.528C532.566,124.525 532.349,124.523 532.131,124.524Z" style="fill-rule:nonzero;"/>
    </g>
</svg>
