<?xml version="1.0" encoding="UTF-8" standalone="no"?>
<!DOCTYPE svg PUBLIC "-//W3C//DTD SVG 1.1//EN" "http://www.w3.org/Graphics/SVG/1.1/DTD/svg11.dtd">
<svg 
    width="100%" 
    height="100%" 
    viewBox="0 0 100 100" 
    version="1.1" 
    xmlns="http://www.w3.org/2000/svg" 
    xmlnsXlink="http://www.w3.org/1999/xlink" 
    xml:space="preserve" 
    xmlnsSerif="http://www.serif.com/" 
    style="fill-rule:evenodd;clip-rule:evenodd;stroke-linejoin:round;stroke-miterlimit:2;"
>
    <path id="Levels" d="M25,60C25,54.481 20.519,50 15,50C9.481,50 5,54.481 5,60L5,90C5,95.519 9.481,100 15,100C20.519,100 25,95.519 25,90L25,60ZM60,35.041C60,29.522 55.519,25.041 50,25.041C44.481,25.041 40,29.522 40,35.041L40,90C40,95.519 44.481,100 50,100C55.519,100 60,95.519 60,90L60,35.041ZM95,10C95,4.481 90.519,0 85,0C79.481,0 75,4.481 75,10L75,90C75,95.519 79.481,100 85,100C90.519,100 95,95.519 95,90L95,10Z"/>
</svg>
