<?xml version="1.0" encoding="UTF-8" standalone="no"?>
<!DOCTYPE svg PUBLIC "-//W3C//DTD SVG 1.1//EN" "http://www.w3.org/Graphics/SVG/1.1/DTD/svg11.dtd">
<svg width="100%" height="100%" viewBox="0 0 100 100" version="1.1" xmlns="http://www.w3.org/2000/svg" xmlnsXlink="http://www.w3.org/1999/xlink" xml:space="preserve" xmlnsSerif="http://www.serif.com/" style="fill-rule:evenodd;clip-rule:evenodd;stroke-linejoin:round;stroke-miterlimit:2;">
    <g id="my-list">
        <path d="M55,55L55,37C55,32.033 59.033,28 64,28C68.967,28 73,32.033 73,37L73,55L91,55C95.967,55 100,59.033 100,64C100,68.967 95.967,73 91,73L73,73L73,91C73,95.967 68.967,100 64,100C59.033,100 55,95.967 55,91L55,73L37,73C32.033,73 28,68.967 28,64C28,59.033 32.033,55 37,55L55,55ZM18,64C18,59.033 13.967,55 9,55C4.033,55 0,59.033 0,64C0,68.967 4.033,73 9,73C13.967,73 18,68.967 18,64ZM36,28C40.967,28 45,32.033 45,37C45,41.967 40.967,46 36,46L9,46C4.033,46 0,41.967 0,37C0,32.033 4.033,28 9,28L36,28ZM91,0C95.967,0 100,4.033 100,9C100,13.967 95.967,18 91,18L9,18C4.033,18 0,13.967 0,9C0,4.033 4.033,0 9,0L91,0Z"/>
        <path d="M64.116,28.001L64.232,28.003L64.348,28.007L64.463,28.012L64.578,28.018L64.692,28.026L64.806,28.036L64.92,28.047L65.033,28.059L65.146,28.072L65.258,28.087L65.37,28.104L65.481,28.122L65.592,28.141L65.703,28.161L65.813,28.183L65.922,28.206L66.031,28.231L66.14,28.256L66.248,28.284L66.356,28.312L66.463,28.342L66.569,28.373L66.675,28.405L66.78,28.438L66.885,28.473L66.99,28.509L67.093,28.546L67.196,28.585L67.299,28.625L67.401,28.666L67.502,28.708L67.602,28.751L67.702,28.796L67.802,28.841L67.9,28.888L67.998,28.936L68.096,28.985L68.192,29.036L68.288,29.087L68.384,29.139L68.478,29.193L68.572,29.248L68.665,29.304L68.758,29.361L68.849,29.419L68.94,29.478L69.031,29.538L69.12,29.599L69.209,29.661L69.296,29.725L69.383,29.789L69.47,29.854L69.555,29.921L69.64,29.988L69.723,30.056L69.806,30.126L69.888,30.196L69.97,30.267L70.05,30.339L70.13,30.412L70.208,30.486L70.286,30.561L70.363,30.637L70.439,30.714L70.514,30.792L70.588,30.87L70.661,30.95L70.733,31.03L70.804,31.112L70.874,31.194L70.944,31.277L71.012,31.36L71.079,31.445L71.146,31.53L71.211,31.617L71.275,31.704L71.339,31.791L71.401,31.88L71.462,31.969L71.522,32.06L71.581,32.151L71.639,32.242L71.696,32.335L71.752,32.428L71.807,32.522L71.861,32.616L71.913,32.712L71.964,32.808L72.015,32.904L72.064,33.002L72.112,33.1L72.159,33.198L72.204,33.298L72.249,33.398L72.292,33.498L72.334,33.599L72.375,33.701L72.415,33.804L72.454,33.907L72.491,34.01L72.527,34.115L72.562,34.22L72.595,34.325L72.627,34.431L72.658,34.537L72.688,34.644L72.716,34.752L72.744,34.86L72.769,34.969L72.794,35.078L72.817,35.187L72.839,35.297L72.859,35.408L72.878,35.519L72.896,35.63L72.913,35.742L72.928,35.854L72.941,35.967L72.953,36.08L72.964,36.194L72.974,36.308L72.982,36.422L72.988,36.537L72.993,36.652L72.997,36.768L72.999,36.884L73,37L73,55L91,55L91.116,55.001L91.232,55.003L91.348,55.007L91.463,55.012L91.578,55.018L91.692,55.026L91.806,55.036L91.92,55.047L92.033,55.059L92.146,55.072L92.258,55.087L92.37,55.104L92.481,55.122L92.592,55.141L92.703,55.161L92.813,55.183L92.922,55.206L93.031,55.231L93.14,55.256L93.248,55.284L93.356,55.312L93.463,55.342L93.569,55.373L93.675,55.405L93.78,55.438L93.885,55.473L93.99,55.509L94.093,55.546L94.196,55.585L94.299,55.625L94.401,55.666L94.502,55.708L94.602,55.751L94.702,55.796L94.802,55.841L94.9,55.888L94.998,55.936L95.096,55.985L95.192,56.036L95.288,56.087L95.384,56.139L95.478,56.193L95.572,56.248L95.665,56.304L95.758,56.361L95.849,56.419L95.94,56.478L96.031,56.538L96.12,56.599L96.209,56.661L96.296,56.725L96.383,56.789L96.47,56.854L96.555,56.921L96.64,56.988L96.723,57.056L96.806,57.126L96.888,57.196L96.97,57.267L97.05,57.339L97.13,57.412L97.208,57.486L97.286,57.561L97.363,57.637L97.439,57.714L97.514,57.792L97.588,57.87L97.661,57.95L97.733,58.03L97.804,58.112L97.874,58.194L97.944,58.277L98.012,58.36L98.079,58.445L98.146,58.53L98.211,58.617L98.275,58.704L98.339,58.791L98.401,58.88L98.462,58.969L98.522,59.06L98.581,59.151L98.639,59.242L98.696,59.335L98.752,59.428L98.807,59.522L98.861,59.616L98.913,59.712L98.964,59.808L99.015,59.904L99.064,60.002L99.112,60.1L99.159,60.198L99.204,60.298L99.249,60.398L99.292,60.498L99.334,60.599L99.375,60.701L99.415,60.804L99.454,60.907L99.491,61.01L99.527,61.115L99.562,61.22L99.595,61.325L99.627,61.431L99.658,61.537L99.688,61.644L99.716,61.752L99.744,61.86L99.769,61.969L99.794,62.078L99.817,62.187L99.839,62.297L99.859,62.408L99.878,62.519L99.896,62.63L99.913,62.742L99.928,62.854L99.941,62.967L99.953,63.08L99.964,63.194L99.974,63.308L99.982,63.422L99.988,63.537L99.993,63.652L99.997,63.768L99.999,63.884L100,64L99.999,64.116L99.997,64.232L99.993,64.348L99.988,64.463L99.982,64.578L99.974,64.692L99.964,64.806L99.953,64.92L99.941,65.033L99.928,65.146L99.913,65.258L99.896,65.37L99.878,65.481L99.859,65.592L99.839,65.703L99.817,65.813L99.794,65.922L99.769,66.031L99.744,66.14L99.716,66.248L99.688,66.356L99.658,66.463L99.627,66.569L99.595,66.675L99.562,66.78L99.527,66.885L99.491,66.99L99.454,67.093L99.415,67.196L99.375,67.299L99.334,67.401L99.292,67.502L99.249,67.602L99.204,67.702L99.159,67.802L99.112,67.9L99.064,67.998L99.015,68.096L98.964,68.192L98.913,68.288L98.861,68.384L98.807,68.478L98.752,68.572L98.696,68.665L98.639,68.758L98.581,68.849L98.522,68.94L98.462,69.031L98.401,69.12L98.339,69.209L98.275,69.296L98.211,69.383L98.146,69.47L98.079,69.555L98.012,69.64L97.944,69.723L97.874,69.806L97.804,69.888L97.733,69.97L97.661,70.05L97.588,70.13L97.514,70.208L97.439,70.286L97.363,70.363L97.286,70.439L97.208,70.514L97.13,70.588L97.05,70.661L96.97,70.733L96.888,70.804L96.806,70.874L96.723,70.944L96.64,71.012L96.555,71.079L96.47,71.146L96.383,71.211L96.296,71.275L96.209,71.339L96.12,71.401L96.031,71.462L95.94,71.522L95.849,71.581L95.758,71.639L95.665,71.696L95.572,71.752L95.478,71.807L95.384,71.861L95.288,71.913L95.192,71.964L95.096,72.015L94.998,72.064L94.9,72.112L94.802,72.159L94.702,72.204L94.602,72.249L94.502,72.292L94.401,72.334L94.299,72.375L94.196,72.415L94.093,72.454L93.99,72.491L93.885,72.527L93.78,72.562L93.675,72.595L93.569,72.627L93.463,72.658L93.356,72.688L93.248,72.716L93.14,72.744L93.031,72.769L92.922,72.794L92.813,72.817L92.703,72.839L92.592,72.859L92.481,72.878L92.37,72.896L92.258,72.913L92.146,72.928L92.033,72.941L91.92,72.953L91.806,72.964L91.692,72.974L91.578,72.982L91.463,72.988L91.348,72.993L91.232,72.997L91.116,72.999L91,73L73,73L73,91L72.999,91.116L72.997,91.232L72.993,91.348L72.988,91.463L72.982,91.578L72.974,91.692L72.964,91.806L72.953,91.92L72.941,92.033L72.928,92.146L72.913,92.258L72.896,92.37L72.878,92.481L72.859,92.592L72.839,92.703L72.817,92.813L72.794,92.922L72.769,93.031L72.744,93.14L72.716,93.248L72.688,93.356L72.658,93.463L72.627,93.569L72.595,93.675L72.562,93.78L72.527,93.885L72.491,93.99L72.454,94.093L72.415,94.196L72.375,94.299L72.334,94.401L72.292,94.502L72.249,94.602L72.204,94.702L72.159,94.802L72.112,94.9L72.064,94.998L72.015,95.096L71.964,95.192L71.913,95.288L71.861,95.384L71.807,95.478L71.752,95.572L71.696,95.665L71.639,95.758L71.581,95.849L71.522,95.94L71.462,96.031L71.401,96.12L71.339,96.209L71.275,96.296L71.211,96.383L71.146,96.47L71.079,96.555L71.012,96.64L70.944,96.723L70.874,96.806L70.804,96.888L70.733,96.97L70.661,97.05L70.588,97.13L70.514,97.208L70.439,97.286L70.363,97.363L70.286,97.439L70.208,97.514L70.13,97.588L70.05,97.661L69.97,97.733L69.888,97.804L69.806,97.874L69.723,97.944L69.64,98.012L69.555,98.079L69.47,98.146L69.383,98.211L69.296,98.275L69.209,98.339L69.12,98.401L69.031,98.462L68.94,98.522L68.849,98.581L68.758,98.639L68.665,98.696L68.572,98.752L68.478,98.807L68.384,98.861L68.288,98.913L68.192,98.964L68.096,99.015L67.998,99.064L67.9,99.112L67.802,99.159L67.702,99.204L67.602,99.249L67.502,99.292L67.401,99.334L67.299,99.375L67.196,99.415L67.093,99.454L66.99,99.491L66.885,99.527L66.78,99.562L66.675,99.595L66.569,99.627L66.463,99.658L66.356,99.688L66.248,99.716L66.14,99.744L66.031,99.769L65.922,99.794L65.813,99.817L65.703,99.839L65.592,99.859L65.481,99.878L65.37,99.896L65.258,99.913L65.146,99.928L65.033,99.941L64.92,99.953L64.806,99.964L64.692,99.974L64.578,99.982L64.463,99.988L64.348,99.993L64.232,99.997L64.116,99.999L64,100L63.884,99.999L63.768,99.997L63.652,99.993L63.537,99.988L63.422,99.982L63.308,99.974L63.194,99.964L63.08,99.953L62.967,99.941L62.854,99.928L62.742,99.913L62.63,99.896L62.519,99.878L62.408,99.859L62.297,99.839L62.187,99.817L62.078,99.794L61.969,99.769L61.86,99.744L61.752,99.716L61.644,99.688L61.537,99.658L61.431,99.627L61.325,99.595L61.22,99.562L61.115,99.527L61.01,99.491L60.907,99.454L60.804,99.415L60.701,99.375L60.599,99.334L60.498,99.292L60.398,99.249L60.298,99.204L60.198,99.159L60.1,99.112L60.002,99.064L59.904,99.015L59.808,98.964L59.712,98.913L59.616,98.861L59.522,98.807L59.428,98.752L59.335,98.696L59.242,98.639L59.151,98.581L59.06,98.522L58.969,98.462L58.88,98.401L58.791,98.339L58.704,98.275L58.617,98.211L58.53,98.146L58.445,98.079L58.36,98.012L58.277,97.944L58.194,97.874L58.112,97.804L58.03,97.733L57.95,97.661L57.87,97.588L57.792,97.514L57.714,97.439L57.637,97.363L57.561,97.286L57.486,97.208L57.412,97.13L57.339,97.05L57.267,96.97L57.196,96.888L57.126,96.806L57.056,96.723L56.988,96.64L56.921,96.555L56.854,96.47L56.789,96.383L56.725,96.296L56.661,96.209L56.599,96.12L56.538,96.031L56.478,95.94L56.419,95.849L56.361,95.758L56.304,95.665L56.248,95.572L56.193,95.478L56.139,95.384L56.087,95.288L56.036,95.192L55.985,95.096L55.936,94.998L55.888,94.9L55.841,94.802L55.796,94.702L55.751,94.602L55.708,94.502L55.666,94.401L55.625,94.299L55.585,94.196L55.546,94.093L55.509,93.99L55.473,93.885L55.438,93.78L55.405,93.675L55.373,93.569L55.342,93.463L55.312,93.356L55.284,93.248L55.256,93.14L55.231,93.031L55.206,92.922L55.183,92.813L55.161,92.703L55.141,92.592L55.122,92.481L55.104,92.37L55.087,92.258L55.072,92.146L55.059,92.033L55.047,91.92L55.036,91.806L55.026,91.692L55.018,91.578L55.012,91.463L55.007,91.348L55.003,91.232L55.001,91.116L55,91L55,73L37,73L36.884,72.999L36.768,72.997L36.652,72.993L36.537,72.988L36.422,72.982L36.308,72.974L36.194,72.964L36.08,72.953L35.967,72.941L35.854,72.928L35.742,72.913L35.63,72.896L35.519,72.878L35.408,72.859L35.297,72.839L35.187,72.817L35.078,72.794L34.969,72.769L34.86,72.744L34.752,72.716L34.644,72.688L34.537,72.658L34.431,72.627L34.325,72.595L34.22,72.562L34.115,72.527L34.01,72.491L33.907,72.454L33.804,72.415L33.701,72.375L33.599,72.334L33.498,72.292L33.398,72.249L33.298,72.204L33.198,72.159L33.1,72.112L33.002,72.064L32.904,72.015L32.808,71.964L32.712,71.913L32.616,71.861L32.522,71.807L32.428,71.752L32.335,71.696L32.242,71.639L32.151,71.581L32.06,71.522L31.969,71.462L31.88,71.401L31.791,71.339L31.704,71.275L31.617,71.211L31.53,71.146L31.445,71.079L31.36,71.012L31.277,70.944L31.194,70.874L31.112,70.804L31.03,70.733L30.95,70.661L30.87,70.588L30.792,70.514L30.714,70.439L30.637,70.363L30.561,70.286L30.486,70.208L30.412,70.13L30.339,70.05L30.267,69.97L30.196,69.888L30.126,69.806L30.056,69.723L29.988,69.64L29.921,69.555L29.854,69.47L29.789,69.383L29.725,69.296L29.661,69.209L29.599,69.12L29.538,69.031L29.478,68.94L29.419,68.849L29.361,68.758L29.304,68.665L29.248,68.572L29.193,68.478L29.139,68.384L29.087,68.288L29.036,68.192L28.985,68.096L28.936,67.998L28.888,67.9L28.841,67.802L28.796,67.702L28.751,67.602L28.708,67.502L28.666,67.401L28.625,67.299L28.585,67.196L28.546,67.093L28.509,66.99L28.473,66.885L28.438,66.78L28.405,66.675L28.373,66.569L28.342,66.463L28.312,66.356L28.284,66.248L28.256,66.14L28.231,66.031L28.206,65.922L28.183,65.813L28.161,65.703L28.141,65.592L28.122,65.481L28.104,65.37L28.087,65.258L28.072,65.146L28.059,65.033L28.047,64.92L28.036,64.806L28.026,64.692L28.018,64.578L28.012,64.463L28.007,64.348L28.003,64.232L28.001,64.116L28,64L28.001,63.884L28.003,63.768L28.007,63.652L28.012,63.537L28.018,63.422L28.026,63.308L28.036,63.194L28.047,63.08L28.059,62.967L28.072,62.854L28.087,62.742L28.104,62.63L28.122,62.519L28.141,62.408L28.161,62.297L28.183,62.187L28.206,62.078L28.231,61.969L28.256,61.86L28.284,61.752L28.312,61.644L28.342,61.537L28.373,61.431L28.405,61.325L28.438,61.22L28.473,61.115L28.509,61.01L28.546,60.907L28.585,60.804L28.625,60.701L28.666,60.599L28.708,60.498L28.751,60.398L28.796,60.298L28.841,60.198L28.888,60.1L28.936,60.002L28.985,59.904L29.036,59.808L29.087,59.712L29.139,59.616L29.193,59.522L29.248,59.428L29.304,59.335L29.361,59.242L29.419,59.151L29.478,59.06L29.538,58.969L29.599,58.88L29.661,58.791L29.725,58.704L29.789,58.617L29.854,58.53L29.921,58.445L29.988,58.36L30.056,58.277L30.126,58.194L30.196,58.112L30.267,58.03L30.339,57.95L30.412,57.87L30.486,57.792L30.561,57.714L30.637,57.637L30.714,57.561L30.792,57.486L30.87,57.412L30.95,57.339L31.03,57.267L31.112,57.196L31.194,57.126L31.277,57.056L31.36,56.988L31.445,56.921L31.53,56.854L31.617,56.789L31.704,56.725L31.791,56.661L31.88,56.599L31.969,56.538L32.06,56.478L32.151,56.419L32.242,56.361L32.335,56.304L32.428,56.248L32.522,56.193L32.616,56.139L32.712,56.087L32.808,56.036L32.904,55.985L33.002,55.936L33.1,55.888L33.198,55.841L33.298,55.796L33.398,55.751L33.498,55.708L33.599,55.666L33.701,55.625L33.804,55.585L33.907,55.546L34.01,55.509L34.115,55.473L34.22,55.438L34.325,55.405L34.431,55.373L34.537,55.342L34.644,55.312L34.752,55.284L34.86,55.256L34.969,55.231L35.078,55.206L35.187,55.183L35.297,55.161L35.408,55.141L35.519,55.122L35.63,55.104L35.742,55.087L35.854,55.072L35.967,55.059L36.08,55.047L36.194,55.036L36.308,55.026L36.422,55.018L36.537,55.012L36.652,55.007L36.768,55.003L36.884,55.001L37,55L55,55L55,37L55.001,36.884L55.003,36.768L55.007,36.652L55.012,36.537L55.018,36.422L55.026,36.308L55.036,36.194L55.047,36.08L55.059,35.967L55.072,35.854L55.087,35.742L55.104,35.63L55.122,35.519L55.141,35.408L55.161,35.297L55.183,35.187L55.206,35.078L55.231,34.969L55.256,34.86L55.284,34.752L55.312,34.644L55.342,34.537L55.373,34.431L55.405,34.325L55.438,34.22L55.473,34.115L55.509,34.01L55.546,33.907L55.585,33.804L55.625,33.701L55.666,33.599L55.708,33.498L55.751,33.398L55.796,33.298L55.841,33.198L55.888,33.1L55.936,33.002L55.985,32.904L56.036,32.808L56.087,32.712L56.139,32.616L56.193,32.522L56.248,32.428L56.304,32.335L56.361,32.242L56.419,32.151L56.478,32.06L56.538,31.969L56.599,31.88L56.661,31.791L56.725,31.704L56.789,31.617L56.854,31.53L56.921,31.445L56.988,31.36L57.056,31.277L57.126,31.194L57.196,31.112L57.267,31.03L57.339,30.95L57.412,30.87L57.486,30.792L57.561,30.714L57.637,30.637L57.714,30.561L57.792,30.486L57.87,30.412L57.95,30.339L58.03,30.267L58.112,30.196L58.194,30.126L58.277,30.056L58.36,29.988L58.445,29.921L58.53,29.854L58.617,29.789L58.704,29.725L58.791,29.661L58.88,29.599L58.969,29.538L59.06,29.478L59.151,29.419L59.242,29.361L59.335,29.304L59.428,29.248L59.522,29.193L59.616,29.139L59.712,29.087L59.808,29.036L59.904,28.985L60.002,28.936L60.1,28.888L60.198,28.841L60.298,28.796L60.398,28.751L60.498,28.708L60.599,28.666L60.701,28.625L60.804,28.585L60.907,28.546L61.01,28.509L61.115,28.473L61.22,28.438L61.325,28.405L61.431,28.373L61.537,28.342L61.644,28.312L61.752,28.284L61.86,28.256L61.969,28.231L62.078,28.206L62.187,28.183L62.297,28.161L62.408,28.141L62.519,28.122L62.63,28.104L62.742,28.087L62.854,28.072L62.967,28.059L63.08,28.047L63.194,28.036L63.308,28.026L63.422,28.018L63.537,28.012L63.652,28.007L63.768,28.003L63.884,28.001L64,28L64.116,28.001ZM63.909,30.001L63.819,30.002L63.728,30.005L63.639,30.009L63.549,30.014L63.46,30.021L63.371,30.028L63.283,30.036L63.195,30.046L63.107,30.056L63.02,30.068L62.933,30.081L62.846,30.095L62.76,30.109L62.674,30.125L62.588,30.142L62.503,30.16L62.419,30.179L62.335,30.199L62.251,30.22L62.167,30.242L62.084,30.265L62.002,30.29L61.919,30.315L61.838,30.341L61.756,30.368L61.675,30.395L61.595,30.424L61.515,30.454L61.435,30.485L61.356,30.517L61.278,30.55L61.2,30.583L61.122,30.618L61.045,30.653L60.968,30.69L60.892,30.727L60.816,30.765L60.741,30.804L60.667,30.844L60.593,30.885L60.519,30.927L60.446,30.969L60.374,31.013L60.302,31.057L60.23,31.102L60.16,31.148L60.089,31.195L60.02,31.243L59.951,31.291L59.882,31.34L59.815,31.39L59.747,31.441L59.681,31.493L59.615,31.545L59.55,31.599L59.485,31.653L59.421,31.707L59.358,31.763L59.295,31.819L59.233,31.876L59.172,31.934L59.111,31.992L59.052,32.052L58.992,32.111L58.934,32.172L58.876,32.233L58.819,32.295L58.763,32.358L58.707,32.421L58.653,32.485L58.599,32.55L58.545,32.615L58.493,32.681L58.441,32.747L58.39,32.815L58.34,32.882L58.291,32.951L58.243,33.02L58.195,33.089L58.148,33.16L58.102,33.23L58.057,33.302L58.013,33.374L57.969,33.446L57.927,33.519L57.885,33.593L57.844,33.667L57.804,33.741L57.765,33.816L57.727,33.892L57.69,33.968L57.653,34.045L57.618,34.122L57.583,34.2L57.55,34.278L57.517,34.356L57.485,34.435L57.454,34.515L57.424,34.595L57.396,34.675L57.368,34.756L57.341,34.838L57.315,34.919L57.29,35.002L57.265,35.084L57.242,35.167L57.22,35.251L57.199,35.335L57.179,35.419L57.16,35.503L57.142,35.589L57.125,35.674L57.109,35.76L57.095,35.846L57.081,35.933L57.068,36.02L57.056,36.107L57.046,36.195L57.036,36.283L57.028,36.371L57.021,36.46L57.014,36.549L57.009,36.639L57.005,36.728L57.002,36.819L57.001,36.909L57,37.006L57,55L56.983,55.261L56.932,55.518L56.848,55.765L56.732,56L56.587,56.218L56.414,56.414L56.218,56.587L56,56.732L55.765,56.848L55.518,56.932L55.261,56.983L55,57L37.006,57L36.909,57.001L36.819,57.002L36.728,57.005L36.639,57.009L36.549,57.014L36.46,57.021L36.371,57.028L36.283,57.036L36.195,57.046L36.107,57.056L36.02,57.068L35.933,57.081L35.846,57.095L35.76,57.109L35.674,57.125L35.589,57.142L35.503,57.16L35.419,57.179L35.335,57.199L35.251,57.22L35.167,57.242L35.084,57.265L35.002,57.29L34.919,57.315L34.838,57.341L34.756,57.368L34.675,57.396L34.595,57.424L34.515,57.454L34.435,57.485L34.356,57.517L34.278,57.55L34.2,57.583L34.122,57.618L34.045,57.653L33.968,57.69L33.892,57.727L33.816,57.765L33.741,57.804L33.667,57.844L33.593,57.885L33.519,57.927L33.446,57.969L33.374,58.013L33.302,58.057L33.23,58.102L33.16,58.148L33.089,58.195L33.02,58.243L32.951,58.291L32.882,58.34L32.815,58.39L32.747,58.441L32.681,58.493L32.615,58.545L32.55,58.599L32.485,58.653L32.421,58.707L32.358,58.763L32.295,58.819L32.233,58.876L32.172,58.934L32.111,58.992L32.052,59.052L31.992,59.111L31.934,59.172L31.876,59.233L31.819,59.295L31.763,59.358L31.707,59.421L31.653,59.485L31.599,59.55L31.545,59.615L31.493,59.681L31.441,59.747L31.39,59.815L31.34,59.882L31.291,59.951L31.243,60.02L31.195,60.089L31.148,60.16L31.102,60.23L31.057,60.302L31.013,60.374L30.969,60.446L30.927,60.519L30.885,60.593L30.844,60.667L30.804,60.741L30.765,60.816L30.727,60.892L30.69,60.968L30.653,61.045L30.618,61.122L30.583,61.2L30.55,61.278L30.517,61.356L30.485,61.435L30.454,61.515L30.424,61.595L30.395,61.675L30.368,61.756L30.341,61.838L30.315,61.919L30.29,62.002L30.265,62.084L30.242,62.167L30.22,62.251L30.199,62.335L30.179,62.419L30.16,62.503L30.142,62.588L30.125,62.674L30.109,62.76L30.095,62.846L30.081,62.933L30.068,63.02L30.056,63.107L30.046,63.195L30.036,63.283L30.028,63.371L30.021,63.46L30.014,63.549L30.009,63.639L30.005,63.728L30.002,63.819L30.001,63.909L30,64L30.001,64.091L30.002,64.181L30.005,64.272L30.009,64.361L30.014,64.451L30.021,64.54L30.028,64.629L30.036,64.717L30.046,64.805L30.056,64.893L30.068,64.98L30.081,65.067L30.095,65.154L30.109,65.24L30.125,65.326L30.142,65.412L30.16,65.497L30.179,65.581L30.199,65.665L30.22,65.749L30.242,65.833L30.265,65.916L30.29,65.998L30.315,66.081L30.341,66.162L30.368,66.244L30.395,66.325L30.424,66.405L30.454,66.485L30.485,66.565L30.517,66.644L30.55,66.722L30.583,66.8L30.618,66.878L30.653,66.955L30.69,67.032L30.727,67.108L30.765,67.184L30.804,67.259L30.844,67.333L30.885,67.407L30.927,67.481L30.969,67.554L31.013,67.626L31.057,67.698L31.102,67.77L31.148,67.84L31.195,67.911L31.243,67.98L31.291,68.049L31.34,68.118L31.39,68.185L31.441,68.253L31.493,68.319L31.545,68.385L31.599,68.45L31.653,68.515L31.707,68.579L31.763,68.642L31.819,68.705L31.876,68.767L31.934,68.828L31.992,68.889L32.052,68.948L32.111,69.008L32.172,69.066L32.233,69.124L32.295,69.181L32.358,69.237L32.421,69.293L32.485,69.347L32.55,69.401L32.615,69.455L32.681,69.507L32.747,69.559L32.815,69.61L32.882,69.66L32.951,69.709L33.02,69.757L33.089,69.805L33.16,69.852L33.23,69.898L33.302,69.943L33.374,69.987L33.446,70.031L33.519,70.073L33.593,70.115L33.667,70.156L33.741,70.196L33.816,70.235L33.892,70.273L33.968,70.31L34.045,70.347L34.122,70.382L34.2,70.417L34.278,70.45L34.356,70.483L34.435,70.515L34.515,70.546L34.595,70.576L34.675,70.604L34.756,70.632L34.838,70.659L34.919,70.685L35.002,70.71L35.084,70.735L35.167,70.758L35.251,70.78L35.335,70.801L35.419,70.821L35.503,70.84L35.589,70.858L35.674,70.875L35.76,70.891L35.846,70.905L35.933,70.919L36.02,70.932L36.107,70.944L36.195,70.954L36.283,70.964L36.371,70.972L36.46,70.979L36.549,70.986L36.639,70.991L36.728,70.995L36.819,70.998L36.909,70.999L37.006,71L55,71L55.261,71.017L55.518,71.068L55.765,71.152L56,71.268L56.218,71.413L56.414,71.586L56.587,71.782L56.732,72L56.848,72.235L56.932,72.482L56.983,72.739L57,73L57,90.994L57.001,91.091L57.002,91.181L57.005,91.272L57.009,91.361L57.014,91.451L57.021,91.54L57.028,91.629L57.036,91.717L57.046,91.805L57.056,91.893L57.068,91.98L57.081,92.067L57.095,92.154L57.109,92.24L57.125,92.326L57.142,92.411L57.16,92.496L57.179,92.581L57.199,92.665L57.22,92.749L57.242,92.833L57.265,92.916L57.29,92.998L57.315,93.081L57.341,93.162L57.368,93.244L57.396,93.325L57.424,93.405L57.454,93.485L57.485,93.565L57.517,93.644L57.55,93.722L57.583,93.8L57.618,93.878L57.653,93.955L57.69,94.032L57.727,94.108L57.765,94.184L57.804,94.259L57.844,94.333L57.885,94.407L57.927,94.481L57.969,94.554L58.013,94.626L58.057,94.698L58.102,94.77L58.148,94.84L58.195,94.911L58.243,94.98L58.291,95.049L58.34,95.118L58.39,95.185L58.441,95.253L58.493,95.319L58.545,95.385L58.599,95.45L58.653,95.515L58.707,95.579L58.763,95.642L58.819,95.705L58.876,95.767L58.934,95.828L58.992,95.889L59.052,95.948L59.111,96.008L59.172,96.066L59.233,96.124L59.295,96.181L59.358,96.237L59.421,96.293L59.485,96.347L59.55,96.401L59.615,96.455L59.681,96.507L59.747,96.559L59.815,96.61L59.882,96.66L59.951,96.709L60.02,96.757L60.089,96.805L60.16,96.852L60.23,96.898L60.302,96.943L60.374,96.987L60.446,97.031L60.519,97.073L60.593,97.115L60.667,97.156L60.741,97.196L60.816,97.235L60.892,97.273L60.968,97.31L61.045,97.347L61.122,97.382L61.2,97.417L61.278,97.45L61.356,97.483L61.435,97.515L61.515,97.546L61.595,97.576L61.675,97.605L61.756,97.632L61.838,97.659L61.919,97.685L62.002,97.711L62.084,97.735L62.167,97.758L62.251,97.78L62.334,97.801L62.419,97.821L62.503,97.84L62.588,97.858L62.674,97.875L62.76,97.891L62.846,97.905L62.933,97.919L63.02,97.932L63.107,97.944L63.195,97.954L63.283,97.964L63.371,97.972L63.46,97.979L63.549,97.986L63.639,97.991L63.728,97.995L63.819,97.998L63.909,97.999L64,98L64.091,97.999L64.181,97.998L64.272,97.995L64.361,97.991L64.451,97.986L64.54,97.979L64.629,97.972L64.717,97.964L64.805,97.954L64.893,97.944L64.98,97.932L65.067,97.919L65.154,97.905L65.24,97.891L65.326,97.875L65.412,97.858L65.497,97.84L65.581,97.821L65.666,97.801L65.749,97.78L65.833,97.758L65.916,97.735L65.998,97.711L66.081,97.685L66.162,97.659L66.244,97.632L66.325,97.605L66.405,97.576L66.485,97.546L66.565,97.515L66.644,97.483L66.722,97.45L66.8,97.417L66.878,97.382L66.955,97.347L67.032,97.31L67.108,97.273L67.184,97.235L67.259,97.196L67.333,97.156L67.407,97.115L67.481,97.073L67.554,97.031L67.626,96.987L67.698,96.943L67.77,96.898L67.84,96.852L67.911,96.805L67.98,96.757L68.049,96.709L68.118,96.66L68.185,96.61L68.253,96.559L68.319,96.507L68.385,96.455L68.45,96.401L68.515,96.347L68.579,96.293L68.642,96.237L68.705,96.181L68.767,96.124L68.828,96.066L68.889,96.008L68.948,95.948L69.008,95.889L69.066,95.828L69.124,95.767L69.181,95.705L69.237,95.642L69.293,95.579L69.347,95.515L69.401,95.45L69.455,95.385L69.507,95.319L69.559,95.253L69.61,95.185L69.66,95.118L69.709,95.049L69.757,94.98L69.805,94.911L69.852,94.84L69.898,94.77L69.943,94.698L69.987,94.626L70.031,94.554L70.073,94.481L70.115,94.407L70.156,94.333L70.196,94.259L70.235,94.184L70.273,94.108L70.31,94.032L70.347,93.955L70.382,93.878L70.417,93.8L70.45,93.722L70.483,93.644L70.515,93.565L70.546,93.485L70.576,93.405L70.604,93.325L70.632,93.244L70.659,93.162L70.685,93.081L70.71,92.998L70.735,92.916L70.758,92.833L70.78,92.749L70.801,92.665L70.821,92.581L70.84,92.496L70.858,92.411L70.875,92.326L70.891,92.24L70.905,92.154L70.919,92.067L70.932,91.98L70.944,91.893L70.954,91.805L70.964,91.717L70.972,91.629L70.979,91.54L70.986,91.451L70.991,91.361L70.995,91.272L70.998,91.181L70.999,91.091L71,90.994L71,73L71.017,72.739L71.068,72.482L71.152,72.235L71.268,72L71.413,71.782L71.586,71.586L71.782,71.413L72,71.268L72.235,71.152L72.482,71.068L72.739,71.017L73,71L90.994,71L91.091,70.999L91.181,70.998L91.272,70.995L91.361,70.991L91.451,70.986L91.54,70.979L91.629,70.972L91.717,70.964L91.805,70.954L91.893,70.944L91.98,70.932L92.067,70.919L92.154,70.905L92.24,70.891L92.326,70.875L92.411,70.858L92.496,70.84L92.581,70.821L92.665,70.801L92.749,70.78L92.833,70.758L92.916,70.735L92.998,70.71L93.081,70.685L93.162,70.659L93.244,70.632L93.325,70.604L93.405,70.576L93.485,70.546L93.565,70.515L93.644,70.483L93.722,70.45L93.8,70.417L93.878,70.382L93.955,70.347L94.032,70.31L94.108,70.273L94.184,70.235L94.259,70.196L94.333,70.156L94.407,70.115L94.481,70.073L94.554,70.031L94.626,69.987L94.698,69.943L94.77,69.898L94.84,69.852L94.911,69.805L94.98,69.757L95.049,69.709L95.118,69.66L95.185,69.61L95.253,69.559L95.319,69.507L95.385,69.455L95.45,69.401L95.515,69.347L95.579,69.293L95.642,69.237L95.705,69.181L95.767,69.124L95.828,69.066L95.889,69.008L95.948,68.948L96.008,68.889L96.066,68.828L96.124,68.767L96.181,68.705L96.237,68.642L96.293,68.579L96.347,68.515L96.401,68.45L96.455,68.385L96.507,68.319L96.559,68.253L96.61,68.185L96.66,68.118L96.709,68.049L96.757,67.98L96.805,67.911L96.852,67.84L96.898,67.77L96.943,67.698L96.987,67.626L97.031,67.554L97.073,67.481L97.115,67.407L97.156,67.333L97.196,67.259L97.235,67.184L97.273,67.108L97.31,67.032L97.347,66.955L97.382,66.878L97.417,66.8L97.45,66.722L97.483,66.644L97.515,66.565L97.546,66.485L97.576,66.405L97.605,66.325L97.632,66.244L97.659,66.162L97.685,66.081L97.711,65.998L97.735,65.916L97.758,65.833L97.78,65.749L97.801,65.666L97.821,65.581L97.84,65.497L97.858,65.412L97.875,65.326L97.891,65.24L97.905,65.154L97.919,65.067L97.932,64.98L97.944,64.893L97.954,64.805L97.964,64.717L97.972,64.629L97.979,64.54L97.986,64.451L97.991,64.361L97.995,64.272L97.998,64.181L97.999,64.091L98,64L97.999,63.909L97.998,63.819L97.995,63.728L97.991,63.639L97.986,63.549L97.979,63.46L97.972,63.371L97.964,63.283L97.954,63.195L97.944,63.107L97.932,63.02L97.919,62.933L97.905,62.846L97.891,62.76L97.875,62.674L97.858,62.588L97.84,62.503L97.821,62.419L97.801,62.334L97.78,62.251L97.758,62.167L97.735,62.084L97.711,62.002L97.685,61.919L97.659,61.838L97.632,61.756L97.605,61.675L97.576,61.595L97.546,61.515L97.515,61.435L97.483,61.356L97.45,61.278L97.417,61.2L97.382,61.122L97.347,61.045L97.31,60.968L97.273,60.892L97.235,60.816L97.196,60.741L97.156,60.667L97.115,60.593L97.073,60.519L97.031,60.446L96.987,60.374L96.943,60.302L96.898,60.23L96.852,60.16L96.805,60.089L96.757,60.02L96.709,59.951L96.66,59.882L96.61,59.815L96.559,59.747L96.507,59.681L96.455,59.615L96.401,59.55L96.347,59.485L96.293,59.421L96.237,59.358L96.181,59.295L96.124,59.233L96.066,59.172L96.008,59.111L95.948,59.052L95.889,58.992L95.828,58.934L95.767,58.876L95.705,58.819L95.642,58.763L95.579,58.707L95.515,58.653L95.45,58.599L95.385,58.545L95.319,58.493L95.253,58.441L95.185,58.39L95.118,58.34L95.049,58.291L94.98,58.243L94.911,58.195L94.84,58.148L94.77,58.102L94.698,58.057L94.626,58.013L94.554,57.969L94.481,57.927L94.407,57.885L94.333,57.844L94.259,57.804L94.184,57.765L94.108,57.727L94.032,57.69L93.955,57.653L93.878,57.618L93.8,57.583L93.722,57.55L93.644,57.517L93.565,57.485L93.485,57.454L93.405,57.424L93.325,57.396L93.244,57.368L93.162,57.341L93.081,57.315L92.998,57.29L92.916,57.265L92.833,57.242L92.749,57.22L92.665,57.199L92.581,57.179L92.496,57.16L92.411,57.142L92.326,57.125L92.24,57.109L92.154,57.095L92.067,57.081L91.98,57.068L91.893,57.056L91.805,57.046L91.717,57.036L91.629,57.028L91.54,57.021L91.451,57.014L91.361,57.009L91.272,57.005L91.181,57.002L91.091,57.001L90.994,57L73,57L72.739,56.983L72.482,56.932L72.235,56.848L72,56.732L71.782,56.587L71.586,56.414L71.413,56.218L71.268,56L71.152,55.765L71.068,55.518L71.017,55.261L71,55L71,37.006L70.999,36.909L70.998,36.819L70.995,36.728L70.991,36.639L70.986,36.549L70.979,36.46L70.972,36.371L70.964,36.283L70.954,36.195L70.944,36.107L70.932,36.02L70.919,35.933L70.905,35.846L70.891,35.76L70.875,35.674L70.858,35.589L70.84,35.503L70.821,35.419L70.801,35.335L70.78,35.251L70.758,35.167L70.735,35.084L70.71,35.002L70.685,34.919L70.659,34.838L70.632,34.756L70.604,34.675L70.576,34.595L70.546,34.515L70.515,34.435L70.483,34.356L70.45,34.278L70.417,34.2L70.382,34.122L70.347,34.045L70.31,33.968L70.273,33.892L70.235,33.816L70.196,33.741L70.156,33.667L70.115,33.593L70.073,33.519L70.031,33.446L69.987,33.374L69.943,33.302L69.898,33.23L69.852,33.16L69.805,33.089L69.757,33.02L69.709,32.951L69.66,32.882L69.61,32.815L69.559,32.747L69.507,32.681L69.455,32.615L69.401,32.55L69.347,32.485L69.293,32.421L69.237,32.358L69.181,32.295L69.124,32.233L69.066,32.172L69.008,32.111L68.948,32.052L68.889,31.992L68.828,31.934L68.767,31.876L68.705,31.819L68.642,31.763L68.579,31.707L68.515,31.653L68.45,31.599L68.385,31.545L68.319,31.493L68.253,31.441L68.185,31.39L68.118,31.34L68.049,31.291L67.98,31.243L67.911,31.195L67.84,31.148L67.77,31.102L67.698,31.057L67.626,31.013L67.554,30.969L67.481,30.927L67.407,30.885L67.333,30.844L67.259,30.804L67.184,30.765L67.108,30.727L67.032,30.69L66.955,30.653L66.878,30.618L66.8,30.583L66.722,30.55L66.644,30.517L66.565,30.485L66.485,30.454L66.405,30.424L66.325,30.395L66.244,30.368L66.162,30.341L66.081,30.315L65.998,30.29L65.916,30.265L65.833,30.242L65.749,30.22L65.665,30.199L65.581,30.179L65.497,30.16L65.412,30.142L65.326,30.125L65.24,30.109L65.154,30.095L65.067,30.081L64.98,30.068L64.893,30.056L64.805,30.046L64.717,30.036L64.629,30.028L64.54,30.021L64.451,30.014L64.361,30.009L64.272,30.005L64.181,30.002L64.091,30.001L64,30L63.909,30.001ZM9.116,55.001L9.232,55.003L9.348,55.007L9.463,55.012L9.578,55.018L9.692,55.026L9.806,55.036L9.92,55.047L10.033,55.059L10.146,55.072L10.258,55.087L10.37,55.104L10.481,55.122L10.592,55.141L10.703,55.161L10.813,55.183L10.922,55.206L11.031,55.231L11.14,55.256L11.248,55.284L11.356,55.312L11.463,55.342L11.569,55.373L11.675,55.405L11.78,55.438L11.885,55.473L11.99,55.509L12.093,55.546L12.196,55.585L12.299,55.625L12.401,55.666L12.502,55.708L12.602,55.751L12.702,55.796L12.802,55.841L12.9,55.888L12.998,55.936L13.096,55.985L13.192,56.036L13.288,56.087L13.384,56.139L13.478,56.193L13.572,56.248L13.665,56.304L13.758,56.361L13.849,56.419L13.94,56.478L14.031,56.538L14.12,56.599L14.209,56.661L14.296,56.725L14.383,56.789L14.47,56.854L14.555,56.921L14.64,56.988L14.723,57.056L14.806,57.126L14.888,57.196L14.97,57.267L15.05,57.339L15.13,57.412L15.208,57.486L15.286,57.561L15.363,57.637L15.439,57.714L15.514,57.792L15.588,57.87L15.661,57.95L15.733,58.03L15.804,58.112L15.874,58.194L15.944,58.277L16.012,58.36L16.079,58.445L16.146,58.53L16.211,58.617L16.275,58.704L16.339,58.791L16.401,58.88L16.462,58.969L16.522,59.06L16.581,59.151L16.639,59.242L16.696,59.335L16.752,59.428L16.807,59.522L16.861,59.616L16.913,59.712L16.964,59.808L17.015,59.904L17.064,60.002L17.112,60.1L17.159,60.198L17.204,60.298L17.249,60.398L17.292,60.498L17.334,60.599L17.375,60.701L17.415,60.804L17.454,60.907L17.491,61.01L17.527,61.115L17.562,61.22L17.595,61.325L17.627,61.431L17.658,61.537L17.688,61.644L17.716,61.752L17.744,61.86L17.769,61.969L17.794,62.078L17.817,62.187L17.839,62.297L17.859,62.408L17.878,62.519L17.896,62.63L17.913,62.742L17.928,62.854L17.941,62.967L17.953,63.08L17.964,63.194L17.974,63.308L17.982,63.422L17.988,63.537L17.993,63.652L17.997,63.768L17.999,63.884L18,64L17.999,64.116L17.997,64.232L17.993,64.348L17.988,64.463L17.982,64.578L17.974,64.692L17.964,64.806L17.953,64.92L17.941,65.033L17.928,65.146L17.913,65.258L17.896,65.37L17.878,65.481L17.859,65.592L17.839,65.703L17.817,65.813L17.794,65.922L17.769,66.031L17.744,66.14L17.716,66.248L17.688,66.356L17.658,66.463L17.627,66.569L17.595,66.675L17.562,66.78L17.527,66.885L17.491,66.99L17.454,67.093L17.415,67.196L17.375,67.299L17.334,67.401L17.292,67.502L17.249,67.602L17.204,67.702L17.159,67.802L17.112,67.9L17.064,67.998L17.015,68.096L16.964,68.192L16.913,68.288L16.861,68.384L16.807,68.478L16.752,68.572L16.696,68.665L16.639,68.758L16.581,68.849L16.522,68.94L16.462,69.031L16.401,69.12L16.339,69.209L16.275,69.296L16.211,69.383L16.146,69.47L16.079,69.555L16.012,69.64L15.944,69.723L15.874,69.806L15.804,69.888L15.733,69.97L15.661,70.05L15.588,70.13L15.514,70.208L15.439,70.286L15.363,70.363L15.286,70.439L15.208,70.514L15.13,70.588L15.05,70.661L14.97,70.733L14.888,70.804L14.806,70.874L14.723,70.944L14.64,71.012L14.555,71.079L14.47,71.146L14.383,71.211L14.296,71.275L14.209,71.339L14.12,71.401L14.031,71.462L13.94,71.522L13.849,71.581L13.758,71.639L13.665,71.696L13.572,71.752L13.478,71.807L13.384,71.861L13.288,71.913L13.192,71.964L13.096,72.015L12.998,72.064L12.9,72.112L12.802,72.159L12.702,72.204L12.602,72.249L12.502,72.292L12.401,72.334L12.299,72.375L12.196,72.415L12.093,72.454L11.99,72.491L11.885,72.527L11.78,72.562L11.675,72.595L11.569,72.627L11.463,72.658L11.356,72.688L11.248,72.716L11.14,72.744L11.031,72.769L10.922,72.794L10.813,72.817L10.703,72.839L10.592,72.859L10.481,72.878L10.37,72.896L10.258,72.913L10.146,72.928L10.033,72.941L9.92,72.953L9.806,72.964L9.692,72.974L9.578,72.982L9.463,72.988L9.348,72.993L9.232,72.997L9.116,72.999L9,73L8.884,72.999L8.768,72.997L8.652,72.993L8.537,72.988L8.422,72.982L8.308,72.974L8.194,72.964L8.08,72.953L7.967,72.941L7.854,72.928L7.742,72.913L7.63,72.896L7.519,72.878L7.408,72.859L7.297,72.839L7.187,72.817L7.078,72.794L6.969,72.769L6.86,72.744L6.752,72.716L6.644,72.688L6.537,72.658L6.431,72.627L6.325,72.595L6.22,72.562L6.115,72.527L6.01,72.491L5.907,72.454L5.804,72.415L5.701,72.375L5.599,72.334L5.498,72.292L5.398,72.249L5.298,72.204L5.198,72.159L5.1,72.112L5.002,72.064L4.904,72.015L4.808,71.964L4.712,71.913L4.616,71.861L4.522,71.807L4.428,71.752L4.335,71.696L4.242,71.639L4.151,71.581L4.06,71.522L3.969,71.462L3.88,71.401L3.791,71.339L3.704,71.275L3.617,71.211L3.53,71.146L3.445,71.079L3.36,71.012L3.277,70.944L3.194,70.874L3.112,70.804L3.03,70.733L2.95,70.661L2.87,70.588L2.792,70.514L2.714,70.439L2.637,70.363L2.561,70.286L2.486,70.208L2.412,70.13L2.339,70.05L2.267,69.97L2.196,69.888L2.126,69.806L2.056,69.723L1.988,69.64L1.921,69.555L1.854,69.47L1.789,69.383L1.725,69.296L1.661,69.209L1.599,69.12L1.538,69.031L1.478,68.94L1.419,68.849L1.361,68.758L1.304,68.665L1.248,68.572L1.193,68.478L1.139,68.384L1.087,68.288L1.036,68.192L0.985,68.096L0.936,67.998L0.888,67.9L0.841,67.802L0.796,67.702L0.751,67.602L0.708,67.502L0.666,67.401L0.625,67.299L0.585,67.196L0.546,67.093L0.509,66.99L0.473,66.885L0.438,66.78L0.405,66.675L0.373,66.569L0.342,66.463L0.312,66.356L0.284,66.248L0.256,66.14L0.231,66.031L0.206,65.922L0.183,65.813L0.161,65.703L0.141,65.592L0.122,65.481L0.104,65.37L0.087,65.258L0.072,65.146L0.059,65.033L0.047,64.92L0.036,64.806L0.026,64.692L0.018,64.578L0.012,64.463L0.007,64.348L0.003,64.232L0.001,64.116L0,64L0.001,63.884L0.003,63.768L0.007,63.652L0.012,63.537L0.018,63.422L0.026,63.308L0.036,63.194L0.047,63.08L0.059,62.967L0.072,62.854L0.087,62.742L0.104,62.63L0.122,62.519L0.141,62.408L0.161,62.297L0.183,62.187L0.206,62.078L0.231,61.969L0.256,61.86L0.284,61.752L0.312,61.644L0.342,61.537L0.373,61.431L0.405,61.325L0.438,61.22L0.473,61.115L0.509,61.01L0.546,60.907L0.585,60.804L0.625,60.701L0.666,60.599L0.708,60.498L0.751,60.398L0.796,60.298L0.841,60.198L0.888,60.1L0.936,60.002L0.985,59.904L1.036,59.808L1.087,59.712L1.139,59.616L1.193,59.522L1.248,59.428L1.304,59.335L1.361,59.242L1.419,59.151L1.478,59.06L1.538,58.969L1.599,58.88L1.661,58.791L1.725,58.704L1.789,58.617L1.854,58.53L1.921,58.445L1.988,58.36L2.056,58.277L2.126,58.194L2.196,58.112L2.267,58.03L2.339,57.95L2.412,57.87L2.486,57.792L2.561,57.714L2.637,57.637L2.714,57.561L2.792,57.486L2.87,57.412L2.95,57.339L3.03,57.267L3.112,57.196L3.194,57.126L3.277,57.056L3.36,56.988L3.445,56.921L3.53,56.854L3.617,56.789L3.704,56.725L3.791,56.661L3.88,56.599L3.969,56.538L4.06,56.478L4.151,56.419L4.242,56.361L4.335,56.304L4.428,56.248L4.522,56.193L4.616,56.139L4.712,56.087L4.808,56.036L4.904,55.985L5.002,55.936L5.1,55.888L5.198,55.841L5.298,55.796L5.398,55.751L5.498,55.708L5.599,55.666L5.701,55.625L5.804,55.585L5.907,55.546L6.01,55.509L6.115,55.473L6.22,55.438L6.325,55.405L6.431,55.373L6.537,55.342L6.644,55.312L6.752,55.284L6.86,55.256L6.969,55.231L7.078,55.206L7.187,55.183L7.297,55.161L7.408,55.141L7.519,55.122L7.63,55.104L7.742,55.087L7.854,55.072L7.967,55.059L8.08,55.047L8.194,55.036L8.308,55.026L8.422,55.018L8.537,55.012L8.652,55.007L8.768,55.003L8.884,55.001L9,55L9.116,55.001ZM8.909,57.001L8.819,57.002L8.728,57.005L8.639,57.009L8.549,57.014L8.46,57.021L8.371,57.028L8.283,57.036L8.195,57.046L8.107,57.056L8.02,57.068L7.933,57.081L7.846,57.095L7.76,57.109L7.674,57.125L7.589,57.142L7.503,57.16L7.419,57.179L7.335,57.199L7.251,57.22L7.167,57.242L7.084,57.265L7.002,57.29L6.919,57.315L6.838,57.341L6.756,57.368L6.675,57.396L6.595,57.424L6.515,57.454L6.435,57.485L6.356,57.517L6.278,57.55L6.2,57.583L6.122,57.618L6.045,57.653L5.968,57.69L5.892,57.727L5.816,57.765L5.741,57.804L5.667,57.844L5.593,57.885L5.519,57.927L5.446,57.969L5.374,58.013L5.302,58.057L5.23,58.102L5.16,58.148L5.089,58.195L5.02,58.243L4.951,58.291L4.882,58.34L4.815,58.39L4.747,58.441L4.681,58.493L4.615,58.545L4.55,58.599L4.485,58.653L4.421,58.707L4.358,58.763L4.295,58.819L4.233,58.876L4.172,58.934L4.111,58.992L4.052,59.052L3.992,59.111L3.934,59.172L3.876,59.233L3.819,59.295L3.763,59.358L3.707,59.421L3.653,59.485L3.599,59.55L3.545,59.615L3.493,59.681L3.441,59.747L3.39,59.815L3.34,59.882L3.291,59.951L3.243,60.02L3.195,60.089L3.148,60.16L3.102,60.23L3.057,60.302L3.013,60.374L2.969,60.446L2.927,60.519L2.885,60.593L2.844,60.667L2.804,60.741L2.765,60.816L2.727,60.892L2.69,60.968L2.653,61.045L2.618,61.122L2.583,61.2L2.55,61.278L2.517,61.356L2.485,61.435L2.454,61.515L2.424,61.595L2.396,61.675L2.368,61.756L2.341,61.838L2.315,61.919L2.29,62.002L2.265,62.084L2.242,62.167L2.22,62.251L2.199,62.335L2.179,62.419L2.16,62.503L2.142,62.589L2.125,62.674L2.109,62.76L2.095,62.846L2.081,62.933L2.068,63.02L2.056,63.107L2.046,63.195L2.036,63.283L2.028,63.371L2.021,63.46L2.014,63.549L2.009,63.639L2.005,63.728L2.002,63.819L2.001,63.909L2,64L2.001,64.091L2.002,64.181L2.005,64.272L2.009,64.361L2.014,64.451L2.021,64.54L2.028,64.629L2.036,64.717L2.046,64.805L2.056,64.893L2.068,64.98L2.081,65.067L2.095,65.154L2.109,65.24L2.125,65.326L2.142,65.411L2.16,65.497L2.179,65.581L2.199,65.665L2.22,65.749L2.242,65.833L2.265,65.916L2.29,65.998L2.315,66.081L2.341,66.162L2.368,66.244L2.396,66.325L2.424,66.405L2.454,66.485L2.485,66.565L2.517,66.644L2.55,66.722L2.583,66.8L2.618,66.878L2.653,66.955L2.69,67.032L2.727,67.108L2.765,67.184L2.804,67.259L2.844,67.333L2.885,67.407L2.927,67.481L2.969,67.554L3.013,67.626L3.057,67.698L3.102,67.77L3.148,67.84L3.195,67.911L3.243,67.98L3.291,68.049L3.34,68.118L3.39,68.185L3.441,68.253L3.493,68.319L3.545,68.385L3.599,68.45L3.653,68.515L3.707,68.579L3.763,68.642L3.819,68.705L3.876,68.767L3.934,68.828L3.992,68.889L4.052,68.948L4.111,69.008L4.172,69.066L4.233,69.124L4.295,69.181L4.358,69.237L4.421,69.293L4.485,69.347L4.55,69.401L4.615,69.455L4.681,69.507L4.747,69.559L4.815,69.61L4.882,69.66L4.951,69.709L5.02,69.757L5.089,69.805L5.16,69.852L5.23,69.898L5.302,69.943L5.374,69.987L5.446,70.031L5.519,70.073L5.593,70.115L5.667,70.156L5.741,70.196L5.816,70.235L5.892,70.273L5.968,70.31L6.045,70.347L6.122,70.382L6.2,70.417L6.278,70.45L6.356,70.483L6.435,70.515L6.515,70.546L6.595,70.576L6.675,70.604L6.756,70.632L6.838,70.659L6.919,70.685L7.002,70.71L7.084,70.735L7.167,70.758L7.251,70.78L7.335,70.801L7.419,70.821L7.503,70.84L7.589,70.858L7.674,70.875L7.76,70.891L7.846,70.905L7.933,70.919L8.02,70.932L8.107,70.944L8.195,70.954L8.283,70.964L8.371,70.972L8.46,70.979L8.549,70.986L8.639,70.991L8.728,70.995L8.819,70.998L8.909,70.999L9,71L9.091,70.999L9.181,70.998L9.272,70.995L9.361,70.991L9.451,70.986L9.54,70.979L9.629,70.972L9.717,70.964L9.805,70.954L9.893,70.944L9.98,70.932L10.067,70.919L10.154,70.905L10.24,70.891L10.326,70.875L10.411,70.858L10.497,70.84L10.581,70.821L10.665,70.801L10.749,70.78L10.833,70.758L10.916,70.735L10.998,70.71L11.081,70.685L11.162,70.659L11.244,70.632L11.325,70.604L11.405,70.576L11.485,70.546L11.565,70.515L11.644,70.483L11.722,70.45L11.8,70.417L11.878,70.382L11.955,70.347L12.032,70.31L12.108,70.273L12.184,70.235L12.259,70.196L12.333,70.156L12.407,70.115L12.481,70.073L12.554,70.031L12.626,69.987L12.698,69.943L12.77,69.898L12.84,69.852L12.911,69.805L12.98,69.757L13.049,69.709L13.118,69.66L13.185,69.61L13.253,69.559L13.319,69.507L13.385,69.455L13.45,69.401L13.515,69.347L13.579,69.293L13.642,69.237L13.705,69.181L13.767,69.124L13.828,69.066L13.889,69.008L13.948,68.948L14.008,68.889L14.066,68.828L14.124,68.767L14.181,68.705L14.237,68.642L14.293,68.579L14.347,68.515L14.401,68.45L14.455,68.385L14.507,68.319L14.559,68.253L14.61,68.185L14.66,68.118L14.709,68.049L14.757,67.98L14.805,67.911L14.852,67.84L14.898,67.77L14.943,67.698L14.987,67.626L15.031,67.554L15.073,67.481L15.115,67.407L15.156,67.333L15.196,67.259L15.235,67.184L15.273,67.108L15.31,67.032L15.347,66.955L15.382,66.878L15.417,66.8L15.45,66.722L15.483,66.644L15.515,66.565L15.546,66.485L15.576,66.405L15.604,66.325L15.632,66.244L15.659,66.162L15.685,66.081L15.71,65.998L15.735,65.916L15.758,65.833L15.78,65.749L15.801,65.665L15.821,65.581L15.84,65.497L15.858,65.411L15.875,65.326L15.891,65.24L15.905,65.154L15.919,65.067L15.932,64.98L15.944,64.893L15.954,64.805L15.964,64.717L15.972,64.629L15.979,64.54L15.986,64.451L15.991,64.361L15.995,64.272L15.998,64.181L15.999,64.091L16,64L15.999,63.909L15.998,63.819L15.995,63.728L15.991,63.639L15.986,63.549L15.979,63.46L15.972,63.371L15.964,63.283L15.954,63.195L15.944,63.107L15.932,63.02L15.919,62.933L15.905,62.846L15.891,62.76L15.875,62.674L15.858,62.589L15.84,62.503L15.821,62.419L15.801,62.335L15.78,62.251L15.758,62.167L15.735,62.084L15.71,62.002L15.685,61.919L15.659,61.838L15.632,61.756L15.604,61.675L15.576,61.595L15.546,61.515L15.515,61.435L15.483,61.356L15.45,61.278L15.417,61.2L15.382,61.122L15.347,61.045L15.31,60.968L15.273,60.892L15.235,60.816L15.196,60.741L15.156,60.667L15.115,60.593L15.073,60.519L15.031,60.446L14.987,60.374L14.943,60.302L14.898,60.23L14.852,60.16L14.805,60.089L14.757,60.02L14.709,59.951L14.66,59.882L14.61,59.815L14.559,59.747L14.507,59.681L14.455,59.615L14.401,59.55L14.347,59.485L14.293,59.421L14.237,59.358L14.181,59.295L14.124,59.233L14.066,59.172L14.008,59.111L13.948,59.052L13.889,58.992L13.828,58.934L13.767,58.876L13.705,58.819L13.642,58.763L13.579,58.707L13.515,58.653L13.45,58.599L13.385,58.545L13.319,58.493L13.253,58.441L13.185,58.39L13.118,58.34L13.049,58.291L12.98,58.243L12.911,58.195L12.84,58.148L12.77,58.102L12.698,58.057L12.626,58.013L12.554,57.969L12.481,57.927L12.407,57.885L12.333,57.844L12.259,57.804L12.184,57.765L12.108,57.727L12.032,57.69L11.955,57.653L11.878,57.618L11.8,57.583L11.722,57.55L11.644,57.517L11.565,57.485L11.485,57.454L11.405,57.424L11.325,57.396L11.244,57.368L11.162,57.341L11.081,57.315L10.998,57.29L10.916,57.265L10.833,57.242L10.749,57.22L10.665,57.199L10.581,57.179L10.497,57.16L10.411,57.142L10.326,57.125L10.24,57.109L10.154,57.095L10.067,57.081L9.98,57.068L9.893,57.056L9.805,57.046L9.717,57.036L9.629,57.028L9.54,57.021L9.451,57.014L9.361,57.009L9.272,57.005L9.181,57.002L9.091,57.001L9,57L8.909,57.001ZM36.116,28.001L36.232,28.003L36.348,28.007L36.463,28.012L36.578,28.018L36.692,28.026L36.806,28.036L36.92,28.047L37.033,28.059L37.146,28.072L37.258,28.087L37.37,28.104L37.481,28.122L37.592,28.141L37.703,28.161L37.813,28.183L37.922,28.206L38.032,28.231L38.14,28.256L38.248,28.284L38.356,28.312L38.463,28.342L38.569,28.373L38.675,28.405L38.78,28.438L38.885,28.473L38.99,28.509L39.093,28.547L39.196,28.585L39.299,28.625L39.401,28.666L39.502,28.708L39.602,28.751L39.702,28.796L39.802,28.841L39.9,28.888L39.998,28.936L40.096,28.985L40.193,29.036L40.288,29.087L40.384,29.14L40.478,29.193L40.572,29.248L40.665,29.304L40.758,29.361L40.849,29.419L40.94,29.478L41.031,29.538L41.12,29.599L41.209,29.661L41.296,29.725L41.383,29.789L41.47,29.854L41.555,29.921L41.64,29.988L41.723,30.056L41.806,30.126L41.889,30.196L41.97,30.267L42.05,30.339L42.13,30.412L42.208,30.486L42.286,30.561L42.363,30.637L42.439,30.714L42.514,30.792L42.588,30.87L42.661,30.95L42.733,31.03L42.804,31.112L42.874,31.194L42.944,31.277L43.012,31.36L43.079,31.445L43.146,31.53L43.211,31.617L43.275,31.704L43.339,31.792L43.401,31.88L43.462,31.97L43.522,32.06L43.581,32.151L43.639,32.242L43.696,32.335L43.752,32.428L43.807,32.522L43.861,32.616L43.913,32.712L43.965,32.808L44.015,32.904L44.064,33.002L44.112,33.1L44.159,33.198L44.204,33.298L44.249,33.398L44.292,33.498L44.334,33.599L44.375,33.701L44.415,33.804L44.454,33.907L44.491,34.011L44.527,34.115L44.562,34.22L44.595,34.325L44.627,34.431L44.658,34.537L44.688,34.644L44.716,34.752L44.744,34.86L44.769,34.969L44.794,35.078L44.817,35.187L44.839,35.297L44.859,35.408L44.878,35.519L44.896,35.63L44.913,35.742L44.928,35.854L44.941,35.967L44.953,36.08L44.964,36.194L44.974,36.308L44.982,36.422L44.988,36.537L44.993,36.652L44.997,36.768L44.999,36.884L45,37L44.999,37.116L44.997,37.232L44.993,37.348L44.988,37.463L44.982,37.578L44.974,37.692L44.964,37.806L44.953,37.92L44.941,38.033L44.928,38.146L44.913,38.258L44.896,38.37L44.878,38.481L44.859,38.592L44.839,38.703L44.817,38.813L44.794,38.922L44.769,39.031L44.744,39.14L44.716,39.248L44.688,39.356L44.658,39.463L44.627,39.569L44.595,39.675L44.562,39.78L44.527,39.885L44.491,39.989L44.454,40.093L44.415,40.196L44.375,40.299L44.334,40.401L44.292,40.502L44.249,40.602L44.204,40.702L44.159,40.802L44.112,40.9L44.064,40.998L44.015,41.096L43.965,41.192L43.913,41.288L43.861,41.384L43.807,41.478L43.752,41.572L43.696,41.665L43.639,41.758L43.581,41.849L43.522,41.94L43.462,42.03L43.401,42.12L43.339,42.208L43.275,42.296L43.211,42.383L43.146,42.47L43.079,42.555L43.012,42.64L42.944,42.723L42.874,42.806L42.804,42.888L42.733,42.97L42.661,43.05L42.588,43.13L42.514,43.208L42.439,43.286L42.363,43.363L42.286,43.439L42.208,43.514L42.13,43.588L42.05,43.661L41.97,43.733L41.889,43.804L41.806,43.874L41.723,43.944L41.64,44.012L41.555,44.079L41.47,44.146L41.383,44.211L41.296,44.275L41.209,44.339L41.12,44.401L41.031,44.462L40.94,44.522L40.849,44.581L40.758,44.639L40.665,44.696L40.572,44.752L40.478,44.807L40.384,44.86L40.288,44.913L40.193,44.964L40.096,45.015L39.998,45.064L39.9,45.112L39.802,45.159L39.702,45.204L39.602,45.249L39.502,45.292L39.401,45.334L39.299,45.375L39.196,45.415L39.093,45.453L38.99,45.491L38.885,45.527L38.78,45.562L38.675,45.595L38.569,45.627L38.463,45.658L38.356,45.688L38.248,45.716L38.14,45.744L38.032,45.769L37.922,45.794L37.813,45.817L37.703,45.839L37.592,45.859L37.481,45.878L37.37,45.896L37.258,45.913L37.146,45.928L37.033,45.941L36.92,45.953L36.806,45.964L36.692,45.974L36.578,45.982L36.463,45.988L36.348,45.993L36.232,45.997L36.116,45.999L36,46L9,46L8.884,45.999L8.768,45.997L8.652,45.993L8.537,45.988L8.422,45.982L8.308,45.974L8.194,45.964L8.08,45.953L7.967,45.941L7.854,45.928L7.742,45.913L7.63,45.896L7.519,45.878L7.408,45.859L7.297,45.839L7.187,45.817L7.078,45.794L6.969,45.769L6.86,45.744L6.752,45.716L6.644,45.688L6.537,45.658L6.431,45.627L6.325,45.595L6.22,45.562L6.115,45.527L6.01,45.491L5.907,45.454L5.804,45.415L5.701,45.375L5.599,45.334L5.498,45.292L5.398,45.249L5.298,45.204L5.198,45.159L5.1,45.112L5.002,45.064L4.904,45.015L4.808,44.964L4.712,44.913L4.616,44.861L4.522,44.807L4.428,44.752L4.335,44.696L4.242,44.639L4.151,44.581L4.06,44.522L3.969,44.462L3.88,44.401L3.791,44.339L3.704,44.275L3.617,44.211L3.53,44.146L3.445,44.079L3.36,44.012L3.277,43.944L3.194,43.874L3.112,43.804L3.03,43.733L2.95,43.661L2.87,43.588L2.792,43.514L2.714,43.439L2.637,43.363L2.561,43.286L2.486,43.208L2.412,43.13L2.339,43.05L2.267,42.97L2.196,42.888L2.126,42.806L2.056,42.723L1.988,42.64L1.921,42.555L1.854,42.47L1.789,42.383L1.725,42.296L1.661,42.209L1.599,42.12L1.538,42.031L1.478,41.94L1.419,41.849L1.361,41.758L1.304,41.665L1.248,41.572L1.193,41.478L1.139,41.384L1.087,41.288L1.036,41.192L0.985,41.096L0.936,40.998L0.888,40.9L0.841,40.802L0.796,40.702L0.751,40.602L0.708,40.502L0.666,40.401L0.625,40.299L0.585,40.196L0.546,40.093L0.509,39.99L0.473,39.885L0.438,39.78L0.405,39.675L0.373,39.569L0.342,39.463L0.312,39.356L0.284,39.248L0.256,39.14L0.231,39.031L0.206,38.922L0.183,38.813L0.161,38.703L0.141,38.592L0.122,38.481L0.104,38.37L0.087,38.258L0.072,38.146L0.059,38.033L0.047,37.92L0.036,37.806L0.026,37.692L0.018,37.578L0.012,37.463L0.007,37.348L0.003,37.232L0.001,37.116L0,37L0.001,36.884L0.003,36.768L0.007,36.652L0.012,36.537L0.018,36.422L0.026,36.308L0.036,36.194L0.047,36.08L0.059,35.967L0.072,35.854L0.087,35.742L0.104,35.63L0.122,35.519L0.141,35.408L0.161,35.297L0.183,35.187L0.206,35.078L0.231,34.969L0.256,34.86L0.284,34.752L0.312,34.644L0.342,34.537L0.373,34.431L0.405,34.325L0.438,34.22L0.473,34.115L0.509,34.011L0.546,33.907L0.585,33.804L0.625,33.701L0.666,33.599L0.708,33.498L0.751,33.398L0.796,33.298L0.841,33.198L0.888,33.1L0.936,33.002L0.985,32.904L1.035,32.808L1.087,32.712L1.139,32.616L1.193,32.522L1.248,32.428L1.304,32.335L1.361,32.242L1.419,32.151L1.478,32.06L1.538,31.97L1.599,31.88L1.661,31.792L1.725,31.704L1.789,31.617L1.854,31.53L1.921,31.445L1.988,31.36L2.056,31.277L2.126,31.194L2.196,31.112L2.267,31.03L2.339,30.95L2.412,30.87L2.486,30.792L2.561,30.714L2.637,30.637L2.714,30.561L2.792,30.486L2.87,30.412L2.95,30.339L3.03,30.267L3.111,30.196L3.194,30.126L3.277,30.056L3.36,29.988L3.445,29.921L3.53,29.854L3.617,29.789L3.704,29.725L3.791,29.661L3.88,29.599L3.969,29.538L4.06,29.478L4.151,29.419L4.242,29.361L4.335,29.304L4.428,29.248L4.522,29.193L4.616,29.14L4.712,29.087L4.807,29.036L4.904,28.985L5.002,28.936L5.1,28.888L5.198,28.841L5.298,28.796L5.398,28.751L5.498,28.708L5.599,28.666L5.701,28.625L5.804,28.585L5.907,28.547L6.01,28.509L6.115,28.473L6.22,28.438L6.325,28.405L6.431,28.373L6.537,28.342L6.644,28.312L6.752,28.284L6.86,28.256L6.968,28.231L7.078,28.206L7.187,28.183L7.297,28.161L7.408,28.141L7.519,28.122L7.63,28.104L7.742,28.087L7.854,28.072L7.967,28.059L8.08,28.047L8.194,28.036L8.308,28.026L8.422,28.018L8.537,28.012L8.652,28.007L8.768,28.003L8.884,28.001L9,28L36,28L36.116,28.001ZM9.006,30L8.909,30.001L8.819,30.002L8.728,30.005L8.639,30.009L8.549,30.014L8.46,30.021L8.371,30.028L8.283,30.036L8.195,30.046L8.107,30.056L8.02,30.068L7.933,30.081L7.846,30.095L7.76,30.11L7.674,30.125L7.589,30.142L7.503,30.16L7.419,30.179L7.335,30.199L7.251,30.22L7.167,30.242L7.084,30.266L7.002,30.29L6.919,30.315L6.838,30.341L6.756,30.368L6.675,30.396L6.595,30.424L6.515,30.454L6.435,30.485L6.356,30.517L6.278,30.55L6.2,30.583L6.122,30.618L6.045,30.653L5.968,30.69L5.892,30.727L5.816,30.765L5.741,30.804L5.667,30.844L5.593,30.885L5.519,30.927L5.446,30.969L5.374,31.013L5.302,31.057L5.23,31.102L5.16,31.148L5.089,31.195L5.02,31.243L4.951,31.291L4.882,31.34L4.815,31.391L4.747,31.441L4.681,31.493L4.615,31.546L4.55,31.599L4.485,31.653L4.421,31.707L4.358,31.763L4.295,31.819L4.233,31.876L4.172,31.934L4.111,31.992L4.051,32.052L3.992,32.111L3.934,32.172L3.876,32.233L3.819,32.295L3.763,32.358L3.707,32.421L3.653,32.485L3.599,32.55L3.545,32.615L3.493,32.681L3.441,32.747L3.39,32.815L3.34,32.882L3.291,32.951L3.243,33.02L3.195,33.089L3.148,33.16L3.102,33.23L3.057,33.302L3.013,33.374L2.969,33.446L2.927,33.519L2.885,33.593L2.844,33.667L2.804,33.741L2.765,33.816L2.727,33.892L2.69,33.968L2.653,34.045L2.618,34.122L2.583,34.2L2.55,34.278L2.517,34.356L2.485,34.435L2.454,34.515L2.424,34.595L2.395,34.675L2.368,34.756L2.341,34.838L2.315,34.919L2.29,35.002L2.265,35.084L2.242,35.167L2.22,35.251L2.199,35.335L2.179,35.419L2.16,35.503L2.142,35.589L2.125,35.674L2.109,35.76L2.095,35.846L2.081,35.933L2.068,36.02L2.056,36.107L2.046,36.195L2.036,36.283L2.028,36.371L2.021,36.46L2.014,36.549L2.009,36.639L2.005,36.728L2.002,36.819L2.001,36.909L2,37L2.001,37.091L2.002,37.181L2.005,37.272L2.009,37.361L2.014,37.451L2.021,37.54L2.028,37.629L2.036,37.717L2.046,37.805L2.056,37.893L2.068,37.98L2.081,38.067L2.095,38.154L2.109,38.24L2.125,38.326L2.142,38.411L2.16,38.497L2.179,38.581L2.199,38.665L2.22,38.749L2.242,38.833L2.265,38.916L2.29,38.998L2.315,39.081L2.341,39.162L2.368,39.244L2.396,39.325L2.424,39.405L2.454,39.485L2.485,39.565L2.517,39.644L2.55,39.722L2.583,39.8L2.618,39.878L2.653,39.955L2.69,40.032L2.727,40.108L2.765,40.184L2.804,40.259L2.844,40.333L2.885,40.407L2.927,40.481L2.969,40.554L3.013,40.626L3.057,40.698L3.102,40.77L3.148,40.84L3.195,40.911L3.243,40.98L3.291,41.049L3.34,41.118L3.39,41.185L3.441,41.253L3.493,41.319L3.545,41.385L3.599,41.45L3.653,41.515L3.707,41.579L3.763,41.642L3.819,41.705L3.876,41.767L3.934,41.828L3.992,41.889L4.052,41.948L4.111,42.008L4.172,42.066L4.233,42.124L4.295,42.181L4.358,42.237L4.421,42.293L4.485,42.347L4.55,42.401L4.615,42.455L4.681,42.507L4.747,42.559L4.815,42.61L4.882,42.66L4.951,42.709L5.02,42.757L5.089,42.805L5.16,42.852L5.23,42.898L5.302,42.943L5.374,42.987L5.446,43.031L5.519,43.073L5.593,43.115L5.667,43.156L5.741,43.196L5.816,43.235L5.892,43.273L5.968,43.31L6.045,43.347L6.122,43.382L6.2,43.417L6.278,43.45L6.356,43.483L6.435,43.515L6.515,43.546L6.595,43.576L6.675,43.604L6.756,43.632L6.838,43.659L6.919,43.685L7.002,43.71L7.084,43.735L7.167,43.758L7.251,43.78L7.335,43.801L7.419,43.821L7.503,43.84L7.589,43.858L7.674,43.875L7.76,43.891L7.846,43.905L7.933,43.919L8.02,43.932L8.107,43.944L8.195,43.954L8.283,43.964L8.371,43.972L8.46,43.979L8.549,43.986L8.639,43.991L8.728,43.995L8.819,43.998L8.909,43.999L9.006,44L35.994,44L36.091,43.999L36.181,43.998L36.272,43.995L36.361,43.991L36.451,43.986L36.54,43.979L36.629,43.972L36.717,43.964L36.805,43.954L36.893,43.944L36.98,43.932L37.067,43.919L37.154,43.905L37.24,43.89L37.326,43.875L37.411,43.858L37.497,43.84L37.581,43.821L37.666,43.801L37.749,43.78L37.833,43.758L37.916,43.734L37.998,43.71L38.081,43.685L38.162,43.659L38.244,43.632L38.325,43.604L38.405,43.576L38.485,43.546L38.565,43.515L38.644,43.483L38.722,43.45L38.8,43.417L38.878,43.382L38.955,43.347L39.032,43.31L39.108,43.273L39.184,43.235L39.259,43.196L39.333,43.156L39.407,43.115L39.481,43.073L39.554,43.031L39.626,42.987L39.698,42.943L39.77,42.898L39.84,42.852L39.911,42.805L39.98,42.757L40.049,42.709L40.118,42.66L40.185,42.609L40.253,42.559L40.319,42.507L40.385,42.454L40.45,42.401L40.515,42.347L40.579,42.293L40.642,42.237L40.705,42.181L40.767,42.124L40.828,42.066L40.889,42.008L40.949,41.948L41.008,41.889L41.066,41.828L41.124,41.767L41.181,41.705L41.237,41.642L41.293,41.579L41.347,41.515L41.401,41.45L41.455,41.385L41.507,41.319L41.559,41.253L41.61,41.185L41.66,41.118L41.709,41.049L41.757,40.98L41.805,40.911L41.852,40.84L41.898,40.77L41.943,40.698L41.987,40.626L42.031,40.554L42.073,40.481L42.115,40.407L42.156,40.333L42.196,40.259L42.235,40.184L42.273,40.108L42.31,40.032L42.347,39.955L42.382,39.878L42.417,39.8L42.45,39.722L42.483,39.644L42.515,39.565L42.546,39.485L42.576,39.405L42.605,39.325L42.632,39.244L42.659,39.162L42.685,39.081L42.71,38.998L42.735,38.916L42.758,38.833L42.78,38.749L42.801,38.665L42.821,38.581L42.84,38.497L42.858,38.411L42.875,38.326L42.891,38.24L42.905,38.154L42.919,38.067L42.932,37.98L42.944,37.893L42.954,37.805L42.964,37.717L42.972,37.629L42.979,37.54L42.986,37.451L42.991,37.361L42.995,37.272L42.998,37.181L42.999,37.091L43,37L42.999,36.909L42.998,36.819L42.995,36.728L42.991,36.639L42.986,36.549L42.979,36.46L42.972,36.371L42.964,36.283L42.954,36.195L42.944,36.107L42.932,36.02L42.919,35.933L42.905,35.846L42.891,35.76L42.875,35.674L42.858,35.589L42.84,35.503L42.821,35.419L42.801,35.335L42.78,35.251L42.758,35.167L42.735,35.084L42.71,35.002L42.685,34.919L42.659,34.838L42.632,34.756L42.605,34.675L42.576,34.595L42.546,34.515L42.515,34.435L42.483,34.356L42.45,34.278L42.417,34.2L42.382,34.122L42.347,34.045L42.31,33.968L42.273,33.892L42.235,33.816L42.196,33.741L42.156,33.667L42.115,33.593L42.073,33.519L42.031,33.446L41.987,33.374L41.943,33.302L41.898,33.23L41.852,33.16L41.805,33.089L41.757,33.02L41.709,32.951L41.66,32.882L41.61,32.815L41.559,32.747L41.507,32.681L41.455,32.615L41.401,32.55L41.347,32.485L41.293,32.421L41.237,32.358L41.181,32.295L41.124,32.233L41.066,32.172L41.008,32.111L40.949,32.052L40.889,31.992L40.828,31.934L40.767,31.876L40.705,31.819L40.642,31.763L40.579,31.708L40.515,31.653L40.45,31.599L40.385,31.546L40.319,31.493L40.253,31.441L40.185,31.391L40.118,31.34L40.049,31.291L39.98,31.243L39.911,31.195L39.84,31.148L39.77,31.102L39.698,31.057L39.626,31.013L39.554,30.969L39.481,30.927L39.407,30.885L39.333,30.844L39.259,30.804L39.184,30.765L39.108,30.727L39.032,30.69L38.955,30.653L38.878,30.618L38.8,30.583L38.722,30.55L38.644,30.517L38.565,30.485L38.485,30.454L38.405,30.424L38.325,30.396L38.244,30.368L38.162,30.341L38.081,30.315L37.998,30.29L37.916,30.266L37.833,30.242L37.749,30.22L37.665,30.199L37.581,30.179L37.497,30.16L37.411,30.142L37.326,30.125L37.24,30.11L37.154,30.095L37.067,30.081L36.98,30.068L36.893,30.056L36.805,30.046L36.717,30.036L36.629,30.028L36.54,30.021L36.451,30.014L36.361,30.009L36.272,30.005L36.181,30.002L36.091,30.001L35.994,30L9.006,30ZM91.116,0.001L91.232,0.003L91.348,0.007L91.463,0.012L91.578,0.018L91.692,0.026L91.806,0.036L91.92,0.047L92.033,0.059L92.146,0.072L92.258,0.087L92.37,0.104L92.481,0.122L92.592,0.141L92.703,0.161L92.813,0.183L92.922,0.206L93.032,0.231L93.14,0.256L93.248,0.284L93.356,0.312L93.463,0.342L93.569,0.373L93.675,0.405L93.78,0.438L93.885,0.473L93.99,0.509L94.093,0.547L94.196,0.585L94.299,0.625L94.401,0.666L94.502,0.708L94.602,0.751L94.702,0.796L94.802,0.841L94.9,0.888L94.998,0.936L95.096,0.985L95.193,1.036L95.288,1.087L95.384,1.14L95.478,1.193L95.572,1.248L95.665,1.304L95.758,1.361L95.849,1.419L95.94,1.478L96.031,1.538L96.12,1.599L96.209,1.661L96.296,1.725L96.383,1.789L96.47,1.854L96.555,1.921L96.64,1.988L96.723,2.056L96.806,2.126L96.889,2.196L96.97,2.267L97.05,2.339L97.13,2.412L97.208,2.486L97.286,2.561L97.363,2.637L97.439,2.714L97.514,2.792L97.588,2.87L97.661,2.95L97.733,3.03L97.804,3.112L97.874,3.194L97.944,3.277L98.012,3.36L98.079,3.445L98.146,3.53L98.211,3.617L98.275,3.704L98.339,3.792L98.401,3.88L98.462,3.97L98.522,4.06L98.581,4.151L98.639,4.242L98.696,4.335L98.752,4.428L98.807,4.522L98.861,4.616L98.913,4.712L98.965,4.808L99.015,4.904L99.064,5.002L99.112,5.1L99.159,5.198L99.204,5.298L99.249,5.398L99.292,5.498L99.334,5.599L99.375,5.701L99.415,5.804L99.454,5.907L99.491,6.011L99.527,6.115L99.562,6.22L99.595,6.325L99.627,6.431L99.658,6.537L99.688,6.644L99.716,6.752L99.744,6.86L99.769,6.969L99.794,7.078L99.817,7.187L99.839,7.297L99.859,7.408L99.878,7.519L99.896,7.63L99.913,7.742L99.928,7.854L99.941,7.967L99.953,8.08L99.964,8.194L99.974,8.308L99.982,8.422L99.988,8.537L99.993,8.652L99.997,8.768L99.999,8.884L100,9L99.999,9.116L99.997,9.232L99.993,9.348L99.988,9.463L99.982,9.578L99.974,9.692L99.964,9.806L99.953,9.92L99.941,10.033L99.928,10.146L99.913,10.258L99.896,10.37L99.878,10.481L99.859,10.592L99.839,10.703L99.817,10.813L99.794,10.922L99.769,11.031L99.744,11.14L99.716,11.248L99.688,11.356L99.658,11.463L99.627,11.569L99.595,11.675L99.562,11.78L99.527,11.885L99.491,11.989L99.454,12.093L99.415,12.196L99.375,12.299L99.334,12.401L99.292,12.502L99.249,12.602L99.204,12.702L99.159,12.802L99.112,12.9L99.064,12.998L99.015,13.096L98.965,13.192L98.913,13.288L98.861,13.384L98.807,13.478L98.752,13.572L98.696,13.665L98.639,13.758L98.581,13.849L98.522,13.94L98.462,14.03L98.401,14.12L98.339,14.208L98.275,14.296L98.211,14.383L98.146,14.47L98.079,14.555L98.012,14.64L97.944,14.723L97.874,14.806L97.804,14.888L97.733,14.97L97.661,15.05L97.588,15.13L97.514,15.208L97.439,15.286L97.363,15.363L97.286,15.439L97.208,15.514L97.13,15.588L97.05,15.661L96.97,15.733L96.889,15.804L96.806,15.874L96.723,15.944L96.64,16.012L96.555,16.079L96.47,16.146L96.383,16.211L96.296,16.275L96.209,16.339L96.12,16.401L96.031,16.462L95.94,16.522L95.849,16.581L95.758,16.639L95.665,16.696L95.572,16.752L95.478,16.807L95.384,16.86L95.288,16.913L95.193,16.964L95.096,17.015L94.998,17.064L94.9,17.112L94.802,17.159L94.702,17.204L94.602,17.249L94.502,17.292L94.401,17.334L94.299,17.375L94.196,17.415L94.093,17.453L93.99,17.491L93.885,17.527L93.78,17.562L93.675,17.595L93.569,17.627L93.463,17.658L93.356,17.688L93.248,17.716L93.14,17.744L93.032,17.769L92.922,17.794L92.813,17.817L92.703,17.839L92.592,17.859L92.481,17.878L92.37,17.896L92.258,17.913L92.146,17.928L92.033,17.941L91.92,17.953L91.806,17.964L91.692,17.974L91.578,17.982L91.463,17.988L91.348,17.993L91.232,17.997L91.116,17.999L91,18L9,18L8.884,17.999L8.768,17.997L8.652,17.993L8.537,17.988L8.422,17.982L8.308,17.974L8.194,17.964L8.08,17.953L7.967,17.941L7.854,17.928L7.742,17.913L7.63,17.896L7.519,17.878L7.408,17.859L7.297,17.839L7.187,17.817L7.078,17.794L6.969,17.769L6.86,17.744L6.752,17.716L6.644,17.688L6.537,17.658L6.431,17.627L6.325,17.595L6.22,17.562L6.115,17.527L6.01,17.491L5.907,17.454L5.804,17.415L5.701,17.375L5.599,17.334L5.498,17.292L5.398,17.249L5.298,17.204L5.198,17.159L5.1,17.112L5.002,17.064L4.904,17.015L4.808,16.964L4.712,16.913L4.616,16.861L4.522,16.807L4.428,16.752L4.335,16.696L4.242,16.639L4.151,16.581L4.06,16.522L3.969,16.462L3.88,16.401L3.791,16.339L3.704,16.275L3.617,16.211L3.53,16.146L3.445,16.079L3.36,16.012L3.277,15.944L3.194,15.874L3.112,15.804L3.03,15.733L2.95,15.661L2.87,15.588L2.792,15.514L2.714,15.439L2.637,15.363L2.561,15.286L2.486,15.208L2.412,15.13L2.339,15.05L2.267,14.97L2.196,14.888L2.126,14.806L2.056,14.723L1.988,14.64L1.921,14.555L1.854,14.47L1.789,14.383L1.725,14.296L1.661,14.209L1.599,14.12L1.538,14.031L1.478,13.94L1.419,13.849L1.361,13.758L1.304,13.665L1.248,13.572L1.193,13.478L1.139,13.384L1.087,13.288L1.036,13.192L0.985,13.096L0.936,12.998L0.888,12.9L0.841,12.802L0.796,12.702L0.751,12.602L0.708,12.502L0.666,12.401L0.625,12.299L0.585,12.196L0.546,12.093L0.509,11.99L0.473,11.885L0.438,11.78L0.405,11.675L0.373,11.569L0.342,11.463L0.312,11.356L0.284,11.248L0.256,11.14L0.231,11.031L0.206,10.922L0.183,10.813L0.161,10.703L0.141,10.592L0.122,10.481L0.104,10.37L0.087,10.258L0.072,10.146L0.059,10.033L0.047,9.92L0.036,9.806L0.026,9.692L0.018,9.578L0.012,9.463L0.007,9.348L0.003,9.232L0.001,9.116L0,9L0.001,8.884L0.003,8.768L0.007,8.652L0.012,8.537L0.018,8.422L0.026,8.308L0.036,8.194L0.047,8.08L0.059,7.967L0.072,7.854L0.087,7.742L0.104,7.63L0.122,7.519L0.141,7.408L0.161,7.297L0.183,7.187L0.206,7.078L0.231,6.969L0.256,6.86L0.284,6.752L0.312,6.644L0.342,6.537L0.373,6.431L0.405,6.325L0.438,6.22L0.473,6.115L0.509,6.011L0.546,5.907L0.585,5.804L0.625,5.701L0.666,5.599L0.708,5.498L0.751,5.398L0.796,5.298L0.841,5.198L0.888,5.1L0.936,5.002L0.985,4.904L1.035,4.808L1.087,4.712L1.139,4.616L1.193,4.522L1.248,4.428L1.304,4.335L1.361,4.242L1.419,4.151L1.478,4.06L1.538,3.97L1.599,3.88L1.661,3.792L1.725,3.704L1.789,3.617L1.854,3.53L1.921,3.445L1.988,3.36L2.056,3.277L2.126,3.194L2.196,3.112L2.267,3.03L2.339,2.95L2.412,2.87L2.486,2.792L2.561,2.714L2.637,2.637L2.714,2.561L2.792,2.486L2.87,2.412L2.95,2.339L3.03,2.267L3.111,2.196L3.194,2.126L3.277,2.056L3.36,1.988L3.445,1.921L3.53,1.854L3.617,1.789L3.704,1.725L3.791,1.661L3.88,1.599L3.969,1.538L4.06,1.478L4.151,1.419L4.242,1.361L4.335,1.304L4.428,1.248L4.522,1.193L4.616,1.14L4.712,1.087L4.807,1.036L4.904,0.985L5.002,0.936L5.1,0.888L5.198,0.841L5.298,0.796L5.398,0.751L5.498,0.708L5.599,0.666L5.701,0.625L5.804,0.585L5.907,0.547L6.01,0.509L6.115,0.473L6.22,0.438L6.325,0.405L6.431,0.373L6.537,0.342L6.644,0.312L6.752,0.284L6.86,0.256L6.968,0.231L7.078,0.206L7.187,0.183L7.297,0.161L7.408,0.141L7.519,0.122L7.63,0.104L7.742,0.087L7.854,0.072L7.967,0.059L8.08,0.047L8.194,0.036L8.308,0.026L8.422,0.018L8.537,0.012L8.652,0.007L8.768,0.003L8.884,0.001L9,0L91,0L91.116,0.001ZM9.006,2L8.909,2.001L8.819,2.002L8.728,2.005L8.639,2.009L8.549,2.014L8.46,2.021L8.371,2.028L8.283,2.036L8.195,2.046L8.107,2.056L8.02,2.068L7.933,2.081L7.846,2.095L7.76,2.11L7.674,2.125L7.589,2.142L7.503,2.16L7.419,2.179L7.335,2.199L7.251,2.22L7.167,2.242L7.084,2.266L7.002,2.29L6.919,2.315L6.838,2.341L6.756,2.368L6.675,2.396L6.595,2.424L6.515,2.454L6.435,2.485L6.356,2.517L6.278,2.55L6.2,2.583L6.122,2.618L6.045,2.653L5.968,2.69L5.892,2.727L5.816,2.765L5.741,2.804L5.667,2.844L5.593,2.885L5.519,2.927L5.446,2.969L5.374,3.013L5.302,3.057L5.23,3.102L5.16,3.148L5.089,3.195L5.02,3.243L4.951,3.291L4.882,3.34L4.815,3.391L4.747,3.441L4.681,3.493L4.615,3.546L4.55,3.599L4.485,3.653L4.421,3.707L4.358,3.763L4.295,3.819L4.233,3.876L4.172,3.934L4.111,3.992L4.051,4.052L3.992,4.111L3.934,4.172L3.876,4.233L3.819,4.295L3.763,4.358L3.707,4.421L3.653,4.485L3.599,4.55L3.545,4.615L3.493,4.681L3.441,4.747L3.39,4.815L3.34,4.882L3.291,4.951L3.243,5.02L3.195,5.089L3.148,5.16L3.102,5.23L3.057,5.302L3.013,5.374L2.969,5.446L2.927,5.519L2.885,5.593L2.844,5.667L2.804,5.741L2.765,5.816L2.727,5.892L2.69,5.968L2.653,6.045L2.618,6.122L2.583,6.2L2.55,6.278L2.517,6.356L2.485,6.435L2.454,6.515L2.424,6.595L2.395,6.675L2.368,6.756L2.341,6.838L2.315,6.919L2.29,7.002L2.265,7.084L2.242,7.167L2.22,7.251L2.199,7.335L2.179,7.419L2.16,7.503L2.142,7.589L2.125,7.674L2.109,7.76L2.095,7.846L2.081,7.933L2.068,8.02L2.056,8.107L2.046,8.195L2.036,8.283L2.028,8.371L2.021,8.46L2.014,8.549L2.009,8.639L2.005,8.728L2.002,8.819L2.001,8.909L2,9L2.001,9.091L2.002,9.181L2.005,9.272L2.009,9.361L2.014,9.451L2.021,9.54L2.028,9.629L2.036,9.717L2.046,9.805L2.056,9.893L2.068,9.98L2.081,10.067L2.095,10.154L2.109,10.24L2.125,10.326L2.142,10.411L2.16,10.497L2.179,10.581L2.199,10.665L2.22,10.749L2.242,10.833L2.265,10.916L2.29,10.998L2.315,11.081L2.341,11.162L2.368,11.244L2.395,11.325L2.424,11.405L2.454,11.485L2.485,11.565L2.517,11.644L2.55,11.722L2.583,11.8L2.618,11.878L2.653,11.955L2.69,12.032L2.727,12.108L2.765,12.184L2.804,12.259L2.844,12.333L2.885,12.407L2.927,12.481L2.969,12.554L3.013,12.626L3.057,12.698L3.102,12.77L3.148,12.84L3.195,12.911L3.243,12.98L3.291,13.049L3.34,13.118L3.39,13.185L3.441,13.253L3.493,13.319L3.545,13.385L3.599,13.45L3.653,13.515L3.707,13.579L3.763,13.642L3.819,13.705L3.876,13.767L3.934,13.828L3.992,13.889L4.052,13.948L4.111,14.008L4.172,14.066L4.233,14.124L4.295,14.181L4.358,14.237L4.421,14.293L4.485,14.347L4.55,14.401L4.615,14.455L4.681,14.507L4.747,14.559L4.815,14.61L4.882,14.66L4.951,14.709L5.02,14.757L5.089,14.805L5.16,14.852L5.23,14.898L5.302,14.943L5.374,14.987L5.446,15.031L5.519,15.073L5.593,15.115L5.667,15.156L5.741,15.196L5.816,15.235L5.892,15.273L5.968,15.31L6.045,15.347L6.122,15.382L6.2,15.417L6.278,15.45L6.356,15.483L6.435,15.515L6.515,15.546L6.595,15.576L6.675,15.604L6.756,15.632L6.838,15.659L6.919,15.685L7.002,15.71L7.084,15.735L7.167,15.758L7.251,15.78L7.335,15.801L7.419,15.821L7.503,15.84L7.589,15.858L7.674,15.875L7.76,15.891L7.846,15.905L7.933,15.919L8.02,15.932L8.107,15.944L8.195,15.954L8.283,15.964L8.371,15.972L8.46,15.979L8.549,15.986L8.639,15.991L8.728,15.995L8.819,15.998L8.909,15.999L9.006,16L90.994,16L91.091,15.999L91.181,15.998L91.272,15.995L91.361,15.991L91.451,15.986L91.54,15.979L91.629,15.972L91.717,15.964L91.805,15.954L91.893,15.944L91.98,15.932L92.067,15.919L92.154,15.905L92.24,15.89L92.326,15.875L92.411,15.858L92.497,15.84L92.581,15.821L92.665,15.801L92.749,15.78L92.833,15.758L92.916,15.734L92.998,15.71L93.081,15.685L93.162,15.659L93.244,15.632L93.325,15.604L93.405,15.576L93.485,15.546L93.565,15.515L93.644,15.483L93.722,15.45L93.8,15.417L93.878,15.382L93.955,15.347L94.032,15.31L94.108,15.273L94.184,15.235L94.259,15.196L94.333,15.156L94.407,15.115L94.481,15.073L94.554,15.031L94.627,14.987L94.698,14.943L94.77,14.898L94.84,14.852L94.911,14.805L94.98,14.757L95.049,14.709L95.118,14.66L95.185,14.609L95.253,14.559L95.319,14.507L95.385,14.454L95.45,14.401L95.515,14.347L95.579,14.293L95.642,14.237L95.705,14.181L95.767,14.124L95.828,14.066L95.889,14.008L95.949,13.948L96.008,13.889L96.066,13.828L96.124,13.767L96.181,13.705L96.237,13.642L96.293,13.579L96.347,13.515L96.401,13.45L96.455,13.385L96.507,13.319L96.559,13.253L96.61,13.185L96.66,13.118L96.709,13.049L96.757,12.98L96.805,12.911L96.852,12.84L96.898,12.77L96.943,12.698L96.987,12.626L97.031,12.554L97.073,12.481L97.115,12.407L97.156,12.333L97.196,12.259L97.235,12.184L97.273,12.108L97.31,12.032L97.347,11.955L97.382,11.878L97.417,11.8L97.45,11.722L97.483,11.644L97.515,11.565L97.546,11.485L97.576,11.405L97.605,11.324L97.632,11.244L97.659,11.162L97.685,11.081L97.71,10.998L97.735,10.916L97.758,10.833L97.78,10.749L97.801,10.665L97.821,10.581L97.84,10.497L97.858,10.411L97.875,10.326L97.891,10.24L97.905,10.154L97.919,10.067L97.932,9.98L97.944,9.893L97.954,9.805L97.964,9.717L97.972,9.629L97.979,9.54L97.986,9.451L97.991,9.361L97.995,9.272L97.998,9.181L97.999,9.091L98,9L97.999,8.909L97.998,8.819L97.995,8.728L97.991,8.639L97.986,8.549L97.979,8.46L97.972,8.371L97.964,8.283L97.954,8.195L97.944,8.107L97.932,8.02L97.919,7.933L97.905,7.846L97.891,7.76L97.875,7.674L97.858,7.589L97.84,7.503L97.821,7.419L97.801,7.335L97.78,7.251L97.758,7.167L97.735,7.084L97.71,7.002L97.685,6.919L97.659,6.838L97.632,6.756L97.605,6.676L97.576,6.595L97.546,6.515L97.515,6.435L97.483,6.356L97.45,6.278L97.417,6.2L97.382,6.122L97.347,6.045L97.31,5.968L97.273,5.892L97.235,5.816L97.196,5.741L97.156,5.667L97.115,5.593L97.073,5.519L97.031,5.446L96.987,5.374L96.943,5.302L96.898,5.23L96.852,5.16L96.805,5.089L96.757,5.02L96.709,4.951L96.66,4.882L96.61,4.815L96.559,4.747L96.507,4.681L96.455,4.615L96.401,4.55L96.347,4.485L96.293,4.421L96.237,4.358L96.181,4.295L96.124,4.233L96.066,4.172L96.008,4.111L95.949,4.052L95.889,3.992L95.828,3.934L95.767,3.876L95.705,3.819L95.642,3.763L95.579,3.707L95.515,3.653L95.45,3.599L95.385,3.546L95.319,3.493L95.253,3.441L95.185,3.391L95.118,3.34L95.049,3.291L94.98,3.243L94.911,3.195L94.84,3.148L94.77,3.102L94.698,3.057L94.627,3.013L94.554,2.969L94.481,2.927L94.407,2.885L94.333,2.844L94.259,2.804L94.184,2.765L94.108,2.727L94.032,2.69L93.955,2.653L93.878,2.618L93.8,2.583L93.722,2.55L93.644,2.517L93.565,2.485L93.485,2.454L93.405,2.424L93.325,2.396L93.244,2.368L93.162,2.341L93.081,2.315L92.998,2.29L92.916,2.266L92.833,2.242L92.749,2.22L92.665,2.199L92.581,2.179L92.497,2.16L92.411,2.142L92.326,2.125L92.24,2.11L92.154,2.095L92.067,2.081L91.98,2.068L91.893,2.056L91.805,2.046L91.717,2.036L91.629,2.028L91.54,2.021L91.451,2.014L91.361,2.009L91.272,2.005L91.181,2.002L91.091,2.001L90.994,2L9.006,2Z"/>
    </g>
</svg>
