<?xml version="1.0" encoding="UTF-8" standalone="no"?>
<!DOCTYPE svg PUBLIC "-//W3C//DTD SVG 1.1//EN" "http://www.w3.org/Graphics/SVG/1.1/DTD/svg11.dtd">
<svg width="100%" height="100%" viewBox="0 0 100 100" version="1.1" xmlns="http://www.w3.org/2000/svg" xmlnsXlink="http://www.w3.org/1999/xlink" xmlSpace="preserve" xmlnsSerif="http://www.serif.com/" style="fill-rule:evenodd;clip-rule:evenodd;stroke-linejoin:round;stroke-miterlimit:2;">
    <g transform="matrix(3.78215,0,0,3.78215,-7.5643,-14.5329)">
        <path d="M8.2,23.164L4.92,26.445L5.838,27.363L25.521,7.681L24.635,6.795L24.602,6.762L20.994,10.371C19.19,9.583 17.221,9.19 15.22,9.19C9.873,9.19 4.887,12.076 2.197,16.735L2,17.063L2.197,17.391C3.607,19.884 5.74,21.852 8.2,23.164ZM28.244,16.735C27.063,14.668 25.39,12.929 23.454,11.65L22.503,12.601C24.274,13.717 25.783,15.226 26.931,17.063C25.193,19.917 22.47,21.983 19.354,22.968C21.223,21.655 22.437,19.49 22.437,17.063C22.437,15.816 22.109,14.602 21.551,13.585L20.567,14.57C20.928,15.324 21.125,16.177 21.125,17.063C21.125,20.31 18.468,22.968 15.22,22.968C14.334,22.968 13.482,22.771 12.727,22.41L11.907,23.23L11.743,23.394L10.857,24.28C12.268,24.706 13.711,24.936 15.22,24.936C20.567,24.936 25.554,22.049 28.244,17.391L28.44,17.063L28.244,16.735ZM11.087,11.158C9.217,12.47 8.003,14.602 8.003,17.063C8.003,18.801 8.626,20.442 9.676,21.688L9.151,22.213C6.855,21.065 4.887,19.326 3.509,17.063C5.28,14.209 7.97,12.142 11.087,11.158ZM15.22,20.999C17.385,20.999 19.157,19.228 19.157,17.063C19.157,16.735 19.124,16.407 19.025,16.079L14.236,20.868C14.564,20.966 14.892,20.999 15.22,20.999ZM18.894,12.47L17.484,13.881C16.86,13.389 16.073,13.126 15.22,13.126C13.055,13.126 11.284,14.898 11.284,17.063C11.284,17.916 11.546,18.703 12.005,19.326L10.595,20.737C9.775,19.72 9.283,18.441 9.283,17.063C9.283,13.815 11.94,11.158 15.187,11.158C16.598,11.158 17.877,11.65 18.894,12.47ZM13.58,17.063C13.58,16.144 14.302,15.423 15.22,15.423L15.22,14.766C13.941,14.766 12.924,15.783 12.924,17.063L13.58,17.063Z"/>
    </g>
</svg>
