<?xml version="1.0" encoding="UTF-8" standalone="no"?>
<!DOCTYPE svg PUBLIC "-//W3C//DTD SVG 1.1//EN" "http://www.w3.org/Graphics/SVG/1.1/DTD/svg11.dtd">
<svg width="100%" height="100%" viewBox="0 0 100 100" version="1.1" xmlns="http://www.w3.org/2000/svg" xmlnsXlink="http://www.w3.org/1999/xlink" xmlSpace="preserve" xmlnsSerif="http://www.serif.com/" style="fill-rule:evenodd;clip-rule:evenodd;stroke-linejoin:round;stroke-miterlimit:2;">
    <g transform="matrix(3.78215,0,0,3.78215,-7.5643,-14.5348)">
        <path d="M15.22,9.19C9.873,9.19 4.887,12.076 2.197,16.735L2,17.063L2.197,17.391C4.887,22.049 9.873,24.936 15.22,24.936C20.567,24.936 25.554,22.049 28.244,17.391L28.44,17.063L28.244,16.735C25.554,12.076 20.567,9.19 15.22,9.19ZM3.509,17.063C5.248,14.209 7.97,12.142 11.087,11.158C9.217,12.47 8.003,14.602 8.003,17.063C8.003,19.523 9.217,21.655 11.087,22.968C7.97,21.983 5.28,19.917 3.509,17.063ZM9.315,17.063C9.315,13.815 11.973,11.158 15.22,11.158C18.468,11.158 21.125,13.815 21.125,17.063C21.125,20.31 18.468,22.968 15.22,22.968C11.973,22.968 9.315,20.31 9.315,17.063ZM19.354,22.968C21.223,21.655 22.437,19.49 22.437,17.063C22.437,14.602 21.223,12.47 19.354,11.158C22.47,12.142 25.16,14.209 26.931,17.063C25.16,19.917 22.47,21.983 19.354,22.968ZM15.22,13.126C13.055,13.126 11.284,14.898 11.284,17.063C11.284,19.228 13.055,20.999 15.22,20.999C17.385,20.999 19.157,19.228 19.157,17.063C19.157,14.898 17.385,13.126 15.22,13.126ZM13.58,17.063C13.58,16.144 14.302,15.423 15.22,15.423L15.22,14.766C13.941,14.766 12.924,15.783 12.924,17.063L13.58,17.063Z"/>
    </g>
</svg>
