<?xml version="1.0" encoding="UTF-8" standalone="no"?>
<!DOCTYPE svg PUBLIC "-//W3C//DTD SVG 1.1//EN" "http://www.w3.org/Graphics/SVG/1.1/DTD/svg11.dtd">
<title>Pianote</title>
<svg width="100%" height="100%" viewBox="0 0 177 53" version="1.1" xmlns="http://www.w3.org/2000/svg" xmlns:xlink="http://www.w3.org/1999/xlink" xml:space="preserve" xmlnsSerif="http://www.serif.com/" style="fill-rule:evenodd;clip-rule:evenodd;stroke-linejoin:round;stroke-miterlimit:2;">
    <g transform="matrix(1,0,0,1,-2080.6,-100.767)">
        <path d="M2088.01,153.637L2080.6,153.637L2080.6,113.014L2088.01,113.014L2088.01,116.294C2089.36,114.946 2090.82,113.934 2092.39,113.26C2093.95,112.586 2095.63,112.248 2097.41,112.248C2101.3,112.248 2104.6,113.716 2107.31,116.65C2110.03,119.584 2111.38,123.347 2111.38,127.94C2111.38,132.368 2109.98,136.073 2107.17,139.052C2104.37,142.032 2101.04,143.522 2097.2,143.522C2095.48,143.522 2093.89,143.217 2092.41,142.606C2090.94,141.996 2089.47,140.998 2088.01,139.613L2088.01,153.637ZM2246.54,110.006C2236.07,110.006 2230.78,118.304 2230.78,127.752C2230.78,137.263 2234.99,143.902 2245.84,143.902C2251.84,143.902 2256.05,141.221 2257.08,140.328L2254.65,135.157C2253.12,136.242 2250.37,137.966 2246.61,137.966C2241.18,137.966 2239.01,134.582 2238.76,130.433C2246.29,130.369 2256.95,128.71 2256.95,118.879C2256.95,113.198 2252.8,110.006 2246.54,110.006ZM2223.93,111.2L2236.34,111.2L2236.3,111.233C2235.6,111.739 2234.94,112.302 2234.34,112.914C2233.74,113.521 2233.18,114.174 2232.68,114.865C2232.3,115.391 2231.95,115.937 2231.62,116.501L2223.93,116.501L2223.93,133.097C2223.93,136.947 2225.44,138.083 2228.03,138.083C2229,138.083 2229.93,137.857 2230.74,137.545C2230.79,137.657 2230.85,137.768 2230.9,137.878C2231.06,138.185 2231.22,138.486 2231.4,138.782C2231.64,139.194 2231.91,139.595 2232.19,139.981C2232.58,140.505 2233,141.003 2233.46,141.467C2233.59,141.598 2233.72,141.727 2233.86,141.852C2231.94,143.046 2228.99,143.825 2226.2,143.825C2216.35,143.825 2216.42,137.767 2216.42,133.35L2216.42,116.501L2212.69,116.501C2212.67,116.479 2213.92,111.894 2213.92,111.894C2217.27,111.73 2218.07,109.261 2218.58,107.945C2218.91,107.101 2219.19,104.969 2219.28,104.511L2223.93,104.511L2223.93,111.2ZM2153.8,142.757L2146.37,142.757L2146.37,139.613C2144.91,140.998 2143.45,141.996 2141.98,142.606C2140.51,143.217 2138.92,143.522 2137.21,143.522C2133.37,143.522 2130.04,142.032 2127.23,139.052C2124.43,136.073 2123.02,132.368 2123.02,127.94C2123.02,123.347 2124.38,119.584 2127.1,116.65C2129.81,113.716 2133.11,112.248 2136.99,112.248C2138.78,112.248 2140.45,112.586 2142.02,113.26C2143.59,113.934 2145.04,114.946 2146.37,116.294L2146.37,113.014L2153.8,113.014L2153.8,142.757ZM2198.49,112.248C2201.3,112.248 2203.93,112.95 2206.4,114.353C2208.87,115.757 2210.8,117.661 2212.18,120.067C2213.57,122.473 2214.26,125.07 2214.26,127.858C2214.26,130.664 2213.57,133.289 2212.17,135.731C2210.78,138.173 2208.88,140.082 2206.47,141.458C2204.07,142.834 2201.41,143.522 2198.52,143.522C2194.25,143.522 2190.61,142.005 2187.6,138.97C2184.58,135.936 2183.07,132.25 2183.07,127.913C2183.07,123.265 2184.78,119.393 2188.18,116.294C2191.17,113.597 2194.61,112.248 2198.49,112.248ZM2120.93,142.757L2113.43,142.757L2113.43,113.014L2120.93,113.014L2120.93,142.757ZM2163.53,142.757L2156.09,142.757L2156.09,113.014L2163.53,113.014L2163.53,116.048C2165.22,114.627 2166.76,113.638 2168.13,113.082C2169.51,112.526 2170.92,112.248 2172.36,112.248C2175.31,112.248 2177.82,113.278 2179.88,115.338C2181.24,116.718 2182.07,118.619 2182.36,121.042C2181.99,121.975 2181.7,122.941 2181.5,123.924C2181.23,125.235 2181.1,126.574 2181.1,127.912C2181.1,129.204 2181.22,130.497 2181.47,131.765C2181.7,132.887 2182.03,133.988 2182.47,135.045L2182.47,142.757L2175.09,142.757L2175.09,129.717C2175.09,126.163 2174.93,123.803 2174.61,122.637C2174.29,121.47 2173.74,120.582 2172.95,119.971C2172.15,119.361 2171.17,119.055 2170.01,119.055C2168.49,119.055 2167.2,119.561 2166.11,120.573C2165.03,121.584 2164.28,122.983 2163.86,124.769C2163.64,125.698 2163.53,127.712 2163.53,130.81L2163.53,142.757ZM2095.86,119.137C2093.51,119.137 2091.55,119.939 2090.01,121.543C2088.46,123.147 2087.68,125.243 2087.68,127.831C2087.68,130.473 2088.46,132.61 2090.01,134.241C2091.55,135.872 2093.51,136.688 2095.86,136.688C2098.13,136.688 2100.05,135.859 2101.61,134.2C2103.17,132.542 2103.95,130.428 2103.95,127.858C2103.95,125.306 2103.18,123.215 2101.65,121.584C2100.12,119.953 2098.19,119.137 2095.86,119.137ZM2138.52,119.137C2136.21,119.137 2134.28,119.953 2132.75,121.584C2131.22,123.215 2130.46,125.306 2130.46,127.858C2130.46,130.428 2131.24,132.542 2132.8,134.2C2134.35,135.859 2136.27,136.688 2138.55,136.688C2140.9,136.688 2142.85,135.872 2144.4,134.241C2145.95,132.61 2146.72,130.473 2146.72,127.831C2146.72,125.243 2145.95,123.147 2144.4,121.543C2142.85,119.939 2140.89,119.137 2138.52,119.137ZM2198.6,119.274C2196.28,119.274 2194.36,120.081 2192.82,121.693C2191.28,123.306 2190.51,125.37 2190.51,127.885C2190.51,130.473 2191.27,132.569 2192.79,134.173C2194.31,135.777 2196.24,136.578 2198.57,136.578C2200.9,136.578 2202.85,135.767 2204.39,134.145C2205.94,132.523 2206.72,130.437 2206.72,127.885C2206.72,125.334 2205.96,123.261 2204.43,121.666C2202.91,120.071 2200.97,119.274 2198.6,119.274ZM2249.93,119.007C2249.93,123.922 2242.6,126.991 2238.5,125.071C2237.42,119.942 2240.99,115.432 2246.1,115.432C2248.39,115.432 2249.93,116.645 2249.93,119.007ZM2117.18,100.767C2118.49,100.767 2119.62,101.241 2120.56,102.188C2121.49,103.136 2121.97,104.284 2121.97,105.633C2121.97,106.963 2121.5,108.098 2120.57,109.036C2119.64,109.975 2118.53,110.444 2117.24,110.444C2115.91,110.444 2114.77,109.966 2113.83,109.009C2112.89,108.052 2112.42,106.89 2112.42,105.524C2112.42,104.211 2112.89,103.091 2113.82,102.161C2114.75,101.232 2115.87,100.767 2117.18,100.767Z" style="fill-rule:nonzero;"/>
    </g>
</svg>
