<?xml version="1.0" encoding="UTF-8" standalone="no"?>

<!DOCTYPE svg PUBLIC "-//W3C//DTD SVG 1.1//EN" "http://www.w3.org/Graphics/SVG/1.1/DTD/svg11.dtd">

<svg 
    id="Layer_1"
	xmlns="http://www.w3.org/2000/svg"
	xmlns:xlink="http://www.w3.org/1999/xlink"
	x="0px" 
	y="0px"
	viewBox="0 0 100 100" 
	style="enable-background:new 0 0 100 100;" 
	xml:space="preserve"
>
    <title>Progress</title>
    <g id="in-progress" transform="matrix(0.24,0,0,0.24,2.70006e-15,2.43006e-14)">
        <path d="M208.333,60.764L208.333,355.903C235.098,355.903 259.784,349.302 282.389,336.1C304.995,322.899 322.899,304.995 336.1,282.389C349.302,259.784 355.903,235.098 355.903,208.333C355.903,181.568 349.302,156.883 336.1,134.277C322.899,111.672 304.995,93.768 282.389,80.566C259.784,67.365 235.098,60.764 208.333,60.764ZM27.941,312.771C9.314,280.943 0,246.13 0,208.333C0,170.537 9.314,135.679 27.941,103.76C46.568,71.841 71.841,46.568 103.76,27.941C135.679,9.314 170.537,0 208.333,0C246.13,0 280.988,9.314 312.907,27.941C344.826,46.568 370.099,71.841 388.726,103.76C407.353,135.679 416.667,170.537 416.667,208.333C416.667,246.13 407.353,280.988 388.726,312.907C370.099,344.826 344.826,370.099 312.907,388.726C280.988,407.353 246.13,416.667 208.333,416.667C170.537,416.667 135.679,407.353 103.76,388.726C71.841,370.099 46.568,344.781 27.941,312.771Z"/>
    </g>
</svg>