<?xml version="1.0" encoding="UTF-8" standalone="no"?>
<!DOCTYPE svg PUBLIC "-//W3C//DTD SVG 1.1//EN" "http://www.w3.org/Graphics/SVG/1.1/DTD/svg11.dtd">
<svg width="100%" height="100%" viewBox="0 0 100 100" version="1.1" xmlns="http://www.w3.org/2000/svg" xmlnsXlink="http://www.w3.org/1999/xlink" xmlSpace="preserve" xmlnsSerif="http://www.serif.com/" style="fill-rule:evenodd;clip-rule:evenodd;stroke-linejoin:round;stroke-miterlimit:2;">
    <g id="Path_1054" transform="matrix(4.49135,0,0,4.49135,12.4972,0)">
        <path d="M6.262,11.8L6.262,16.09C6.033,16.034 5.798,16.005 5.562,16.003C4.41,16.003 3.475,16.626 3.475,17.395C3.475,18.164 4.41,18.787 5.562,18.787C6.714,18.787 7.649,18.164 7.649,17.395L7.649,13.707L11.824,12.076L11.824,14.7C11.595,14.644 11.36,14.615 11.124,14.613C9.972,14.613 9.037,15.236 9.037,16.005C9.037,16.774 9.98,17.4 11.133,17.4C12.286,17.4 13.22,16.772 13.22,16L13.22,9.741C13.216,9.36 12.901,9.049 12.52,9.049C12.452,9.049 12.385,9.059 12.32,9.078L6.749,11.133C6.46,11.225 6.262,11.496 6.262,11.8ZM16.086,4.264L12.437,0.613C12.046,0.222 11.516,0.001 10.963,0L2.087,0C0.943,0.007 0.005,0.947 0,2.091L0,20.178C0.007,21.32 0.945,22.258 2.087,22.265L14.612,22.265C15.755,22.258 16.693,21.321 16.7,20.178L16.7,5.74C16.698,5.186 16.478,4.654 16.086,4.262L16.086,4.264ZM11.132,2.264L14.442,5.57L11.133,5.57L11.132,2.264ZM14.611,20.181L2.087,20.181L2.087,2.091L9.045,2.091L9.045,6.617C9.048,7.187 9.516,7.655 10.086,7.658L14.612,7.658L14.611,20.181Z" style="fill-rule:nonzero;"/>
    </g>
</svg>
