<?xml version="1.0" encoding="UTF-8" standalone="no"?><!DOCTYPE svg PUBLIC "-//W3C//DTD SVG 1.1//EN" "http://www.w3.org/Graphics/SVG/1.1/DTD/svg11.dtd"><svg width="100%" height="100%" viewBox="0 0 32 32" version="1.1" xmlns="http://www.w3.org/2000/svg" xmlns:xlink="http://www.w3.org/1999/xlink" xml:space="preserve" xmlns:serif="http://www.serif.com/" style="fill-rule:evenodd;clip-rule:evenodd;stroke-linejoin:round;stroke-miterlimit:1.41421;"><path id="search" d="M13.649,2.001l0.148,0.003l0.147,0.004l0.147,0.007l0.147,0.008l0.146,0.011l0.146,0.012l0.145,0.013l0.145,0.016l0.144,0.017l0.143,0.02l0.143,0.021l0.143,0.022l0.142,0.025l0.141,0.026l0.14,0.028l0.14,0.029l0.14,0.032l0.139,0.033l0.138,0.034l0.137,0.037l0.137,0.038l0.136,0.039l0.135,0.041l0.135,0.043l0.134,0.045l0.133,0.046l0.132,0.047l0.132,0.049l0.131,0.051l0.26,0.106l0.128,0.056l0.128,0.057l0.127,0.058l0.126,0.06l0.125,0.061l0.125,0.063l0.123,0.064l0.123,0.066l0.121,0.067l0.121,0.069l0.12,0.07l0.119,0.071l0.118,0.073l0.118,0.074l0.116,0.075l0.115,0.077l0.114,0.078l0.113,0.08l0.113,0.081l0.111,0.082l0.11,0.083l0.109,0.085l0.108,0.086l0.107,0.087l0.106,0.089l0.105,0.09l0.104,0.091l0.103,0.092l0.101,0.093l0.101,0.095l0.099,0.096l0.098,0.097l0.097,0.098l0.096,0.099l0.095,0.101l0.093,0.101l0.092,0.103l0.091,0.104l0.09,0.105l0.089,0.106l0.087,0.107l0.086,0.108l0.085,0.109l0.083,0.11l0.082,0.111l0.081,0.113l0.08,0.113l0.078,0.114l0.077,0.115l0.075,0.116l0.074,0.118l0.073,0.118l0.071,0.119l0.07,0.12l0.069,0.121l0.067,0.121l0.066,0.123l0.064,0.123l0.063,0.125l0.061,0.125l0.06,0.126l0.058,0.127l0.057,0.128l0.056,0.128l0.106,0.26l0.051,0.131l0.049,0.132l0.047,0.132l0.046,0.133l0.045,0.134l0.043,0.135l0.041,0.135l0.039,0.136l0.038,0.137l0.037,0.137l0.034,0.138l0.033,0.139l0.032,0.14l0.029,0.14l0.028,0.14l0.026,0.141l0.025,0.142l0.022,0.143l0.021,0.143l0.02,0.143l0.017,0.144l0.016,0.145l0.013,0.145l0.012,0.146l0.011,0.146l0.008,0.147l0.007,0.147l0.004,0.147l0.003,0.148l0.001,0.149l-0.001,0.149l-0.003,0.148l-0.004,0.147l-0.007,0.147l-0.008,0.147l-0.011,0.146l-0.012,0.146l-0.013,0.145l-0.016,0.145l-0.017,0.144l-0.02,0.143l-0.021,0.143l-0.022,0.143l-0.025,0.142l-0.026,0.141l-0.028,0.14l-0.029,0.14l-0.032,0.14l-0.033,0.139l-0.034,0.138l-0.037,0.137l-0.038,0.137l-0.039,0.136l-0.041,0.135l-0.043,0.135l-0.045,0.134l-0.046,0.133l-0.047,0.132l-0.049,0.132l-0.051,0.131l-0.106,0.26l-0.056,0.128l-0.057,0.128l-0.058,0.127l-0.06,0.126l-0.061,0.125l-0.063,0.125l-0.064,0.123l-0.066,0.123l-0.067,0.121l-0.069,0.121l-0.07,0.12l-0.071,0.119l-0.073,0.118l-0.074,0.118l-0.075,0.116l-0.077,0.115l-0.078,0.114l-0.08,0.113l-0.081,0.113l-0.082,0.111l-0.083,0.11l-0.085,0.109l-0.086,0.108l-0.087,0.107l-0.074,0.089l0.039,0.029l0.039,0.034l0.037,0.035l7.293,7.293l0.036,0.037l0.033,0.039l0.031,0.04l0.028,0.041l0.026,0.042l0.024,0.043l0.022,0.044l0.02,0.045l0.017,0.045l0.015,0.046l0.012,0.047l0.011,0.047l0.008,0.047l0.005,0.048l0.004,0.048l0.001,0.048l-0.001,0.048l-0.004,0.048l-0.005,0.048l-0.008,0.047l-0.011,0.047l-0.012,0.047l-0.015,0.046l-0.017,0.045l-0.02,0.045l-0.022,0.044l-0.024,0.043l-0.026,0.042l-0.028,0.041l-0.031,0.04l-0.033,0.039l-0.036,0.037l-0.037,0.036l-0.039,0.033l-0.04,0.031l-0.041,0.028l-0.042,0.026l-0.043,0.024l-0.044,0.022l-0.045,0.02l-0.045,0.017l-0.046,0.015l-0.047,0.012l-0.047,0.011l-0.047,0.008l-0.048,0.005l-0.048,0.004l-0.048,0.001l-0.048,-0.001l-0.048,-0.004l-0.048,-0.005l-0.047,-0.008l-0.047,-0.011l-0.047,-0.012l-0.046,-0.015l-0.045,-0.017l-0.045,-0.02l-0.044,-0.022l-0.043,-0.024l-0.042,-0.026l-0.041,-0.028l-0.04,-0.031l-0.039,-0.033l-0.037,-0.036l-7.293,-7.293l-0.035,-0.037l-0.034,-0.039l-0.029,-0.039l-0.089,0.074l-0.107,0.087l-0.108,0.086l-0.109,0.085l-0.11,0.083l-0.111,0.082l-0.113,0.081l-0.113,0.08l-0.114,0.078l-0.115,0.077l-0.116,0.075l-0.118,0.074l-0.118,0.073l-0.119,0.071l-0.12,0.07l-0.121,0.069l-0.121,0.067l-0.123,0.066l-0.123,0.064l-0.125,0.063l-0.125,0.061l-0.126,0.06l-0.127,0.058l-0.128,0.057l-0.128,0.056l-0.26,0.106l-0.131,0.051l-0.132,0.049l-0.132,0.047l-0.133,0.046l-0.134,0.045l-0.135,0.043l-0.135,0.041l-0.136,0.039l-0.137,0.038l-0.137,0.037l-0.138,0.034l-0.139,0.033l-0.14,0.032l-0.14,0.029l-0.14,0.028l-0.141,0.026l-0.142,0.025l-0.143,0.022l-0.143,0.021l-0.143,0.02l-0.144,0.017l-0.145,0.016l-0.145,0.013l-0.146,0.012l-0.146,0.011l-0.147,0.008l-0.147,0.007l-0.147,0.004l-0.148,0.003l-0.149,0.001l-0.149,-0.001l-0.148,-0.003l-0.147,-0.004l-0.147,-0.007l-0.147,-0.008l-0.146,-0.011l-0.146,-0.012l-0.145,-0.013l-0.145,-0.016l-0.144,-0.017l-0.143,-0.02l-0.143,-0.021l-0.143,-0.022l-0.142,-0.025l-0.141,-0.026l-0.14,-0.028l-0.14,-0.029l-0.14,-0.032l-0.139,-0.033l-0.138,-0.034l-0.137,-0.037l-0.137,-0.038l-0.136,-0.039l-0.135,-0.041l-0.135,-0.043l-0.134,-0.045l-0.133,-0.046l-0.132,-0.047l-0.132,-0.049l-0.131,-0.051l-0.26,-0.106l-0.128,-0.056l-0.128,-0.057l-0.127,-0.058l-0.126,-0.06l-0.125,-0.061l-0.125,-0.063l-0.123,-0.064l-0.123,-0.066l-0.121,-0.067l-0.121,-0.069l-0.12,-0.07l-0.119,-0.071l-0.118,-0.073l-0.118,-0.074l-0.116,-0.075l-0.115,-0.077l-0.114,-0.078l-0.113,-0.08l-0.113,-0.081l-0.111,-0.082l-0.11,-0.083l-0.109,-0.085l-0.108,-0.086l-0.107,-0.087l-0.106,-0.089l-0.105,-0.09l-0.104,-0.091l-0.103,-0.092l-0.101,-0.093l-0.101,-0.095l-0.099,-0.096l-0.098,-0.097l-0.097,-0.098l-0.096,-0.099l-0.095,-0.101l-0.093,-0.101l-0.092,-0.103l-0.091,-0.104l-0.09,-0.105l-0.089,-0.106l-0.087,-0.107l-0.086,-0.108l-0.085,-0.109l-0.083,-0.11l-0.082,-0.111l-0.081,-0.113l-0.08,-0.113l-0.078,-0.114l-0.077,-0.115l-0.075,-0.116l-0.074,-0.118l-0.073,-0.118l-0.071,-0.119l-0.07,-0.12l-0.069,-0.121l-0.067,-0.121l-0.066,-0.123l-0.064,-0.123l-0.063,-0.125l-0.061,-0.125l-0.06,-0.126l-0.058,-0.127l-0.057,-0.128l-0.056,-0.128l-0.106,-0.26l-0.051,-0.131l-0.049,-0.132l-0.047,-0.132l-0.046,-0.133l-0.045,-0.134l-0.043,-0.135l-0.041,-0.135l-0.039,-0.136l-0.038,-0.137l-0.037,-0.137l-0.034,-0.138l-0.033,-0.139l-0.032,-0.14l-0.029,-0.14l-0.028,-0.14l-0.026,-0.141l-0.025,-0.142l-0.022,-0.143l-0.021,-0.143l-0.02,-0.143l-0.017,-0.144l-0.016,-0.145l-0.013,-0.145l-0.012,-0.146l-0.011,-0.146l-0.008,-0.147l-0.007,-0.147l-0.004,-0.147l-0.003,-0.148l-0.001,-0.149l0.001,-0.149l0.003,-0.148l0.004,-0.147l0.007,-0.147l0.008,-0.147l0.011,-0.146l0.012,-0.146l0.013,-0.145l0.016,-0.145l0.017,-0.144l0.02,-0.143l0.021,-0.143l0.022,-0.143l0.025,-0.142l0.026,-0.141l0.028,-0.14l0.029,-0.14l0.032,-0.14l0.033,-0.139l0.034,-0.138l0.037,-0.137l0.038,-0.137l0.039,-0.136l0.041,-0.135l0.043,-0.135l0.045,-0.134l0.046,-0.133l0.047,-0.132l0.049,-0.132l0.051,-0.131l0.106,-0.26l0.056,-0.128l0.057,-0.128l0.058,-0.127l0.06,-0.126l0.061,-0.125l0.063,-0.125l0.064,-0.123l0.066,-0.123l0.067,-0.121l0.069,-0.121l0.07,-0.12l0.071,-0.119l0.073,-0.118l0.074,-0.118l0.075,-0.116l0.077,-0.115l0.078,-0.114l0.08,-0.113l0.081,-0.113l0.082,-0.111l0.083,-0.11l0.085,-0.109l0.086,-0.108l0.087,-0.107l0.089,-0.106l0.09,-0.105l0.091,-0.104l0.092,-0.103l0.093,-0.101l0.095,-0.101l0.096,-0.099l0.097,-0.098l0.098,-0.097l0.099,-0.096l0.101,-0.095l0.101,-0.093l0.103,-0.092l0.104,-0.091l0.105,-0.09l0.106,-0.089l0.107,-0.087l0.108,-0.086l0.109,-0.085l0.11,-0.083l0.111,-0.082l0.113,-0.081l0.113,-0.08l0.114,-0.078l0.115,-0.077l0.116,-0.075l0.118,-0.074l0.118,-0.073l0.119,-0.071l0.12,-0.07l0.121,-0.069l0.121,-0.067l0.123,-0.066l0.123,-0.064l0.125,-0.063l0.125,-0.061l0.126,-0.06l0.127,-0.058l0.128,-0.057l0.128,-0.056l0.26,-0.106l0.131,-0.051l0.132,-0.049l0.132,-0.047l0.133,-0.046l0.134,-0.045l0.135,-0.043l0.135,-0.041l0.136,-0.039l0.137,-0.038l0.137,-0.037l0.138,-0.034l0.139,-0.033l0.14,-0.032l0.14,-0.029l0.14,-0.028l0.141,-0.026l0.142,-0.025l0.143,-0.022l0.143,-0.021l0.143,-0.02l0.144,-0.017l0.145,-0.016l0.145,-0.013l0.146,-0.012l0.146,-0.011l0.147,-0.008l0.147,-0.007l0.147,-0.004l0.148,-0.003l0.149,-0.001l0.149,0.001Zm-0.272,2l-0.123,0.002l-0.122,0.004l-0.122,0.005l-0.121,0.007l-0.121,0.009l-0.121,0.01l-0.12,0.011l-0.119,0.013l-0.238,0.03l-0.118,0.018l-0.117,0.018l-0.118,0.021l-0.116,0.021l-0.116,0.023l-0.116,0.025l-0.115,0.025l-0.228,0.056l-0.113,0.03l-0.113,0.031l-0.112,0.033l-0.112,0.034l-0.111,0.035l-0.11,0.037l-0.11,0.038l-0.109,0.039l-0.109,0.041l-0.108,0.042l-0.107,0.043l-0.107,0.044l-0.106,0.046l-0.105,0.047l-0.105,0.048l-0.104,0.049l-0.104,0.051l-0.102,0.052l-0.102,0.053l-0.102,0.054l-0.2,0.112l-0.099,0.058l-0.098,0.059l-0.098,0.06l-0.097,0.061l-0.096,0.063l-0.095,0.063l-0.094,0.065l-0.094,0.066l-0.093,0.066l-0.092,0.068l-0.091,0.069l-0.18,0.142l-0.088,0.072l-0.088,0.073l-0.087,0.074l-0.17,0.152l-0.084,0.077l-0.084,0.079l-0.082,0.079l-0.081,0.08l-0.08,0.081l-0.079,0.082l-0.079,0.084l-0.077,0.084l-0.152,0.17l-0.074,0.087l-0.073,0.088l-0.072,0.088l-0.142,0.18l-0.069,0.091l-0.068,0.092l-0.066,0.093l-0.066,0.094l-0.065,0.094l-0.063,0.095l-0.063,0.096l-0.061,0.097l-0.06,0.098l-0.059,0.098l-0.058,0.099l-0.112,0.2l-0.054,0.102l-0.053,0.102l-0.052,0.102l-0.051,0.104l-0.049,0.104l-0.048,0.105l-0.047,0.105l-0.046,0.106l-0.044,0.107l-0.043,0.107l-0.042,0.108l-0.041,0.109l-0.039,0.109l-0.038,0.11l-0.037,0.11l-0.035,0.111l-0.034,0.112l-0.033,0.112l-0.031,0.113l-0.03,0.113l-0.056,0.228l-0.025,0.115l-0.025,0.116l-0.023,0.116l-0.021,0.116l-0.021,0.118l-0.018,0.117l-0.018,0.118l-0.03,0.238l-0.013,0.119l-0.011,0.12l-0.01,0.121l-0.009,0.121l-0.007,0.121l-0.005,0.122l-0.004,0.122l-0.002,0.123l-0.001,0.123l0.001,0.123l0.002,0.123l0.004,0.122l0.005,0.122l0.007,0.121l0.009,0.121l0.01,0.121l0.011,0.12l0.013,0.119l0.03,0.238l0.018,0.118l0.018,0.117l0.021,0.118l0.021,0.116l0.023,0.116l0.025,0.116l0.025,0.115l0.056,0.228l0.03,0.113l0.031,0.113l0.033,0.112l0.034,0.112l0.035,0.111l0.037,0.11l0.038,0.11l0.039,0.109l0.041,0.109l0.042,0.108l0.043,0.107l0.044,0.107l0.046,0.106l0.047,0.105l0.048,0.105l0.049,0.104l0.051,0.104l0.052,0.102l0.053,0.102l0.054,0.102l0.112,0.2l0.058,0.099l0.059,0.098l0.06,0.098l0.061,0.097l0.063,0.096l0.063,0.095l0.065,0.094l0.066,0.094l0.066,0.093l0.068,0.092l0.069,0.091l0.142,0.18l0.072,0.088l0.073,0.088l0.074,0.087l0.152,0.17l0.077,0.084l0.079,0.084l0.079,0.082l0.08,0.081l0.081,0.08l0.082,0.079l0.084,0.079l0.084,0.077l0.17,0.152l0.087,0.074l0.088,0.073l0.088,0.072l0.18,0.142l0.091,0.069l0.092,0.068l0.093,0.066l0.094,0.066l0.094,0.065l0.095,0.063l0.096,0.063l0.097,0.061l0.098,0.06l0.098,0.059l0.099,0.058l0.2,0.112l0.102,0.054l0.102,0.053l0.102,0.052l0.104,0.051l0.104,0.049l0.105,0.048l0.105,0.047l0.106,0.046l0.107,0.044l0.107,0.043l0.108,0.042l0.109,0.041l0.109,0.039l0.11,0.038l0.11,0.037l0.111,0.035l0.112,0.034l0.112,0.033l0.113,0.031l0.113,0.03l0.228,0.056l0.115,0.025l0.116,0.025l0.116,0.023l0.116,0.021l0.118,0.021l0.117,0.018l0.118,0.018l0.238,0.03l0.119,0.013l0.12,0.011l0.121,0.01l0.121,0.009l0.121,0.007l0.122,0.005l0.122,0.004l0.123,0.002l0.123,0.001l0.123,-0.001l0.123,-0.002l0.122,-0.004l0.122,-0.005l0.121,-0.007l0.121,-0.009l0.121,-0.01l0.12,-0.011l0.119,-0.013l0.238,-0.03l0.118,-0.018l0.117,-0.018l0.118,-0.021l0.116,-0.021l0.116,-0.023l0.116,-0.025l0.115,-0.025l0.228,-0.056l0.113,-0.03l0.113,-0.031l0.112,-0.033l0.112,-0.034l0.111,-0.035l0.11,-0.037l0.11,-0.038l0.109,-0.039l0.109,-0.041l0.108,-0.042l0.107,-0.043l0.107,-0.044l0.106,-0.046l0.105,-0.047l0.105,-0.048l0.104,-0.049l0.104,-0.051l0.102,-0.052l0.102,-0.053l0.102,-0.054l0.2,-0.112l0.099,-0.058l0.098,-0.059l0.098,-0.06l0.097,-0.061l0.096,-0.063l0.095,-0.063l0.094,-0.065l0.094,-0.066l0.093,-0.066l0.092,-0.068l0.091,-0.069l0.18,-0.142l0.088,-0.072l0.088,-0.073l0.087,-0.074l0.17,-0.152l0.084,-0.077l0.084,-0.079l0.082,-0.079l0.081,-0.08l0.08,-0.081l0.079,-0.082l0.079,-0.084l0.077,-0.084l0.152,-0.17l0.074,-0.087l0.073,-0.088l0.072,-0.088l0.142,-0.18l0.069,-0.091l0.068,-0.092l0.066,-0.093l0.066,-0.094l0.065,-0.094l0.063,-0.095l0.063,-0.096l0.061,-0.097l0.06,-0.098l0.059,-0.098l0.058,-0.099l0.112,-0.2l0.054,-0.102l0.053,-0.102l0.052,-0.102l0.051,-0.104l0.049,-0.104l0.048,-0.105l0.047,-0.105l0.046,-0.106l0.044,-0.107l0.043,-0.107l0.042,-0.108l0.041,-0.109l0.039,-0.109l0.038,-0.11l0.037,-0.11l0.035,-0.111l0.034,-0.112l0.033,-0.112l0.031,-0.113l0.03,-0.113l0.056,-0.228l0.025,-0.115l0.025,-0.116l0.023,-0.116l0.021,-0.116l0.021,-0.118l0.018,-0.117l0.018,-0.118l0.03,-0.238l0.013,-0.119l0.011,-0.12l0.01,-0.121l0.009,-0.121l0.007,-0.121l0.005,-0.122l0.004,-0.122l0.002,-0.123l0.001,-0.123l-0.001,-0.123l-0.002,-0.123l-0.004,-0.122l-0.005,-0.122l-0.007,-0.121l-0.009,-0.121l-0.01,-0.121l-0.011,-0.12l-0.013,-0.119l-0.03,-0.238l-0.018,-0.118l-0.018,-0.117l-0.021,-0.118l-0.021,-0.116l-0.023,-0.116l-0.025,-0.116l-0.025,-0.115l-0.056,-0.228l-0.03,-0.113l-0.031,-0.113l-0.033,-0.112l-0.034,-0.112l-0.035,-0.111l-0.037,-0.11l-0.038,-0.11l-0.039,-0.109l-0.041,-0.109l-0.042,-0.108l-0.043,-0.107l-0.044,-0.107l-0.046,-0.106l-0.047,-0.105l-0.048,-0.105l-0.049,-0.104l-0.051,-0.104l-0.052,-0.102l-0.053,-0.102l-0.054,-0.102l-0.112,-0.2l-0.058,-0.099l-0.059,-0.098l-0.06,-0.098l-0.061,-0.097l-0.063,-0.096l-0.063,-0.095l-0.065,-0.094l-0.066,-0.094l-0.066,-0.093l-0.068,-0.092l-0.069,-0.091l-0.142,-0.18l-0.072,-0.088l-0.073,-0.088l-0.074,-0.087l-0.152,-0.17l-0.077,-0.084l-0.079,-0.084l-0.079,-0.082l-0.08,-0.081l-0.081,-0.08l-0.082,-0.079l-0.084,-0.079l-0.084,-0.077l-0.17,-0.152l-0.087,-0.074l-0.088,-0.073l-0.088,-0.072l-0.18,-0.142l-0.091,-0.069l-0.092,-0.068l-0.093,-0.066l-0.094,-0.066l-0.094,-0.065l-0.095,-0.063l-0.096,-0.063l-0.097,-0.061l-0.098,-0.06l-0.098,-0.059l-0.099,-0.058l-0.2,-0.112l-0.102,-0.054l-0.102,-0.053l-0.102,-0.052l-0.104,-0.051l-0.104,-0.049l-0.105,-0.048l-0.105,-0.047l-0.106,-0.046l-0.107,-0.044l-0.107,-0.043l-0.108,-0.042l-0.109,-0.041l-0.109,-0.039l-0.11,-0.038l-0.11,-0.037l-0.111,-0.035l-0.112,-0.034l-0.112,-0.033l-0.113,-0.031l-0.113,-0.03l-0.228,-0.056l-0.115,-0.025l-0.116,-0.025l-0.116,-0.023l-0.116,-0.021l-0.118,-0.021l-0.117,-0.018l-0.118,-0.018l-0.238,-0.03l-0.119,-0.013l-0.12,-0.011l-0.121,-0.01l-0.121,-0.009l-0.121,-0.007l-0.122,-0.005l-0.122,-0.004l-0.123,-0.002l-0.123,-0.001l-0.123,0.001Z"/></svg>