<?xml version="1.0" encoding="UTF-8" standalone="no"?>
<!DOCTYPE svg PUBLIC "-//W3C//DTD SVG 1.1//EN" "http://www.w3.org/Graphics/SVG/1.1/DTD/svg11.dtd">
<svg width="100%" height="100%" viewBox="0 0 100 100" version="1.1" xmlns="http://www.w3.org/2000/svg" xmlnsXlink="http://www.w3.org/1999/xlink" xmlSpace="preserve" xmlnsSerif="http://www.serif.com/" style="fill-rule:evenodd;clip-rule:evenodd;stroke-linejoin:round;stroke-miterlimit:2;">
    <g transform="matrix(116.667,0,0,116.667,0,91.6667)">
        <path d="M0.53,-0.256C0.557,-0.284 0.571,-0.318 0.571,-0.357C0.571,-0.397 0.557,-0.43 0.53,-0.458C0.502,-0.486 0.468,-0.5 0.429,-0.5C0.389,-0.5 0.355,-0.486 0.328,-0.458C0.3,-0.43 0.286,-0.397 0.286,-0.357C0.286,-0.318 0.3,-0.284 0.328,-0.256C0.355,-0.228 0.389,-0.214 0.429,-0.214C0.468,-0.214 0.502,-0.228 0.53,-0.256ZM0.857,-0.418L0.857,-0.294C0.857,-0.29 0.856,-0.285 0.853,-0.281C0.85,-0.277 0.846,-0.275 0.842,-0.274L0.738,-0.258C0.731,-0.238 0.724,-0.221 0.717,-0.208C0.73,-0.189 0.749,-0.163 0.776,-0.131C0.78,-0.126 0.782,-0.121 0.782,-0.117C0.782,-0.112 0.78,-0.108 0.777,-0.104C0.767,-0.09 0.748,-0.07 0.722,-0.044C0.695,-0.017 0.677,-0.004 0.669,-0.004C0.665,-0.004 0.66,-0.006 0.655,-0.009L0.578,-0.069C0.561,-0.061 0.544,-0.054 0.527,-0.048C0.521,0.003 0.515,0.037 0.511,0.056C0.508,0.066 0.501,0.071 0.491,0.071L0.367,0.071C0.361,0.071 0.357,0.07 0.353,0.067C0.349,0.064 0.347,0.06 0.347,0.055L0.331,-0.048C0.313,-0.054 0.296,-0.061 0.281,-0.069L0.202,-0.009C0.198,-0.006 0.194,-0.004 0.188,-0.004C0.183,-0.004 0.178,-0.006 0.174,-0.01C0.127,-0.052 0.097,-0.084 0.082,-0.104C0.079,-0.108 0.078,-0.112 0.078,-0.117C0.078,-0.121 0.08,-0.125 0.083,-0.129C0.088,-0.137 0.098,-0.15 0.111,-0.167C0.124,-0.184 0.134,-0.197 0.141,-0.206C0.131,-0.225 0.124,-0.243 0.118,-0.261L0.016,-0.276C0.011,-0.277 0.007,-0.279 0.004,-0.283C0.001,-0.287 0,-0.291 0,-0.296L0,-0.42C0,-0.425 0.001,-0.429 0.004,-0.433C0.007,-0.437 0.011,-0.44 0.015,-0.44L0.119,-0.456C0.124,-0.473 0.131,-0.49 0.141,-0.507C0.126,-0.528 0.106,-0.554 0.081,-0.584C0.077,-0.589 0.075,-0.593 0.075,-0.598C0.075,-0.601 0.077,-0.606 0.08,-0.61C0.09,-0.624 0.108,-0.644 0.135,-0.67C0.162,-0.697 0.18,-0.71 0.188,-0.71C0.193,-0.71 0.198,-0.709 0.203,-0.705L0.28,-0.645C0.296,-0.654 0.313,-0.661 0.33,-0.666C0.336,-0.717 0.342,-0.751 0.347,-0.77C0.349,-0.781 0.356,-0.786 0.367,-0.786L0.491,-0.786C0.496,-0.786 0.5,-0.784 0.504,-0.781C0.508,-0.778 0.51,-0.774 0.511,-0.769L0.526,-0.666C0.544,-0.66 0.561,-0.653 0.576,-0.646L0.656,-0.705C0.659,-0.709 0.664,-0.71 0.669,-0.71C0.674,-0.71 0.679,-0.709 0.683,-0.705C0.731,-0.661 0.762,-0.629 0.775,-0.61C0.778,-0.607 0.779,-0.603 0.779,-0.598C0.779,-0.593 0.778,-0.589 0.775,-0.585C0.769,-0.577 0.759,-0.565 0.746,-0.548C0.733,-0.531 0.723,-0.518 0.716,-0.508C0.726,-0.49 0.733,-0.472 0.739,-0.454L0.841,-0.438C0.846,-0.437 0.85,-0.435 0.853,-0.431C0.856,-0.427 0.857,-0.423 0.857,-0.418Z" style="fill-rule:nonzero;"/>
    </g>
</svg>
