<?xml version="1.0" encoding="UTF-8" standalone="no"?>
<!DOCTYPE svg PUBLIC "-//W3C//DTD SVG 1.1//EN" "http://www.w3.org/Graphics/SVG/1.1/DTD/svg11.dtd">
<svg width="100%" height="100%" viewBox="0 0 678 141" version="1.1" xmlns="http://www.w3.org/2000/svg" xmlnsXlink="http://www.w3.org/1999/xlink" xml:space="preserve" xmlnsSerif="http://www.serif.com/" style="fill-rule:evenodd;clip-rule:evenodd;stroke-linejoin:round;stroke-miterlimit:2;">
    <g transform="matrix(1,0,0,1,-261.172,-440.452)">
        <g transform="matrix(1.08528,0,0,1.08528,-195.415,276.01)">
            <g transform="matrix(1.19835,0,0,1.19835,-458.976,-18.4095)">
                <path d="M1107.39,222.689C1109.09,222.193 1111.52,221.277 1112.51,220.235C1114.9,200.938 1118.46,189.638 1125.37,189.485C1127.87,189.43 1129.62,190.963 1129.62,193.782C1129.62,198.01 1126.17,206.76 1119.31,217.591C1119.21,218.244 1119.1,218.951 1119.05,219.602C1118.68,222.429 1120.06,223.483 1121.92,223.442C1124.36,223.387 1127.73,221.459 1129.36,219.075C1129.36,218.994 1129.35,218.913 1129.35,218.832C1129.35,211.784 1133.92,200.408 1142.69,200.213C1147.52,200.106 1148.74,202.843 1148.74,205.283C1148.74,209.89 1146.35,213.63 1136.1,219.657C1136.63,222.573 1138.6,223.613 1141.04,223.559C1144.87,223.474 1149.75,220.601 1152.04,217.461C1153.42,217.159 1153.95,218.286 1153.37,219.274C1149.7,224.831 1143.54,228.22 1138.38,228.334C1134.4,228.423 1131.03,226.565 1129.82,222.424C1127.1,226.05 1122.19,228.694 1118.25,228.781C1115.54,228.841 1113.26,227.645 1112.57,224.788C1109.82,226.084 1103.24,228.1 1099.78,228.748C1098.76,229.072 1097.69,229.26 1096.57,229.285C1095.29,229.313 1093.96,228.855 1092.9,227.957L1089.24,246.035C1088.71,248.54 1086.85,249.503 1084.93,249.546C1083.98,249.567 1083.08,249.316 1082.44,248.896L1087.14,225.938C1084.86,228.023 1082.08,229.606 1079.3,229.668C1076.65,229.727 1073.83,228.434 1075.16,222.062L1077.39,211.225C1077.82,209.481 1077.87,208.017 1076.12,208.056C1074.31,208.096 1072.88,209.103 1071.49,210.652L1068.2,226.499C1067.67,229.005 1065.65,229.971 1063.74,230.013C1062.78,230.035 1061.88,229.784 1061.24,229.364L1064.96,211.501C1065.33,209.759 1065.44,208.293 1063.68,208.331C1061.77,208.374 1060.23,209.492 1058.8,211.259L1055.56,226.78C1055.03,229.285 1053.01,230.252 1051.1,230.294C1050.14,230.315 1049.24,230.064 1048.6,229.645L1049.18,226.852C1046.92,228.901 1044.17,230.448 1041.43,230.509C1038.77,230.568 1035.69,229.118 1036.7,224.163L1039.78,209.025C1039.94,208.154 1039.73,207.671 1039.25,207.681C1038.98,207.687 1038.66,207.911 1038.19,208.355C1037.5,207.937 1037.12,206.265 1038.19,205.374C1039.99,203.87 1041.9,202.689 1044.14,202.64C1046.05,202.597 1047.11,203.495 1046.69,205.565L1043.45,221.303C1042.81,224.353 1043.66,225.309 1045.04,225.279C1046.71,225.242 1048.62,224.214 1049.97,223.054L1052.95,208.732C1053.17,207.86 1052.9,207.378 1052.42,207.389C1052.16,207.395 1051.84,207.619 1051.36,208.063C1050.67,207.645 1050.3,205.972 1051.36,205.082C1053.17,203.578 1055.08,202.397 1057.31,202.347C1059.22,202.305 1060.34,203.202 1059.86,205.272L1059.33,207.723C1061.51,204.477 1064.16,202.195 1067.19,202.128C1069.37,202.08 1071.81,203.76 1071.65,207.613C1073.88,204.311 1076.54,201.921 1079.62,201.852C1082.01,201.799 1085.46,203.349 1084.08,209.722L1081.48,222.247C1081.16,223.826 1081.85,224.462 1082.92,224.438C1084.62,224.4 1086.56,223.341 1087.91,222.159L1090.83,207.892C1091.04,207.019 1090.78,206.537 1090.3,206.548C1090.03,206.554 1089.71,206.778 1089.24,207.222C1088.55,206.804 1088.17,205.132 1089.24,204.241C1091.04,202.737 1092.96,201.556 1095.19,201.507C1097.1,201.464 1098.21,202.361 1097.74,204.432L1097.47,205.738C1099.54,203.09 1102.04,201.355 1104.7,201.296C1109.37,201.192 1111.44,205.157 1111.44,210.09C1111.44,214.166 1109.99,218.928 1107.39,222.689ZM917.431,228.344C914.634,231.265 911.657,233.389 908.727,233.454C905.805,233.519 902.671,232.125 903.415,227.122L906.974,202.541L895.393,230.552C894.437,233.067 892.843,233.807 890.878,233.851C889.922,233.872 888.965,233.622 888.328,233.202L890.24,209.146L890.506,202.798C883.334,226.321 877.757,234.142 871.435,234.282C868.779,234.341 866.866,231.782 866.866,226.957C866.866,223.813 868.991,222.844 871.382,222.791C872.338,222.77 873.294,223.074 874.038,223.654C873.135,225.788 872.922,228.015 872.922,229.262L872.922,229.75C877.119,228.031 882.484,221.244 890.24,194.618L889.975,194.624C885.141,194.731 883.388,197.535 883.388,200.083C883.388,201.275 883.813,202.458 884.45,203.203C883.653,203.6 882.909,203.779 882.166,203.796C879.456,203.856 877.863,201.452 877.863,198.742C877.863,195.327 880.413,191.367 886.681,191.228C891.09,191.13 895.606,193.415 897.89,192.063C898.421,192.377 898.634,192.914 898.634,193.456C898.634,194.486 897.996,195.584 896.774,195.612L896.721,195.613L894.809,224.494L907.133,195.869C908.09,193.409 909.736,192.342 911.702,192.299C912.658,192.278 913.986,192.519 914.624,192.939L910.268,224.259C909.843,227.467 910.586,228.263 912.021,228.232C913.513,228.198 915.621,226.898 916.939,225.828C916.879,225.245 916.855,224.682 916.855,224.167C916.855,214.681 922.858,205.115 930.242,204.951C932.632,204.898 934.385,205.456 935.713,206.619C936.616,205.515 937.997,204.996 939.326,204.967C940.282,204.945 941.185,205.196 941.822,205.616L938.104,223.641C937.466,226.691 938.316,227.648 939.697,227.617C941.437,227.579 943.426,226.473 944.781,225.26C944.717,224.658 944.691,224.079 944.691,223.549C944.691,214.063 950.694,204.497 958.078,204.333C960.256,204.285 961.903,204.736 963.178,205.738L964.506,199.366C964.824,197.896 963.815,197.593 962.965,198.642C962.221,197.953 962.168,197.412 962.168,196.979C962.168,195.732 965.993,193.045 968.862,192.981C970.774,192.939 971.836,193.837 971.412,195.906L965.834,223.026C965.196,226.075 966.046,227.032 967.427,227.002C969.165,226.963 971.152,225.86 972.507,224.648C972.415,223.939 972.368,223.17 972.368,222.338C972.368,215.291 976.936,203.915 985.701,203.72C990.536,203.613 991.757,206.35 991.757,208.79C991.757,213.397 989.367,217.137 979.114,223.164C979.645,225.917 981.452,227.124 983.736,227.073C986.073,227.021 987.773,225.845 988.676,223.874C989.686,223.851 990.27,224.38 990.27,225.302C990.27,228.283 985.383,231.753 980.708,231.857C977.12,231.936 974.306,230.597 973.062,227.07C970.569,229.821 966.971,232.161 964.24,232.222C961.743,232.278 959.353,231.138 959.406,226.854C957.175,230.102 954.359,232.441 951.331,232.509C947.79,232.587 946.06,230.309 945.274,227.749C942.784,230.473 939.22,232.777 936.51,232.838C934.013,232.893 931.517,231.756 931.57,227.472C929.339,230.72 926.523,233.059 923.495,233.127C919.943,233.205 918.213,230.913 917.431,228.344ZM1026.92,188.657C1020.44,188.801 1015.72,193.405 1015.72,199.476C1015.72,209.45 1026.34,210.407 1026.34,219.135C1026.34,223.146 1024.27,226.716 1019.91,226.812C1016.25,226.894 1014.33,224.063 1014.33,221.19C1014.33,218.1 1016.94,215.657 1020.44,216.772C1020.71,216.116 1020.82,215.571 1020.82,215.029C1020.82,212.969 1019.06,211.707 1017.31,211.746C1011.78,211.869 1008.86,216.324 1008.86,220.932C1008.86,225.973 1012.32,231.155 1019.7,230.991C1027.67,230.814 1033.72,225.747 1033.72,217.345C1033.72,208.021 1022.62,206.099 1022.62,198.347C1022.62,194.878 1024.32,191.75 1027.62,191.677C1029.85,191.628 1030.86,193.286 1030.86,195.075C1030.86,196.863 1029.85,198.837 1028.15,199.417C1028.73,200.922 1030.38,201.536 1031.23,201.517C1033.94,201.457 1035.53,198.928 1035.53,196.109C1035.53,192.531 1032.98,188.522 1026.92,188.657ZM931.676,223.946C930.242,225.984 928.01,227.443 926.311,227.481C924.664,227.517 923.442,226.352 923.442,223.641C923.442,217.733 925.726,209.117 932.154,208.974C932.951,208.957 933.748,209.047 934.651,209.353L931.676,223.946ZM959.512,223.329C958.078,225.366 955.847,226.825 954.147,226.863C952.5,226.899 951.278,225.734 951.278,223.023C951.278,217.115 953.562,208.499 959.99,208.357C960.787,208.339 961.637,208.483 962.54,208.788L959.512,223.383L959.512,223.329ZM1101.77,206.781C1103.58,206.741 1104.91,208.392 1104.91,212.187C1104.91,217.553 1101.67,224.997 1096.25,225.118C1095.4,225.137 1094.55,225.101 1093.59,224.58L1096.52,210.367C1098.27,208.106 1100.18,206.817 1101.77,206.781ZM986.073,207.94C986.976,207.92 987.614,208.773 987.614,210.02C987.614,213.544 984.108,217.416 978.955,220.837C979.114,217.039 980.814,208.057 986.073,207.94ZM1143.06,204.433C1143.96,204.413 1144.6,205.266 1144.6,206.513C1144.6,210.037 1141.09,213.909 1135.94,217.33C1136.1,213.532 1137.8,204.55 1143.06,204.433ZM1125.74,193.055C1126.33,193.042 1126.64,193.306 1126.64,194.227C1126.64,196.07 1124.68,203.811 1120,212.751C1121.81,201.273 1123.99,193.093 1125.74,193.055ZM1041.53,195.705C1041.21,197.826 1042.76,199.472 1044.83,199.426C1046.9,199.38 1048.65,197.661 1048.97,195.54C1049.18,193.421 1047.64,191.775 1045.57,191.821C1043.5,191.867 1041.75,193.586 1041.53,195.705Z" style="fill:rgb(246,26,48);"/>
            </g>
            <g transform="matrix(1,0,0,1,-210,0)">
                <path d="M673.466,173.234C671.677,172.139 669.828,171.166 667.92,170.314C666.31,169.584 664.506,168.9 662.508,168.261C660.51,167.623 658.557,167.303 656.649,167.303C655.098,167.303 653.861,167.547 652.937,168.033C652.012,168.52 651.55,169.341 651.55,170.497C651.55,171.348 651.819,172.048 652.355,172.595C652.892,173.142 653.667,173.644 654.681,174.1C655.695,174.557 656.932,174.998 658.393,175.423C659.854,175.849 661.509,176.366 663.358,176.974C666.28,177.887 668.919,178.89 671.274,179.985C673.63,181.08 675.642,182.372 677.312,183.862C678.982,185.353 680.264,187.162 681.158,189.291C682.053,191.42 682.5,194.004 682.5,197.046C682.5,200.938 681.8,204.207 680.398,206.853C678.997,209.499 677.148,211.613 674.852,213.194C672.556,214.775 669.962,215.916 667.07,216.615C664.178,217.315 661.271,217.664 658.348,217.664C656.023,217.664 653.637,217.482 651.192,217.117C648.747,216.752 646.317,216.235 643.902,215.566C641.487,214.897 639.161,214.106 636.925,213.194C634.689,212.282 632.616,211.248 630.708,210.092L638.222,194.491C640.309,195.829 642.486,197.015 644.752,198.049C646.66,198.962 648.822,199.783 651.237,200.512C653.652,201.242 656.112,201.607 658.617,201.607C660.525,201.607 661.852,201.349 662.597,200.832C663.343,200.315 663.716,199.631 663.716,198.779C663.716,197.867 663.343,197.091 662.597,196.453C661.852,195.814 660.823,195.251 659.511,194.765C658.199,194.278 656.694,193.792 654.994,193.305C653.295,192.818 651.491,192.241 649.582,191.572C646.78,190.598 644.364,189.549 642.337,188.424C640.309,187.299 638.639,186.022 637.328,184.592C636.016,183.163 635.047,181.536 634.42,179.711C633.794,177.887 633.481,175.788 633.481,173.416C633.481,169.828 634.122,166.665 635.404,163.928C636.686,161.191 638.431,158.91 640.637,157.085C642.844,155.261 645.363,153.877 648.196,152.934C651.028,151.991 654.025,151.52 657.186,151.52C659.511,151.52 661.777,151.748 663.984,152.204C666.19,152.661 668.322,153.238 670.38,153.938C672.437,154.637 674.36,155.398 676.149,156.219C677.938,157.04 679.548,157.815 680.98,158.545L673.466,173.234ZM763.543,216.843L749.141,216.843L749.141,211.46C744.609,215.353 739.391,217.299 733.487,217.299C729.372,217.299 725.437,216.554 721.68,215.064C717.923,213.574 714.643,211.4 711.84,208.541C709.037,205.682 706.801,202.185 705.131,198.049C703.462,193.913 702.627,189.2 702.627,183.908C702.627,179.346 703.462,175.104 705.131,171.181C706.801,167.258 709.097,163.852 712.019,160.963C714.941,158.074 718.385,155.793 722.351,154.12C726.316,152.448 730.595,151.611 735.187,151.611C738.049,151.611 740.792,151.931 743.416,152.569C746.04,153.208 748.47,154.151 750.706,155.398C752.943,156.644 754.955,158.135 756.744,159.868C758.533,161.601 759.994,163.563 761.127,165.753L748.157,175.879C746.905,173.325 745.026,171.272 742.522,169.721C740.017,168.17 737.363,167.395 734.561,167.395C732.473,167.395 730.565,167.82 728.836,168.672C727.106,169.523 725.615,170.71 724.363,172.23C723.111,173.751 722.127,175.56 721.411,177.658C720.696,179.757 720.338,182.053 720.338,184.547C720.338,187.101 720.696,189.412 721.411,191.48C722.127,193.548 723.126,195.327 724.408,196.818C725.69,198.308 727.226,199.463 729.015,200.284C730.804,201.105 732.801,201.516 735.008,201.516C740.077,201.516 744.549,199.387 748.425,195.13L737.423,195.13L737.423,182.357L763.543,182.357L763.543,216.843ZM1255.11,216.843L1240.71,216.843L1240.71,211.46C1236.18,215.353 1230.96,217.299 1225.06,217.299C1220.94,217.299 1217.01,216.554 1213.25,215.064C1209.49,213.574 1206.21,211.4 1203.41,208.541C1200.61,205.682 1198.37,202.185 1196.7,198.049C1195.03,193.913 1194.2,189.2 1194.2,183.908C1194.2,179.346 1195.03,175.104 1196.7,171.181C1198.37,167.258 1200.67,163.852 1203.59,160.963C1206.51,158.074 1209.96,155.793 1213.92,154.12C1217.89,152.448 1222.17,151.611 1226.76,151.611C1229.62,151.611 1232.36,151.931 1234.99,152.569C1237.61,153.208 1240.04,154.151 1242.28,155.398C1244.51,156.644 1246.53,158.135 1248.32,159.868C1250.11,161.601 1251.57,163.563 1252.7,165.753L1239.73,175.879C1238.48,173.325 1236.6,171.272 1234.09,169.721C1231.59,168.17 1228.93,167.395 1226.13,167.395C1224.05,167.395 1222.14,167.82 1220.41,168.672C1218.68,169.523 1217.19,170.71 1215.93,172.23C1214.68,173.751 1213.7,175.56 1212.98,177.658C1212.27,179.757 1211.91,182.053 1211.91,184.547C1211.91,187.101 1212.27,189.412 1212.98,191.48C1213.7,193.548 1214.7,195.327 1215.98,196.818C1217.26,198.308 1218.8,199.463 1220.59,200.284C1222.38,201.105 1224.37,201.516 1226.58,201.516C1231.65,201.516 1236.12,199.387 1240,195.13L1229,195.13L1229,182.357L1255.11,182.357L1255.11,216.843ZM901.634,216.843L892.928,216.843L892.928,152.067L922.089,152.067C925.19,152.067 928.052,152.721 930.676,154.029C933.3,155.337 935.551,157.04 937.43,159.138C939.308,161.236 940.784,163.639 941.858,166.346C942.931,169.052 943.468,171.774 943.468,174.511C943.468,178.282 942.663,181.794 941.053,185.048C939.442,188.302 937.206,190.963 934.344,193.031L947.761,216.843L928.082,216.843L916.901,196.954L910.371,196.954L910.371,210.54C910.315,210.55 910.26,210.562 910.204,210.574C906.904,211.288 902.375,213.342 901.634,216.843ZM1055.73,216.843L1038.02,216.843L1034.17,204.162L1017.26,204.162L1013.51,216.843L1010.45,216.843C1010.5,216.614 1010.54,216.346 1010.57,215.985C1010.97,210.79 1005.06,207.656 1000.91,209.706C998.176,211.056 996.854,214.051 996.914,216.843L995.707,216.843L1017.8,152.067L1033.72,152.067L1055.73,216.843ZM1152.96,216.843L1135.52,216.843L1135.52,152.067L1149.12,152.067L1174.61,185.003L1174.61,152.067L1192.05,152.067L1192.05,216.843L1178.19,216.843L1152.96,185.003L1152.96,216.843ZM1080.95,216.843L1056.53,216.843L1056.53,152.067L1080.95,152.067C1086.2,152.067 1090.82,152.919 1094.82,154.622C1098.81,156.325 1102.15,158.636 1104.84,161.556C1107.52,164.475 1109.55,167.897 1110.92,171.82C1112.29,175.743 1112.98,179.924 1112.98,184.364C1112.98,189.291 1112.22,193.746 1110.7,197.73C1109.17,201.714 1107.01,205.12 1104.21,207.948L1104.2,207.956C1102.97,206.735 1101.33,206.099 1099.43,206.165C1093.77,206.362 1090.33,211.098 1088.11,216.216C1085.85,216.634 1083.46,216.843 1080.95,216.843ZM783.311,216.843L765.868,216.843L765.868,152.067L783.311,152.067L783.311,175.971L804.601,175.971L804.601,152.067L822.043,152.067L822.043,209.629C819.447,209.231 816.767,208.284 814.104,208.247C812.429,208.236 810.742,208.423 809.125,208.89C807.414,209.383 805.881,210.247 804.601,211.361L804.601,191.48L783.311,191.48L783.311,216.843ZM701.374,216.843L683.931,216.843L683.931,152.067L701.374,152.067L701.374,216.843ZM994.186,167.577L967.172,167.577L967.172,176.701L990.25,176.701L990.25,191.115L967.172,191.115L967.172,201.334L994.991,201.334L994.991,216.843L994.34,216.843C994.386,214.463 993.769,212.03 992.493,210.164C990.275,206.918 986.215,205.226 982.172,205.165C975.462,205.136 969.127,208.957 966.773,214.939C966.527,215.565 966.328,216.201 966.173,216.843L949.729,216.843L949.729,152.067L994.186,152.067L994.186,167.577ZM1132.66,216.843L1115.21,216.843L1115.21,152.067L1132.66,152.067L1132.66,216.843ZM877.95,167.577L859.702,167.577L859.702,216.843L849.026,216.843C849.2,215.61 849.373,214.377 849.544,213.144C849.496,212.209 849.493,212.198 849.103,211.347L848.421,210.697C846.554,209.496 844.329,209.24 842.259,209.705L842.259,167.577L823.922,167.577L823.922,152.067L877.95,152.067L877.95,167.577ZM1080.95,167.577L1073.98,167.577L1073.98,201.334L1080.95,201.334C1083.22,201.334 1085.25,200.908 1087.04,200.056C1088.83,199.205 1090.33,198.019 1091.55,196.498C1092.78,194.978 1093.7,193.183 1094.33,191.115C1094.95,189.047 1095.27,186.797 1095.27,184.364C1095.27,181.87 1094.94,179.59 1094.28,177.522C1093.63,175.454 1092.69,173.69 1091.46,172.23C1090.24,170.77 1088.74,169.63 1086.95,168.809C1085.16,167.988 1083.16,167.577 1080.95,167.577ZM1031.4,192.301L1025.76,172.23L1019.86,192.301L1031.4,192.301ZM920.926,167.577L910.371,167.577L910.371,181.445L921.373,181.445C922.447,181.445 923.446,180.836 924.37,179.62C925.294,178.404 925.756,176.701 925.756,174.511C925.756,172.261 925.22,170.542 924.146,169.356C923.073,168.17 922,167.577 920.926,167.577Z" style="fill:white;fill-rule:nonzero;"/>
            </g>
            <g transform="matrix(1.19835,0,0,1.19835,-454.31,-14.5783)">
                <circle cx="848.264" cy="212.754" r="3.893" style="fill:rgb(246,26,48);"/>
            </g>
            <g transform="matrix(0.813722,0,0,0.813722,-141.865,67.2539)">
                <circle cx="848.264" cy="212.754" r="3.893" style="fill:rgb(246,26,48);"/>
            </g>
            <g transform="matrix(-1.19835,-1.46756e-16,1.46756e-16,-1.19835,1959.71,495.331)">
                <circle cx="848.264" cy="212.754" r="3.893" style="fill:rgb(246,26,48);"/>
            </g>
            <g transform="matrix(-0.813722,-9.96522e-17,9.96522e-17,-0.813722,1647.27,413.499)">
                <circle cx="848.264" cy="212.754" r="3.893" style="fill:rgb(246,26,48);"/>
            </g>
        </g>
    </g>
</svg>
