<?xml version="1.0" encoding="UTF-8" standalone="no"?>
<!DOCTYPE svg PUBLIC "-//W3C//DTD SVG 1.1//EN" "http://www.w3.org/Graphics/SVG/1.1/DTD/svg11.dtd">
<svg 
    width="100%" 
    height="100%" 
    viewBox="0 0 100 100" 
    version="1.1" 
    xmlns="http://www.w3.org/2000/svg" 
    xmlnsXlink="http://www.w3.org/1999/xlink" 
    xml:space="preserve" 
    xmlnsSerif="http://www.serif.com/" 
    style="fill-rule:evenodd;clip-rule:evenodd;stroke-linejoin:round;stroke-miterlimit:2;"
>
    <path id="subscribe" d="M62.563,12.5L62.563,6.339C62.563,2.84 65.403,0 68.902,0C72.4,0 75.241,2.84 75.241,6.339L75.241,12.5L84.571,12.5C89.777,12.5 94,16.699 94,21.875L94,90.625C94,95.801 89.777,100 84.571,100L15.429,100C10.223,100 6,95.801 6,90.625L6,21.875C6,16.699 10.223,12.5 15.429,12.5L24.769,12.5L24.769,6.339C24.769,2.84 27.609,0 31.108,0C34.606,0 37.446,2.84 37.446,6.339L37.446,12.5L62.563,12.5ZM84.571,31.25L15.429,31.25L15.429,89.453C15.429,90.098 15.959,90.625 16.607,90.625L83.393,90.625C84.041,90.625 84.571,90.098 84.571,89.453L84.571,31.25ZM54.267,65.701L54.267,81.082C54.267,83.47 52.329,85.408 49.941,85.408C47.553,85.408 45.615,83.47 45.615,81.082L45.615,65.701L30.234,65.701C27.846,65.701 25.908,63.763 25.908,61.375C25.908,58.987 27.846,57.049 30.234,57.049L45.615,57.049L45.615,41.668C45.615,39.28 47.553,37.342 49.941,37.342C52.329,37.342 54.267,39.28 54.267,41.668L54.267,57.049L69.648,57.049C72.036,57.049 73.974,58.987 73.974,61.375C73.974,63.763 72.036,65.701 69.648,65.701L54.267,65.701Z" style="fill-rule:nonzero;"/>
</svg>
