<?xml version="1.0" encoding="UTF-8" standalone="no"?>
<!DOCTYPE svg PUBLIC "-//W3C//DTD SVG 1.1//EN" "http://www.w3.org/Graphics/SVG/1.1/DTD/svg11.dtd">
<svg width="100%" height="100%" viewBox="0 0 100 100" version="1.1" xmlns="http://www.w3.org/2000/svg" xmlnsXlink="http://www.w3.org/1999/xlink" xml:space="preserve" xmlnsSerif="http://www.serif.com/" style="fill-rule:evenodd;clip-rule:evenodd;stroke-linejoin:round;stroke-miterlimit:2;">
    <g transform="matrix(0.201613,0,0,0.201613,-1.6129,-1.6129)">
        <path d="M256,504C392.967,504 504,392.967 504,256C504,119.033 392.967,8 256,8C119.033,8 8,119.033 8,256C8,392.967 119.033,504 256,504ZM152.602,427.28L206.013,373.869C237.819,387.375 274.141,387.391 305.987,373.869L359.398,427.28C296.181,465.599 215.819,465.599 152.602,427.28ZM336,256C336,300.112 300.112,336 256,336C211.888,336 176,300.112 176,256C176,211.888 211.888,176 256,176C300.112,176 336,211.888 336,256ZM427.28,359.398L373.869,305.987C387.374,274.181 387.391,237.859 373.869,206.013L427.28,152.602C465.599,215.819 465.599,296.181 427.28,359.398ZM359.397,84.72L305.986,138.131C274.18,124.626 237.858,124.609 206.013,138.131L152.602,84.72C215.819,46.401 296.181,46.401 359.397,84.72ZM84.72,152.602L138.131,206.013C124.625,237.819 124.609,274.141 138.131,305.987L84.72,359.398C46.401,296.181 46.401,215.819 84.72,152.602Z" style="fill-rule:nonzero;"/>
    </g>
</svg>
