<?xml version="1.0" encoding="UTF-8" standalone="no"?>
<!DOCTYPE svg PUBLIC "-//W3C//DTD SVG 1.1//EN" "http://www.w3.org/Graphics/SVG/1.1/DTD/svg11.dtd">
<svg width="100%" height="100%" viewBox="0 0 122 28" version="1.1" xmlns="http://www.w3.org/2000/svg" xmlnsXlink="http://www.w3.org/1999/xlink" xmlSpace="preserve" xmlnsSerif="http://www.serif.com/" style="fill-rule:evenodd;clip-rule:evenodd;stroke-linejoin:round;stroke-miterlimit:2;">
    <path d="M107.488,17.576C106.321,14.407 105.151,11.238 104.036,8.05C103.608,6.719 104.669,5.15 106.166,5.171C107.026,5.205 107.815,5.756 108.141,6.556C108.958,8.715 109.739,10.888 110.52,13.061C110.938,12.572 111.564,12.253 112.234,12.263C112.904,12.288 113.41,12.643 113.814,13.175C114.222,12.571 114.926,12.157 115.687,12.168C116.667,12.206 117.295,12.963 117.761,13.926C118.155,13.431 118.751,13.1 119.412,13.119C122.048,13.278 121.832,18.055 121.588,20.879C121.528,21.645 121.539,21.747 121.543,22.149C121.548,22.652 121.609,23.378 121.609,23.378C121.587,24.017 120.573,24.146 120.49,23.093C120.312,20.454 120.779,17.816 120.194,15.137C120.194,15.137 119.726,13.986 119.03,14.28C118.503,14.503 118.45,15.306 118.451,15.622C118.703,15.992 118.738,16.573 118.425,16.801C118.125,17.019 117.812,16.776 117.628,16.425C117.48,16.336 117.356,16.128 117.301,15.751C117.018,14.93 116.822,14.01 116.412,13.591C115.784,12.946 114.371,13.536 114.558,14.555C114.666,14.821 114.766,15.096 114.863,15.372C115.013,15.727 115.152,16.066 115.183,16.341C115.187,16.364 115.188,16.386 115.188,16.409C115.194,16.526 115.177,16.63 115.129,16.716C115.037,16.882 114.859,16.968 114.676,16.973C114.477,17.008 114.269,16.931 114.148,16.668L114.148,16.667C113.876,15.98 113.536,15.293 113.46,14.619C113.312,14.219 113.154,13.883 112.958,13.684C112.309,13.019 110.824,13.67 111.127,14.752C111.16,14.841 111.192,14.93 111.225,15.019C111.41,15.497 111.645,15.974 111.709,16.357L111.711,16.361C111.736,16.446 111.738,16.53 111.723,16.61C111.712,16.748 111.663,16.865 111.56,16.955C111.472,17.035 111.36,17.075 111.245,17.082C111.059,17.118 110.859,17.051 110.727,16.822C110.715,16.803 110.705,16.783 110.695,16.762C110.453,16.151 110.156,15.541 110.04,14.938C109.095,12.257 108.187,9.562 107.114,6.93C106.695,5.974 104.599,6.231 105.072,7.702C106.514,11.829 108.05,15.923 109.554,20.027C109.95,20.872 110.369,21.705 110.037,22.117C109.919,22.265 109.733,22.325 109.554,22.304C109.407,22.301 109.26,22.232 109.158,22.073C109.144,22.054 109.132,22.034 109.12,22.012C109.008,21.754 108.914,21.481 108.823,21.208C108.679,20.812 108.534,20.415 108.388,20.019C108.265,19.762 108.122,19.539 107.937,19.374C107.461,18.975 106.977,18.457 106.669,18.49C105.821,18.581 106.252,20.074 106.636,20.926C107.533,22.912 108.845,24.783 110.709,25.846C110.709,25.846 112.143,26.301 111.986,26.999C111.869,27.517 111.378,27.529 109.952,26.668C107.711,25.275 106.183,22.945 105.26,20.459C104.779,19.164 105.204,17.392 106.752,17.396C107.003,17.408 107.251,17.472 107.488,17.576ZM5.862,14.044C5.803,14.117 5.698,14.171 5.545,14.208C5.391,14.244 5.235,14.204 5.074,14.088C4.958,14 4.819,13.909 4.659,13.814C4.498,13.719 4.323,13.628 4.134,13.541C3.944,13.453 3.755,13.38 3.565,13.322C3.376,13.264 3.193,13.235 3.018,13.235C2.8,13.235 2.57,13.286 2.329,13.388C2.089,13.49 1.881,13.636 1.706,13.825C1.371,14.19 1.25,14.543 1.345,14.886C1.44,15.229 1.691,15.546 2.1,15.837C2.362,16.027 2.646,16.22 2.953,16.417C3.259,16.614 3.561,16.807 3.86,16.997C4.159,17.186 4.444,17.368 4.713,17.543C4.983,17.718 5.22,17.871 5.424,18.003C5.687,18.178 5.935,18.367 6.168,18.571C6.401,18.776 6.605,19.005 6.78,19.26C6.955,19.516 7.094,19.804 7.196,20.124C7.298,20.445 7.349,20.81 7.349,21.218C7.247,22.02 6.93,22.658 6.398,23.132C5.865,23.606 5.249,23.908 4.549,24.04C3.937,24.156 3.335,24.134 2.745,23.974C2.154,23.814 1.655,23.507 1.247,23.055C1.145,22.939 1.057,22.778 0.984,22.574C0.911,22.37 0.904,22.224 0.962,22.137C1.05,22.005 1.203,21.914 1.422,21.863C1.64,21.812 1.808,21.823 1.925,21.896C2.26,22.202 2.654,22.425 3.106,22.563C3.558,22.702 4.032,22.713 4.527,22.596C4.907,22.508 5.213,22.344 5.446,22.104C5.679,21.863 5.825,21.59 5.884,21.284C5.956,20.963 5.916,20.631 5.763,20.288C5.61,19.946 5.337,19.636 4.943,19.359C4.345,18.907 3.707,18.484 3.029,18.09C2.351,17.697 1.662,17.244 0.962,16.734C0.627,16.442 0.383,16.122 0.23,15.772C0.076,15.422 0,15.079 0,14.744C0,14.394 0.073,14.062 0.219,13.749C0.364,13.435 0.569,13.151 0.831,12.896C1.094,12.64 1.4,12.433 1.75,12.272C2.1,12.112 2.486,12.017 2.909,11.988C3.492,11.959 4.054,12.079 4.593,12.349C5.133,12.618 5.57,12.95 5.905,13.344C5.978,13.431 6.011,13.541 6.004,13.672C5.997,13.803 5.949,13.927 5.862,14.044ZM31.19,23.405C31.175,23.566 31.128,23.715 31.048,23.854C30.968,23.992 30.847,24.054 30.687,24.04C30.439,24.025 30.224,23.93 30.042,23.755C29.859,23.58 29.768,23.434 29.768,23.318C29.783,22.049 29.743,20.755 29.648,19.435C29.553,18.116 29.404,16.8 29.2,15.487C29.2,15.429 29.214,15.363 29.243,15.291C29.273,15.232 29.309,15.163 29.353,15.083C29.396,15.003 29.469,14.926 29.571,14.853C29.674,14.809 29.787,14.817 29.91,14.875C30.034,14.933 30.155,15.021 30.271,15.137C30.388,15.254 30.49,15.385 30.578,15.531C30.665,15.677 30.731,15.815 30.774,15.947C30.818,16.238 30.862,16.559 30.906,16.909C30.949,17.259 30.986,17.624 31.015,18.003C31.365,17.813 31.7,17.602 32.021,17.368C32.342,17.135 32.623,16.88 32.863,16.603C33.104,16.326 33.29,16.038 33.421,15.739C33.552,15.44 33.596,15.13 33.552,14.809C33.523,14.561 33.414,14.335 33.224,14.131C33.035,13.927 32.743,13.774 32.349,13.672C31.445,13.468 30.636,13.457 29.921,13.639C29.207,13.821 28.522,14.124 27.865,14.547C27.676,14.693 27.501,14.78 27.34,14.809C27.18,14.839 27.042,14.831 26.925,14.787C26.808,14.744 26.721,14.678 26.662,14.591C26.604,14.503 26.575,14.416 26.575,14.328C26.604,13.993 26.768,13.69 27.067,13.42C27.366,13.151 27.683,12.921 28.019,12.731C28.456,12.513 28.995,12.33 29.637,12.185C30.279,12.039 30.924,11.984 31.573,12.021C32.222,12.057 32.83,12.214 33.399,12.491C33.968,12.768 34.405,13.213 34.711,13.825C34.989,14.554 35.051,15.21 34.897,15.794C34.744,16.377 34.471,16.909 34.077,17.39C33.683,17.871 33.217,18.313 32.677,18.714C32.138,19.115 31.627,19.483 31.146,19.818C31.175,20.46 31.194,21.087 31.201,21.699C31.208,22.312 31.205,22.88 31.19,23.405ZM53.631,14.569C53.558,15.079 53.493,15.644 53.434,16.264C53.376,16.884 53.318,17.511 53.259,18.145C53.201,18.779 53.146,19.395 53.095,19.993C53.044,20.591 53.004,21.116 52.975,21.568C53.471,21.48 54.021,21.378 54.626,21.262C55.232,21.145 55.848,21.025 56.475,20.901C57.102,20.777 57.718,20.668 58.323,20.573C58.928,20.478 59.478,20.409 59.974,20.365C60.018,20.365 60.069,20.38 60.127,20.409C60.244,20.467 60.302,20.562 60.302,20.693C60.302,20.883 60.266,21.025 60.193,21.12C60.12,21.214 60.033,21.287 59.93,21.338C59.828,21.389 59.723,21.437 59.613,21.48C59.504,21.524 59.406,21.59 59.318,21.677C58.866,21.794 58.37,21.918 57.831,22.049C57.291,22.18 56.737,22.312 56.168,22.443C55.6,22.574 55.031,22.705 54.462,22.837C53.894,22.968 53.361,23.099 52.866,23.23C52.414,23.347 52.071,23.267 51.838,22.99C51.604,22.713 51.51,22.261 51.553,21.634C51.626,20.452 51.714,19.268 51.816,18.079C51.918,16.891 52.042,15.706 52.188,14.525C52.217,14.277 52.301,14.073 52.439,13.913C52.578,13.752 52.749,13.657 52.953,13.628C53.289,13.584 53.489,13.668 53.555,13.88C53.62,14.091 53.646,14.321 53.631,14.569ZM84.515,22.29C84.515,22.45 84.46,22.592 84.351,22.716C84.242,22.84 84.107,22.917 83.946,22.946C83.655,22.99 83.465,22.939 83.378,22.793C83.29,22.647 83.239,22.479 83.225,22.29C83.21,21.269 83.192,20.252 83.17,19.239C83.148,18.225 83.101,17.208 83.028,16.187C83.028,16.129 83.02,16.06 83.006,15.98C82.991,15.899 82.991,15.819 83.006,15.739C83.02,15.659 83.053,15.589 83.104,15.531C83.155,15.473 83.239,15.429 83.356,15.4C83.691,15.342 83.932,15.396 84.078,15.564C84.223,15.732 84.296,15.896 84.296,16.056C84.413,17.106 84.486,18.149 84.515,19.184C84.544,20.219 84.544,21.254 84.515,22.29ZM65.378,13.552C65.598,13.553 65.813,13.586 66.022,13.65C66.306,13.738 66.572,13.905 66.82,14.153C66.879,14.357 66.839,14.51 66.7,14.613C66.561,14.715 66.383,14.78 66.164,14.809C65.945,14.839 65.683,14.871 65.377,14.908C65.07,14.944 64.753,14.984 64.425,15.028C64.097,15.072 63.769,15.112 63.441,15.148C63.113,15.185 62.803,15.225 62.511,15.269C62.511,15.298 62.515,15.331 62.522,15.367C62.53,15.404 62.533,15.436 62.533,15.466C62.504,15.845 62.482,16.224 62.468,16.603C62.453,16.982 62.438,17.361 62.424,17.74C63.036,17.638 63.663,17.547 64.305,17.467C64.947,17.387 65.457,17.332 65.836,17.303C66.142,17.274 66.441,17.31 66.733,17.412C67.024,17.514 67.287,17.689 67.52,17.937C67.579,18.083 67.52,18.225 67.345,18.364C67.17,18.502 66.893,18.593 66.514,18.637C65.858,18.725 65.187,18.816 64.502,18.91C63.816,19.005 63.117,19.104 62.402,19.206C62.373,19.949 62.373,20.693 62.402,21.437C62.737,21.437 63.142,21.404 63.616,21.338C64.09,21.273 64.575,21.189 65.07,21.087C65.566,20.985 66.044,20.879 66.503,20.77C66.962,20.66 67.353,20.569 67.673,20.496C67.834,20.452 68.001,20.42 68.176,20.398C68.351,20.376 68.508,20.376 68.647,20.398C68.785,20.42 68.898,20.474 68.986,20.562C69.073,20.649 69.117,20.773 69.117,20.934C69.117,20.977 69.066,21.043 68.964,21.13C68.862,21.218 68.734,21.309 68.581,21.404C68.428,21.499 68.268,21.586 68.1,21.666C67.932,21.747 67.783,21.809 67.651,21.852C66.747,22.144 65.858,22.395 64.983,22.607C64.108,22.818 63.255,22.931 62.424,22.946C61.943,22.96 61.578,22.833 61.33,22.563C61.082,22.293 60.951,21.903 60.937,21.393C60.907,20.678 60.907,19.957 60.937,19.228C60.689,19.082 60.565,18.878 60.565,18.615C60.594,18.338 60.725,18.149 60.958,18.046C60.987,17.637 61.008,17.224 61.023,16.807L61.025,16.727C61.04,16.31 61.061,15.897 61.09,15.487C60.929,15.458 60.787,15.378 60.663,15.247C60.539,15.116 60.477,14.97 60.477,14.809C60.477,14.678 60.506,14.558 60.565,14.448C60.623,14.339 60.732,14.255 60.893,14.197C61.155,14.139 61.476,14.073 61.855,14C62.234,13.927 62.624,13.862 63.025,13.803C63.426,13.745 63.813,13.694 64.185,13.65C64.556,13.606 64.874,13.577 65.136,13.563C65.213,13.555 65.289,13.552 65.364,13.552L65.378,13.552ZM40.706,13.552C40.926,13.553 41.141,13.586 41.35,13.65C41.634,13.738 41.9,13.905 42.148,14.153C42.206,14.357 42.166,14.51 42.028,14.613C41.889,14.715 41.711,14.78 41.492,14.809C41.273,14.839 41.011,14.871 40.705,14.908C40.398,14.944 40.081,14.984 39.753,15.028C39.425,15.072 39.097,15.112 38.769,15.148C38.441,15.185 38.131,15.225 37.839,15.269C37.839,15.298 37.843,15.331 37.85,15.367C37.857,15.404 37.861,15.436 37.861,15.466C37.832,15.845 37.81,16.224 37.796,16.603C37.781,16.982 37.766,17.361 37.752,17.74C38.364,17.638 38.991,17.547 39.633,17.467C40.274,17.387 40.785,17.332 41.164,17.303C41.47,17.274 41.769,17.31 42.061,17.412C42.352,17.514 42.615,17.689 42.848,17.937C42.906,18.083 42.848,18.225 42.673,18.364C42.498,18.502 42.221,18.593 41.842,18.637C41.186,18.725 40.515,18.816 39.83,18.91C39.144,19.005 38.444,19.104 37.73,19.206C37.701,19.949 37.701,20.693 37.73,21.437C38.065,21.437 38.47,21.404 38.944,21.338C39.418,21.273 39.903,21.189 40.398,21.087C40.894,20.985 41.372,20.879 41.831,20.77C42.29,20.66 42.68,20.569 43.001,20.496C43.162,20.452 43.329,20.42 43.504,20.398C43.679,20.376 43.836,20.376 43.974,20.398C44.113,20.42 44.226,20.474 44.314,20.562C44.401,20.649 44.445,20.773 44.445,20.934C44.445,20.977 44.394,21.043 44.292,21.13C44.19,21.218 44.062,21.309 43.909,21.404C43.756,21.499 43.595,21.586 43.428,21.666C43.26,21.747 43.111,21.809 42.979,21.852C42.075,22.144 41.186,22.395 40.311,22.607C39.436,22.818 38.583,22.931 37.752,22.946C37.271,22.96 36.906,22.833 36.658,22.563C36.41,22.293 36.279,21.903 36.264,21.393C36.235,20.678 36.235,19.957 36.264,19.228C36.017,19.082 35.893,18.878 35.893,18.615C35.922,18.338 36.053,18.149 36.286,18.046C36.315,17.637 36.336,17.224 36.351,16.807L36.353,16.727C36.368,16.31 36.389,15.897 36.418,15.487C36.257,15.458 36.115,15.378 35.991,15.247C35.867,15.116 35.805,14.97 35.805,14.809C35.805,14.678 35.834,14.558 35.893,14.448C35.951,14.339 36.06,14.255 36.221,14.197C36.483,14.139 36.804,14.073 37.183,14C37.562,13.927 37.952,13.862 38.353,13.803C38.754,13.745 39.141,13.694 39.513,13.65C39.884,13.606 40.201,13.577 40.464,13.563C40.541,13.555 40.616,13.552 40.692,13.552L40.706,13.552ZM76.903,13.934C76.874,14.022 76.772,14.124 76.597,14.241C76.422,14.357 76.276,14.416 76.16,14.416C75.533,14.357 74.909,14.306 74.29,14.263C73.67,14.219 73.039,14.19 72.398,14.175C72.485,14.685 72.569,15.196 72.649,15.706C72.729,16.216 72.806,16.727 72.879,17.237C74.118,17.193 75.343,17.128 76.554,17.04C76.758,17.04 76.962,17.106 77.166,17.237C77.37,17.368 77.472,17.492 77.472,17.609C77.472,17.769 77.407,17.912 77.275,18.036C77.144,18.159 76.984,18.236 76.794,18.265C76.182,18.367 75.566,18.444 74.946,18.495C74.326,18.546 73.696,18.586 73.054,18.615C73.127,19.126 73.189,19.632 73.24,20.135C73.291,20.638 73.338,21.138 73.382,21.634C73.411,21.838 73.393,22.053 73.327,22.279C73.262,22.505 73.156,22.618 73.01,22.618C72.879,22.618 72.755,22.581 72.638,22.508C72.522,22.436 72.416,22.352 72.321,22.257C72.226,22.162 72.15,22.056 72.092,21.94C72.033,21.823 71.997,21.721 71.982,21.634C71.836,20.38 71.68,19.133 71.512,17.893C71.344,16.654 71.158,15.407 70.954,14.153L70.232,14.153C70.028,14.153 69.839,14.131 69.664,14.088C69.489,14.044 69.357,13.934 69.27,13.759C69.241,13.716 69.223,13.643 69.215,13.541C69.208,13.439 69.215,13.337 69.237,13.235C69.259,13.132 69.299,13.038 69.357,12.95C69.416,12.863 69.496,12.804 69.598,12.775C70.167,12.688 70.776,12.651 71.424,12.666C72.073,12.68 72.708,12.721 73.327,12.786C73.947,12.852 74.53,12.943 75.077,13.06C75.624,13.176 76.094,13.3 76.488,13.431C76.736,13.577 76.874,13.745 76.903,13.934ZM21.457,14.919C21.034,16.012 20.542,17.153 19.98,18.342C19.419,19.53 18.752,20.708 17.979,21.874C17.76,22.21 17.512,22.377 17.235,22.377C17.06,22.377 16.915,22.337 16.798,22.257C16.681,22.177 16.579,22.071 16.492,21.94C16.113,21.357 15.77,20.737 15.464,20.081C15.158,19.424 14.859,18.681 14.567,17.85C14.144,18.593 13.674,19.344 13.156,20.102C12.639,20.861 12.073,21.568 11.461,22.224C11.344,22.355 11.224,22.443 11.1,22.487C10.976,22.53 10.878,22.545 10.805,22.53C10.499,22.487 10.258,22.297 10.083,21.962C9.544,20.956 9.179,19.847 8.989,18.637C8.8,17.427 8.698,16.187 8.683,14.919C8.683,14.802 8.727,14.685 8.814,14.569C8.902,14.452 9.033,14.401 9.208,14.416C9.471,14.43 9.675,14.529 9.821,14.711C9.966,14.893 10.054,15.116 10.083,15.378C10.112,15.743 10.149,16.155 10.192,16.614C10.236,17.073 10.295,17.543 10.367,18.025C10.44,18.506 10.535,18.972 10.652,19.424C10.768,19.876 10.914,20.27 11.089,20.606C11.308,20.329 11.541,20.022 11.789,19.687C12.037,19.352 12.281,19.002 12.522,18.637C12.762,18.272 12.992,17.904 13.211,17.532C13.43,17.161 13.626,16.792 13.801,16.428C13.918,16.18 14.064,16.02 14.239,15.947C14.414,15.874 14.552,15.837 14.654,15.837C15.092,15.837 15.391,16.049 15.551,16.472C15.799,17.084 16.051,17.733 16.306,18.418C16.561,19.104 16.842,19.753 17.148,20.365C17.41,19.957 17.68,19.497 17.957,18.987C18.234,18.477 18.504,17.955 18.766,17.423C19.029,16.891 19.28,16.355 19.521,15.815C19.762,15.276 19.977,14.766 20.166,14.284C20.239,14.109 20.363,13.964 20.538,13.847C20.713,13.73 20.903,13.738 21.107,13.869C21.267,13.971 21.38,14.135 21.446,14.361C21.511,14.587 21.515,14.773 21.457,14.919ZM25.503,21.502C25.518,21.561 25.525,21.644 25.525,21.754C25.525,21.863 25.503,21.973 25.459,22.082C25.416,22.191 25.354,22.286 25.274,22.366C25.193,22.446 25.08,22.487 24.935,22.487C24.614,22.282 24.344,22.013 24.125,21.677C24.009,21.24 23.903,20.737 23.808,20.168C23.713,19.599 23.637,19.005 23.578,18.386C23.52,17.766 23.48,17.135 23.458,16.494C23.436,15.852 23.433,15.232 23.447,14.634C23.447,14.532 23.458,14.401 23.48,14.241C23.502,14.08 23.542,13.924 23.6,13.77C23.659,13.617 23.732,13.486 23.819,13.377C23.907,13.267 24.03,13.213 24.191,13.213C24.38,13.213 24.534,13.271 24.65,13.388C24.767,13.504 24.825,13.694 24.825,13.956C24.811,14.54 24.814,15.163 24.836,15.826C24.858,16.49 24.898,17.157 24.956,17.828C25.015,18.499 25.091,19.151 25.186,19.785C25.281,20.42 25.387,20.992 25.503,21.502ZM87.621,14.656C86.119,14.583 84.675,14.7 83.29,15.006C81.905,15.312 80.534,15.728 79.178,16.253C78.828,16.384 78.562,16.37 78.38,16.209C78.198,16.049 78.106,15.888 78.106,15.728C78.209,15.451 78.391,15.225 78.653,15.05C81.643,13.592 84.632,13.052 87.621,13.431C87.767,13.475 87.887,13.581 87.982,13.749C88.077,13.916 88.109,14.058 88.08,14.175C88.051,14.321 88.007,14.441 87.949,14.536C87.891,14.631 87.781,14.671 87.621,14.656ZM101.005,3.709C101.937,4.081 102.888,4.442 103.049,4.815C103.217,5.209 102.792,5.695 102.351,5.54C101.289,5.098 100.239,4.625 99.203,4.122C98.448,3.704 99.633,1.798 100.362,0.294C100.468,0.105 100.591,-0.006 100.876,0C101.241,0.03 101.488,0.429 101.346,0.77L100.483,2.687C100.497,2.681 100.511,2.676 100.526,2.671C102.442,2.065 104.532,2.073 106.561,2.079C109.331,2.104 112.115,2.281 114.786,2.97C114.786,2.97 115.126,3.102 115.185,3.388C115.284,3.867 115.151,4.167 113.947,3.888C109.924,3.009 105.679,2.738 101.674,3.509C101.417,3.56 101.2,3.646 101.005,3.709Z" style="fill-rule:nonzero;"/>
</svg>
