<?xml version="1.0" encoding="UTF-8" standalone="no"?>
<!DOCTYPE svg PUBLIC "-//W3C//DTD SVG 1.1//EN" "http://www.w3.org/Graphics/SVG/1.1/DTD/svg11.dtd">
<svg width="100%" height="100%" viewBox="0 0 100 100" version="1.1" xmlns="http://www.w3.org/2000/svg" xmlnsXlink="http://www.w3.org/1999/xlink" xmlSpace="preserve" xmlnsSerif="http://www.serif.com/" style="fill-rule:evenodd;clip-rule:evenodd;stroke-linejoin:round;stroke-miterlimit:2;">
    <path d="M38.857,0C58.62,0 74.882,16.263 74.882,36.025C74.882,40.752 77.564,45.091 81.792,47.205L92.972,52.795C97.2,54.909 99.882,59.248 99.882,63.975L99.882,93.75C99.882,97.179 97.061,100 93.632,100L6.132,100C2.703,100 -0.118,97.179 -0.118,93.75L-0.118,36.025C-0.118,16.263 16.144,0 35.907,0L38.857,0ZM93.632,93.75L93.632,75L84.257,75L84.257,82.813C84.257,83.67 83.552,84.375 82.694,84.375L79.569,84.375C78.712,84.375 78.007,83.67 78.007,82.813L78.007,75L71.757,75L71.757,82.813C71.757,83.67 71.052,84.375 70.194,84.375L67.069,84.375C66.212,84.375 65.507,83.67 65.507,82.813L65.507,75L46.757,75L46.757,82.813C46.757,83.67 46.052,84.375 45.194,84.375L42.069,84.375C41.212,84.375 40.507,83.67 40.507,82.813L40.507,75L34.257,75L34.257,82.813C34.257,83.67 33.552,84.375 32.694,84.375L29.569,84.375C28.712,84.375 28.007,83.67 28.007,82.813L28.007,75L21.757,75L21.757,82.813C21.757,83.67 21.052,84.375 20.194,84.375L17.069,84.375C16.212,84.375 15.507,83.67 15.507,82.813L15.507,75L6.132,75L6.132,93.75L93.632,93.75ZM93.632,68.75L93.632,63.975C93.64,61.609 92.296,59.436 90.177,58.385L78.997,52.795C72.639,49.642 68.609,43.122 68.632,36.025C68.632,19.607 55.275,6.25 38.857,6.25L35.907,6.25C19.489,6.25 6.132,19.607 6.132,36.025L6.132,68.75L93.632,68.75ZM38.262,11.633C38.932,11.634 39.475,12.177 39.475,12.846L39.475,15.81C49.591,16.928 57.622,24.959 58.74,35.075L61.704,35.075C62.374,35.075 62.916,35.618 62.916,36.288L62.916,38.712C62.916,39.382 62.374,39.925 61.704,39.925L58.74,39.925C57.622,50.041 49.591,58.072 39.475,59.19L39.475,62.154C39.475,62.824 38.932,63.367 38.262,63.367L35.837,63.367C35.168,63.367 34.625,62.824 34.625,62.154L34.625,59.19C24.509,58.072 16.479,50.041 15.36,39.925L12.396,39.925C11.726,39.925 11.183,39.382 11.183,38.712L11.183,36.288C11.183,35.618 11.726,35.075 12.396,35.075L15.36,35.075C16.479,24.959 24.509,16.928 34.625,15.81L34.625,12.846C34.625,12.177 35.168,11.634 35.837,11.633L38.262,11.633ZM53.853,35.075C52.797,27.645 46.909,21.754 39.475,20.697L39.475,24.971C39.475,25.641 38.932,26.183 38.262,26.183L35.837,26.183C35.168,26.183 34.625,25.641 34.625,24.971L34.625,20.697C27.195,21.753 21.304,27.641 20.247,35.075L24.521,35.075C25.19,35.075 25.733,35.618 25.733,36.288L25.733,38.712C25.733,39.382 25.19,39.925 24.521,39.925L20.247,39.925C21.303,47.355 27.191,53.246 34.625,54.303L34.625,50.029C34.625,49.36 35.168,48.817 35.837,48.817L38.262,48.817C38.932,48.817 39.475,49.36 39.475,50.029L39.475,54.303C46.905,53.247 52.796,47.359 53.853,39.925L49.579,39.925C48.909,39.925 48.367,39.382 48.367,38.712L48.367,36.288C48.367,35.618 48.909,35.075 49.579,35.075L53.853,35.075ZM40.283,37.5C40.283,39.286 38.836,40.733 37.05,40.733C35.264,40.733 33.817,39.286 33.817,37.5C33.817,35.714 35.264,34.267 37.05,34.267C38.836,34.267 40.283,35.714 40.283,37.5Z" style="fill-rule:nonzero;"/>
</svg>
