<?xml version="1.0" encoding="UTF-8" standalone="no"?>
<!DOCTYPE svg PUBLIC "-//W3C//DTD SVG 1.1//EN" "http://www.w3.org/Graphics/SVG/1.1/DTD/svg11.dtd">
<svg width="100%" height="100%" viewBox="0 0 100 100" version="1.1" xmlns="http://www.w3.org/2000/svg" xmlnsXlink="http://www.w3.org/1999/xlink" xml:space="preserve" xmlnsSerif="http://www.serif.com/" style="fill-rule:evenodd;clip-rule:evenodd;stroke-linejoin:round;stroke-miterlimit:2;">
    <g id="X" transform="matrix(0.707107,0.707107,-0.707107,0.707107,49.9827,-20.669)">
        <path d="M40.941,41L40.941,9C40.941,4.033 44.974,0 49.941,0C54.908,0 58.941,4.033 58.941,9L58.941,41L90.941,41C95.908,41 99.941,45.033 99.941,50C99.941,54.967 95.908,59 90.941,59L58.941,59L58.941,91C58.941,95.967 54.908,100 49.941,100C44.974,100 40.941,95.967 40.941,91L40.941,59L8.941,59C3.974,59 -0.059,54.967 -0.059,50C-0.059,45.033 3.974,41 8.941,41L40.941,41Z"/>
        <path d="M43.655,2.561L43.733,2.486L43.811,2.412L43.891,2.339L43.971,2.267L44.053,2.196L44.135,2.126L44.218,2.056L44.301,1.988L44.386,1.921L44.471,1.854L44.558,1.789L44.645,1.725L44.732,1.661L44.821,1.599L44.91,1.538L45.001,1.478L45.092,1.419L45.183,1.361L45.276,1.304L45.369,1.248L45.463,1.193L45.557,1.139L45.653,1.087L45.749,1.036L45.845,0.985L45.943,0.936L46.041,0.888L46.139,0.841L46.239,0.796L46.339,0.751L46.439,0.708L46.54,0.666L46.642,0.625L46.745,0.585L46.848,0.546L46.951,0.509L47.056,0.473L47.161,0.438L47.266,0.405L47.372,0.373L47.478,0.342L47.585,0.312L47.693,0.284L47.801,0.256L47.91,0.231L48.019,0.206L48.128,0.183L48.238,0.161L48.349,0.141L48.46,0.122L48.571,0.104L48.683,0.087L48.795,0.072L48.908,0.059L49.021,0.047L49.135,0.036L49.249,0.026L49.363,0.018L49.478,0.012L49.593,0.007L49.709,0.003L49.825,0.001L49.941,0L50.057,0.001L50.173,0.003L50.289,0.007L50.404,0.012L50.519,0.018L50.633,0.026L50.747,0.036L50.861,0.047L50.974,0.059L51.087,0.072L51.199,0.087L51.311,0.104L51.422,0.122L51.533,0.141L51.644,0.161L51.754,0.183L51.863,0.206L51.973,0.231L52.081,0.256L52.189,0.284L52.297,0.312L52.404,0.342L52.51,0.373L52.616,0.405L52.721,0.438L52.826,0.473L52.931,0.509L53.034,0.546L53.137,0.585L53.24,0.625L53.342,0.666L53.443,0.708L53.543,0.751L53.643,0.796L53.743,0.841L53.841,0.888L53.939,0.936L54.037,0.985L54.133,1.036L54.229,1.087L54.325,1.139L54.419,1.193L54.513,1.248L54.606,1.304L54.699,1.361L54.79,1.419L54.881,1.478L54.972,1.538L55.061,1.599L55.15,1.661L55.237,1.725L55.324,1.789L55.411,1.854L55.496,1.921L55.581,1.988L55.664,2.056L55.747,2.126L55.829,2.196L55.911,2.267L55.991,2.339L56.071,2.412L56.149,2.486L56.227,2.561L56.304,2.637L56.38,2.714L56.455,2.792L56.529,2.87L56.602,2.95L56.674,3.03L56.745,3.112L56.815,3.194L56.885,3.277L56.953,3.36L57.02,3.445L57.087,3.53L57.152,3.617L57.216,3.704L57.28,3.791L57.342,3.88L57.403,3.969L57.463,4.06L57.522,4.151L57.58,4.242L57.637,4.335L57.693,4.428L57.748,4.522L57.802,4.616L57.854,4.712L57.906,4.808L57.956,4.904L58.005,5.002L58.053,5.1L58.1,5.198L58.145,5.298L58.19,5.398L58.233,5.498L58.275,5.599L58.316,5.701L58.356,5.804L58.395,5.907L58.432,6.01L58.468,6.115L58.503,6.22L58.536,6.325L58.568,6.431L58.599,6.537L58.629,6.644L58.657,6.752L58.685,6.86L58.71,6.969L58.735,7.078L58.758,7.187L58.78,7.297L58.8,7.408L58.819,7.519L58.837,7.63L58.854,7.742L58.869,7.854L58.882,7.967L58.895,8.08L58.905,8.194L58.915,8.308L58.923,8.422L58.929,8.537L58.934,8.652L58.938,8.768L58.94,8.884L58.941,9L58.941,41L90.941,41L91.057,41.001L91.173,41.003L91.289,41.007L91.404,41.012L91.519,41.018L91.633,41.026L91.747,41.036L91.861,41.047L91.974,41.059L92.087,41.072L92.199,41.087L92.311,41.104L92.422,41.122L92.533,41.141L92.644,41.161L92.754,41.183L92.863,41.206L92.973,41.231L93.081,41.256L93.189,41.284L93.297,41.312L93.404,41.342L93.51,41.373L93.616,41.405L93.721,41.438L93.826,41.473L93.931,41.509L94.034,41.546L94.137,41.585L94.24,41.625L94.342,41.666L94.443,41.708L94.543,41.751L94.643,41.796L94.743,41.841L94.841,41.888L94.939,41.936L95.037,41.985L95.133,42.036L95.229,42.087L95.325,42.139L95.419,42.193L95.513,42.248L95.606,42.304L95.699,42.361L95.79,42.419L95.881,42.478L95.972,42.538L96.061,42.599L96.15,42.661L96.237,42.725L96.324,42.789L96.411,42.854L96.496,42.921L96.581,42.988L96.664,43.056L96.747,43.126L96.829,43.196L96.911,43.267L96.991,43.339L97.071,43.412L97.149,43.486L97.227,43.561L97.304,43.637L97.38,43.714L97.455,43.792L97.529,43.87L97.602,43.95L97.674,44.03L97.745,44.112L97.815,44.194L97.885,44.277L97.953,44.36L98.02,44.445L98.087,44.53L98.152,44.617L98.216,44.704L98.28,44.791L98.342,44.88L98.403,44.969L98.463,45.06L98.522,45.151L98.58,45.242L98.637,45.335L98.693,45.428L98.748,45.522L98.802,45.616L98.854,45.712L98.906,45.808L98.956,45.904L99.005,46.002L99.053,46.1L99.1,46.198L99.145,46.298L99.19,46.398L99.233,46.498L99.275,46.599L99.316,46.701L99.356,46.804L99.395,46.907L99.432,47.01L99.468,47.115L99.503,47.22L99.536,47.325L99.568,47.431L99.599,47.537L99.629,47.644L99.657,47.752L99.685,47.86L99.71,47.969L99.735,48.078L99.758,48.187L99.78,48.297L99.8,48.408L99.819,48.519L99.837,48.63L99.854,48.742L99.869,48.854L99.882,48.967L99.895,49.08L99.905,49.194L99.915,49.308L99.923,49.422L99.929,49.537L99.934,49.652L99.938,49.768L99.94,49.884L99.941,50L99.94,50.116L99.938,50.232L99.934,50.348L99.929,50.463L99.923,50.578L99.915,50.692L99.905,50.806L99.895,50.92L99.882,51.033L99.869,51.146L99.854,51.258L99.837,51.37L99.819,51.481L99.8,51.592L99.78,51.703L99.758,51.813L99.735,51.922L99.71,52.031L99.685,52.14L99.657,52.248L99.629,52.356L99.599,52.463L99.568,52.569L99.536,52.675L99.503,52.78L99.468,52.885L99.432,52.99L99.395,53.093L99.356,53.196L99.316,53.299L99.275,53.401L99.233,53.502L99.19,53.602L99.145,53.702L99.1,53.802L99.053,53.9L99.005,53.998L98.956,54.096L98.906,54.192L98.854,54.288L98.802,54.384L98.748,54.478L98.693,54.572L98.637,54.665L98.58,54.758L98.522,54.849L98.463,54.94L98.403,55.031L98.342,55.12L98.28,55.209L98.216,55.296L98.152,55.383L98.087,55.47L98.02,55.555L97.953,55.64L97.885,55.723L97.815,55.806L97.745,55.888L97.674,55.97L97.602,56.05L97.529,56.13L97.455,56.208L97.38,56.286L97.304,56.363L97.227,56.439L97.149,56.514L97.071,56.588L96.991,56.661L96.911,56.733L96.829,56.804L96.747,56.874L96.664,56.944L96.581,57.012L96.496,57.079L96.411,57.146L96.324,57.211L96.237,57.275L96.15,57.339L96.061,57.401L95.972,57.462L95.881,57.522L95.79,57.581L95.699,57.639L95.606,57.696L95.513,57.752L95.419,57.807L95.325,57.861L95.229,57.913L95.133,57.964L95.037,58.015L94.939,58.064L94.841,58.112L94.743,58.159L94.643,58.204L94.543,58.249L94.443,58.292L94.342,58.334L94.24,58.375L94.137,58.415L94.034,58.454L93.931,58.491L93.826,58.527L93.721,58.562L93.616,58.595L93.51,58.627L93.404,58.658L93.297,58.688L93.189,58.716L93.081,58.744L92.973,58.769L92.863,58.794L92.754,58.817L92.644,58.839L92.533,58.859L92.422,58.878L92.311,58.896L92.199,58.913L92.087,58.928L91.974,58.941L91.861,58.953L91.747,58.964L91.633,58.974L91.519,58.982L91.404,58.988L91.289,58.993L91.173,58.997L91.057,58.999L90.941,59L58.941,59L58.941,91L58.94,91.116L58.938,91.232L58.934,91.348L58.929,91.463L58.923,91.578L58.915,91.692L58.905,91.806L58.895,91.92L58.882,92.033L58.869,92.146L58.854,92.258L58.837,92.37L58.819,92.481L58.8,92.592L58.78,92.703L58.758,92.813L58.735,92.922L58.71,93.031L58.685,93.14L58.657,93.248L58.629,93.356L58.599,93.463L58.568,93.569L58.536,93.675L58.503,93.78L58.468,93.885L58.432,93.99L58.395,94.093L58.356,94.196L58.316,94.299L58.275,94.401L58.233,94.502L58.19,94.602L58.145,94.702L58.1,94.802L58.053,94.9L58.005,94.998L57.956,95.096L57.906,95.192L57.854,95.288L57.802,95.384L57.748,95.478L57.693,95.572L57.637,95.665L57.58,95.758L57.522,95.849L57.463,95.94L57.403,96.031L57.342,96.12L57.28,96.209L57.216,96.296L57.152,96.383L57.087,96.47L57.02,96.555L56.953,96.64L56.885,96.723L56.815,96.806L56.745,96.888L56.674,96.97L56.602,97.05L56.529,97.13L56.455,97.208L56.38,97.286L56.304,97.363L56.227,97.439L56.149,97.514L56.071,97.588L55.991,97.661L55.911,97.733L55.829,97.804L55.747,97.874L55.664,97.944L55.581,98.012L55.496,98.079L55.411,98.146L55.324,98.211L55.237,98.275L55.15,98.339L55.061,98.401L54.972,98.462L54.881,98.522L54.79,98.581L54.699,98.639L54.606,98.696L54.513,98.752L54.419,98.807L54.325,98.861L54.229,98.913L54.133,98.964L54.037,99.015L53.939,99.064L53.841,99.112L53.743,99.159L53.643,99.204L53.543,99.249L53.443,99.292L53.342,99.334L53.24,99.375L53.137,99.415L53.034,99.454L52.931,99.491L52.826,99.527L52.721,99.562L52.616,99.595L52.51,99.627L52.404,99.658L52.297,99.688L52.189,99.716L52.081,99.744L51.973,99.769L51.863,99.794L51.754,99.817L51.644,99.839L51.533,99.859L51.422,99.878L51.311,99.896L51.199,99.913L51.087,99.928L50.974,99.941L50.861,99.953L50.747,99.964L50.633,99.974L50.519,99.982L50.404,99.988L50.289,99.993L50.173,99.997L50.057,99.999L49.941,100L49.825,99.999L49.709,99.997L49.593,99.993L49.478,99.988L49.363,99.982L49.249,99.974L49.135,99.964L49.021,99.953L48.908,99.941L48.795,99.928L48.683,99.913L48.571,99.896L48.46,99.878L48.349,99.859L48.238,99.839L48.128,99.817L48.019,99.794L47.91,99.769L47.801,99.744L47.693,99.716L47.585,99.688L47.478,99.658L47.372,99.627L47.266,99.595L47.161,99.562L47.056,99.527L46.951,99.491L46.848,99.454L46.745,99.415L46.642,99.375L46.54,99.334L46.439,99.292L46.339,99.249L46.239,99.204L46.139,99.159L46.041,99.112L45.943,99.064L45.845,99.015L45.749,98.964L45.653,98.913L45.557,98.861L45.463,98.807L45.369,98.752L45.276,98.696L45.183,98.639L45.092,98.581L45.001,98.522L44.91,98.462L44.821,98.401L44.732,98.339L44.645,98.275L44.558,98.211L44.471,98.146L44.386,98.079L44.301,98.012L44.218,97.944L44.135,97.874L44.053,97.804L43.971,97.733L43.891,97.661L43.811,97.588L43.733,97.514L43.655,97.439L43.578,97.363L43.502,97.286L43.427,97.208L43.353,97.13L43.28,97.05L43.208,96.97L43.137,96.888L43.067,96.806L42.997,96.723L42.929,96.64L42.862,96.555L42.795,96.47L42.73,96.383L42.666,96.296L42.602,96.209L42.54,96.12L42.479,96.031L42.419,95.94L42.36,95.849L42.302,95.758L42.245,95.665L42.189,95.572L42.134,95.478L42.08,95.384L42.028,95.288L41.977,95.192L41.926,95.096L41.877,94.998L41.829,94.9L41.782,94.802L41.737,94.702L41.692,94.602L41.649,94.502L41.607,94.401L41.566,94.299L41.526,94.196L41.488,94.093L41.45,93.99L41.414,93.885L41.379,93.78L41.346,93.675L41.314,93.569L41.283,93.463L41.253,93.356L41.225,93.248L41.197,93.14L41.172,93.031L41.147,92.922L41.124,92.813L41.102,92.703L41.082,92.592L41.063,92.481L41.045,92.37L41.028,92.258L41.013,92.146L41,92.033L40.988,91.92L40.977,91.806L40.967,91.692L40.959,91.578L40.953,91.463L40.948,91.348L40.944,91.232L40.942,91.116L40.941,91L40.941,59L8.941,59L8.825,58.999L8.709,58.997L8.593,58.993L8.478,58.988L8.363,58.982L8.249,58.974L8.135,58.964L8.021,58.953L7.908,58.941L7.795,58.928L7.683,58.913L7.571,58.896L7.46,58.878L7.349,58.859L7.238,58.839L7.128,58.817L7.019,58.794L6.91,58.769L6.801,58.744L6.693,58.716L6.585,58.688L6.478,58.658L6.372,58.627L6.266,58.595L6.161,58.562L6.056,58.527L5.951,58.491L5.848,58.454L5.745,58.415L5.642,58.375L5.54,58.334L5.439,58.292L5.339,58.249L5.239,58.204L5.139,58.159L5.041,58.112L4.943,58.064L4.845,58.015L4.749,57.964L4.653,57.913L4.557,57.861L4.463,57.807L4.369,57.752L4.276,57.696L4.183,57.639L4.092,57.581L4.001,57.522L3.91,57.462L3.821,57.401L3.732,57.339L3.645,57.275L3.558,57.211L3.471,57.146L3.386,57.079L3.301,57.012L3.218,56.944L3.135,56.874L3.053,56.804L2.971,56.733L2.891,56.661L2.811,56.588L2.733,56.514L2.655,56.439L2.578,56.363L2.502,56.286L2.427,56.208L2.353,56.13L2.28,56.05L2.208,55.97L2.137,55.888L2.067,55.806L1.997,55.723L1.929,55.64L1.862,55.555L1.795,55.47L1.73,55.383L1.666,55.296L1.602,55.209L1.54,55.12L1.479,55.031L1.419,54.94L1.36,54.849L1.302,54.758L1.245,54.665L1.189,54.572L1.134,54.478L1.08,54.384L1.028,54.288L0.977,54.192L0.926,54.096L0.877,53.998L0.829,53.9L0.782,53.802L0.737,53.702L0.692,53.602L0.649,53.502L0.607,53.401L0.566,53.299L0.526,53.196L0.488,53.093L0.45,52.99L0.414,52.885L0.379,52.78L0.346,52.675L0.314,52.569L0.283,52.463L0.253,52.356L0.225,52.248L0.197,52.14L0.172,52.031L0.147,51.922L0.124,51.813L0.102,51.703L0.082,51.592L0.063,51.481L0.045,51.37L0.028,51.258L0.013,51.146L0,51.033L-0.012,50.92L-0.023,50.806L-0.033,50.692L-0.041,50.578L-0.047,50.463L-0.052,50.348L-0.056,50.232L-0.058,50.116L-0.059,50L-0.058,49.884L-0.056,49.768L-0.052,49.652L-0.047,49.537L-0.041,49.422L-0.033,49.308L-0.023,49.194L-0.012,49.08L0,48.967L0.013,48.854L0.028,48.742L0.045,48.63L0.063,48.519L0.082,48.408L0.102,48.297L0.124,48.187L0.147,48.078L0.172,47.969L0.197,47.86L0.225,47.752L0.253,47.644L0.283,47.537L0.314,47.431L0.346,47.325L0.379,47.22L0.414,47.115L0.45,47.01L0.488,46.907L0.526,46.804L0.566,46.701L0.607,46.599L0.649,46.498L0.692,46.398L0.737,46.298L0.782,46.198L0.829,46.1L0.877,46.002L0.926,45.904L0.977,45.808L1.028,45.712L1.08,45.616L1.134,45.522L1.189,45.428L1.245,45.335L1.302,45.242L1.36,45.151L1.419,45.06L1.479,44.969L1.54,44.88L1.602,44.791L1.666,44.704L1.73,44.617L1.795,44.53L1.862,44.445L1.929,44.36L1.997,44.277L2.067,44.194L2.137,44.112L2.208,44.03L2.28,43.95L2.353,43.87L2.427,43.792L2.502,43.714L2.578,43.637L2.655,43.561L2.733,43.486L2.811,43.412L2.891,43.339L2.971,43.267L3.053,43.196L3.135,43.126L3.218,43.056L3.301,42.988L3.386,42.921L3.471,42.854L3.558,42.789L3.645,42.725L3.732,42.661L3.821,42.599L3.91,42.538L4.001,42.478L4.092,42.419L4.183,42.361L4.276,42.304L4.369,42.248L4.463,42.193L4.557,42.139L4.653,42.087L4.749,42.036L4.845,41.985L4.943,41.936L5.041,41.888L5.139,41.841L5.239,41.796L5.339,41.751L5.439,41.708L5.54,41.666L5.642,41.625L5.745,41.585L5.848,41.546L5.951,41.509L6.056,41.473L6.161,41.438L6.266,41.405L6.372,41.373L6.478,41.342L6.585,41.312L6.693,41.284L6.801,41.256L6.91,41.231L7.019,41.206L7.128,41.183L7.238,41.161L7.349,41.141L7.46,41.122L7.571,41.104L7.683,41.087L7.795,41.072L7.908,41.059L8.021,41.047L8.135,41.036L8.249,41.026L8.363,41.018L8.478,41.012L8.593,41.007L8.709,41.003L8.825,41.001L8.941,41L40.941,41L40.941,9L40.942,8.884L40.944,8.768L40.948,8.652L40.953,8.537L40.959,8.422L40.967,8.308L40.977,8.194L40.988,8.08L41,7.967L41.013,7.854L41.028,7.742L41.045,7.63L41.063,7.519L41.082,7.408L41.102,7.297L41.124,7.187L41.147,7.078L41.172,6.969L41.197,6.86L41.225,6.752L41.253,6.644L41.283,6.537L41.314,6.431L41.346,6.325L41.379,6.22L41.414,6.115L41.45,6.01L41.488,5.907L41.526,5.804L41.566,5.701L41.607,5.599L41.649,5.498L41.692,5.398L41.737,5.298L41.782,5.198L41.829,5.1L41.877,5.002L41.926,4.904L41.977,4.808L42.028,4.712L42.08,4.616L42.134,4.522L42.189,4.428L42.245,4.335L42.302,4.242L42.36,4.151L42.419,4.06L42.479,3.969L42.54,3.88L42.602,3.791L42.666,3.704L42.73,3.617L42.795,3.53L42.862,3.445L42.929,3.36L42.997,3.277L43.067,3.194L43.137,3.112L43.208,3.03L43.28,2.95L43.353,2.87L43.427,2.792L43.502,2.714L43.578,2.637L43.655,2.561ZM3.933,45.111L3.875,45.172L3.817,45.233L3.76,45.295L3.704,45.358L3.648,45.421L3.594,45.485L3.54,45.55L3.486,45.615L3.434,45.681L3.382,45.747L3.331,45.815L3.281,45.882L3.232,45.951L3.184,46.02L3.136,46.089L3.089,46.16L3.043,46.23L2.998,46.302L2.954,46.374L2.91,46.446L2.868,46.519L2.826,46.593L2.785,46.667L2.745,46.741L2.706,46.816L2.668,46.892L2.631,46.968L2.594,47.045L2.559,47.122L2.524,47.2L2.491,47.278L2.458,47.356L2.426,47.435L2.395,47.515L2.365,47.595L2.337,47.675L2.309,47.756L2.282,47.838L2.256,47.919L2.231,48.002L2.206,48.084L2.183,48.167L2.161,48.251L2.14,48.335L2.12,48.419L2.101,48.503L2.083,48.589L2.066,48.674L2.05,48.76L2.036,48.846L2.022,48.933L2.009,49.02L1.997,49.107L1.987,49.195L1.977,49.283L1.969,49.371L1.962,49.46L1.955,49.549L1.95,49.639L1.946,49.728L1.943,49.819L1.942,49.909L1.941,50L1.942,50.091L1.943,50.181L1.946,50.272L1.95,50.361L1.955,50.451L1.962,50.54L1.969,50.629L1.977,50.717L1.987,50.805L1.997,50.893L2.009,50.98L2.022,51.067L2.036,51.154L2.05,51.24L2.066,51.326L2.083,51.411L2.101,51.497L2.12,51.581L2.14,51.665L2.161,51.749L2.183,51.833L2.206,51.916L2.231,51.998L2.256,52.081L2.282,52.162L2.309,52.244L2.337,52.325L2.365,52.405L2.395,52.485L2.426,52.565L2.458,52.644L2.491,52.722L2.524,52.8L2.559,52.878L2.594,52.955L2.631,53.032L2.668,53.108L2.706,53.184L2.745,53.259L2.785,53.333L2.826,53.407L2.868,53.481L2.91,53.554L2.954,53.626L2.998,53.698L3.043,53.77L3.089,53.84L3.136,53.911L3.184,53.98L3.232,54.049L3.281,54.118L3.331,54.185L3.382,54.253L3.434,54.319L3.486,54.385L3.54,54.45L3.594,54.515L3.648,54.579L3.704,54.642L3.76,54.705L3.817,54.767L3.875,54.828L3.933,54.889L3.993,54.948L4.052,55.008L4.113,55.066L4.174,55.124L4.236,55.181L4.299,55.237L4.362,55.293L4.426,55.347L4.491,55.401L4.556,55.455L4.622,55.507L4.688,55.559L4.756,55.61L4.823,55.66L4.892,55.709L4.961,55.757L5.03,55.805L5.101,55.852L5.171,55.898L5.243,55.943L5.315,55.987L5.387,56.031L5.46,56.073L5.534,56.115L5.608,56.156L5.682,56.196L5.757,56.235L5.833,56.273L5.909,56.31L5.986,56.347L6.063,56.382L6.141,56.417L6.219,56.45L6.297,56.483L6.376,56.515L6.456,56.546L6.536,56.576L6.616,56.605L6.697,56.632L6.779,56.659L6.86,56.685L6.943,56.71L7.025,56.735L7.108,56.758L7.192,56.78L7.276,56.801L7.36,56.821L7.444,56.84L7.53,56.858L7.615,56.875L7.701,56.891L7.787,56.905L7.874,56.919L7.961,56.932L8.048,56.944L8.136,56.954L8.224,56.964L8.312,56.972L8.401,56.979L8.49,56.986L8.58,56.991L8.669,56.995L8.76,56.998L8.85,56.999L8.947,57L40.941,57L41.182,57.015L41.42,57.058L41.65,57.13L41.87,57.229L42.077,57.354L42.267,57.503L42.438,57.674L42.587,57.864L42.712,58.071L42.811,58.291L42.883,58.521L42.926,58.759L42.941,59L42.941,90.994L42.942,91.091L42.943,91.181L42.946,91.272L42.95,91.361L42.955,91.451L42.962,91.54L42.969,91.629L42.977,91.717L42.987,91.805L42.997,91.893L43.009,91.98L43.022,92.067L43.036,92.154L43.05,92.24L43.066,92.326L43.083,92.411L43.101,92.497L43.12,92.581L43.14,92.665L43.161,92.749L43.183,92.833L43.206,92.916L43.231,92.998L43.256,93.081L43.282,93.162L43.309,93.244L43.337,93.325L43.365,93.405L43.395,93.485L43.426,93.565L43.458,93.644L43.491,93.722L43.524,93.8L43.559,93.878L43.594,93.955L43.631,94.032L43.668,94.108L43.706,94.184L43.745,94.259L43.785,94.333L43.826,94.407L43.868,94.481L43.91,94.554L43.954,94.626L43.998,94.698L44.043,94.77L44.089,94.84L44.136,94.911L44.184,94.98L44.232,95.049L44.281,95.118L44.331,95.185L44.382,95.253L44.434,95.319L44.486,95.385L44.54,95.45L44.594,95.515L44.648,95.579L44.704,95.642L44.76,95.705L44.817,95.767L44.875,95.828L44.933,95.889L44.993,95.948L45.052,96.008L45.113,96.066L45.174,96.124L45.236,96.181L45.299,96.237L45.362,96.293L45.426,96.347L45.491,96.401L45.556,96.455L45.622,96.507L45.688,96.559L45.756,96.61L45.823,96.66L45.892,96.709L45.961,96.757L46.03,96.805L46.101,96.852L46.171,96.898L46.243,96.943L46.315,96.987L46.387,97.031L46.46,97.073L46.534,97.115L46.608,97.156L46.682,97.196L46.757,97.235L46.833,97.273L46.909,97.31L46.986,97.347L47.063,97.382L47.141,97.417L47.219,97.45L47.297,97.483L47.376,97.515L47.456,97.546L47.536,97.576L47.616,97.604L47.697,97.632L47.779,97.659L47.86,97.685L47.943,97.71L48.025,97.735L48.108,97.758L48.192,97.78L48.276,97.801L48.36,97.821L48.444,97.84L48.53,97.858L48.615,97.875L48.701,97.891L48.787,97.905L48.874,97.919L48.961,97.932L49.048,97.944L49.136,97.954L49.224,97.964L49.312,97.972L49.401,97.979L49.49,97.986L49.58,97.991L49.669,97.995L49.76,97.998L49.85,97.999L49.941,98L50.032,97.999L50.122,97.998L50.213,97.995L50.302,97.991L50.392,97.986L50.481,97.979L50.57,97.972L50.658,97.964L50.746,97.954L50.834,97.944L50.921,97.932L51.008,97.919L51.095,97.905L51.181,97.891L51.267,97.875L51.353,97.858L51.438,97.84L51.522,97.821L51.606,97.801L51.69,97.78L51.774,97.758L51.857,97.735L51.939,97.71L52.022,97.685L52.103,97.659L52.185,97.632L52.266,97.605L52.346,97.576L52.426,97.546L52.506,97.515L52.585,97.483L52.663,97.45L52.741,97.417L52.819,97.382L52.896,97.347L52.973,97.31L53.049,97.273L53.125,97.235L53.2,97.196L53.274,97.156L53.348,97.115L53.422,97.073L53.495,97.031L53.567,96.987L53.639,96.943L53.711,96.898L53.781,96.852L53.852,96.805L53.921,96.757L53.99,96.709L54.059,96.66L54.126,96.61L54.194,96.559L54.26,96.507L54.326,96.455L54.391,96.401L54.456,96.347L54.52,96.293L54.583,96.237L54.646,96.181L54.708,96.124L54.769,96.066L54.83,96.008L54.889,95.948L54.949,95.889L55.007,95.828L55.065,95.767L55.122,95.705L55.178,95.642L55.234,95.579L55.288,95.515L55.342,95.45L55.396,95.385L55.448,95.319L55.5,95.253L55.551,95.185L55.601,95.118L55.65,95.049L55.698,94.98L55.746,94.911L55.793,94.84L55.839,94.77L55.884,94.698L55.928,94.626L55.972,94.554L56.014,94.481L56.056,94.407L56.097,94.333L56.137,94.259L56.176,94.184L56.214,94.108L56.251,94.032L56.288,93.955L56.323,93.878L56.358,93.8L56.391,93.722L56.424,93.644L56.456,93.565L56.487,93.485L56.517,93.405L56.546,93.325L56.573,93.244L56.6,93.162L56.626,93.081L56.651,92.998L56.676,92.916L56.699,92.833L56.721,92.749L56.742,92.665L56.762,92.581L56.781,92.497L56.799,92.412L56.816,92.326L56.832,92.24L56.846,92.154L56.86,92.067L56.873,91.98L56.885,91.893L56.895,91.805L56.905,91.717L56.913,91.629L56.92,91.54L56.927,91.451L56.932,91.361L56.936,91.272L56.939,91.181L56.94,91.091L56.941,90.994L56.941,59L56.956,58.759L56.999,58.521L57.071,58.291L57.17,58.071L57.295,57.864L57.444,57.674L57.615,57.503L57.805,57.354L58.012,57.229L58.232,57.13L58.462,57.058L58.7,57.015L58.941,57L90.935,57L91.032,56.999L91.122,56.998L91.213,56.995L91.302,56.991L91.392,56.986L91.481,56.979L91.57,56.972L91.658,56.964L91.746,56.954L91.834,56.944L91.921,56.932L92.008,56.919L92.095,56.905L92.181,56.891L92.267,56.875L92.353,56.858L92.438,56.84L92.522,56.821L92.606,56.801L92.69,56.78L92.774,56.758L92.857,56.735L92.939,56.71L93.022,56.685L93.103,56.659L93.185,56.632L93.266,56.605L93.346,56.576L93.426,56.546L93.506,56.515L93.585,56.483L93.663,56.45L93.741,56.417L93.819,56.382L93.896,56.347L93.973,56.31L94.049,56.273L94.125,56.235L94.2,56.196L94.274,56.156L94.348,56.115L94.422,56.073L94.495,56.031L94.567,55.987L94.639,55.943L94.711,55.898L94.781,55.852L94.852,55.805L94.921,55.757L94.99,55.709L95.059,55.66L95.126,55.61L95.194,55.559L95.26,55.507L95.326,55.455L95.391,55.401L95.456,55.347L95.52,55.293L95.583,55.237L95.646,55.181L95.708,55.124L95.769,55.066L95.83,55.008L95.889,54.948L95.949,54.889L96.007,54.828L96.065,54.767L96.122,54.705L96.178,54.642L96.234,54.579L96.288,54.515L96.342,54.45L96.396,54.385L96.448,54.319L96.5,54.253L96.551,54.185L96.601,54.118L96.65,54.049L96.698,53.98L96.746,53.911L96.793,53.84L96.839,53.77L96.884,53.698L96.928,53.626L96.972,53.554L97.014,53.481L97.056,53.407L97.097,53.333L97.137,53.259L97.176,53.184L97.214,53.108L97.251,53.032L97.288,52.955L97.323,52.878L97.358,52.8L97.391,52.722L97.424,52.644L97.456,52.565L97.487,52.485L97.517,52.405L97.546,52.325L97.573,52.244L97.6,52.162L97.626,52.081L97.651,51.998L97.676,51.916L97.699,51.833L97.721,51.749L97.742,51.665L97.762,51.581L97.781,51.497L97.799,51.412L97.816,51.326L97.832,51.24L97.846,51.154L97.86,51.067L97.873,50.98L97.885,50.893L97.895,50.805L97.905,50.717L97.913,50.629L97.92,50.54L97.927,50.451L97.932,50.361L97.936,50.272L97.939,50.181L97.94,50.091L97.941,50L97.94,49.909L97.939,49.819L97.936,49.728L97.932,49.639L97.927,49.549L97.92,49.46L97.913,49.371L97.905,49.283L97.895,49.195L97.885,49.107L97.873,49.02L97.86,48.933L97.846,48.846L97.832,48.76L97.816,48.674L97.799,48.588L97.781,48.503L97.762,48.419L97.742,48.335L97.721,48.251L97.699,48.167L97.676,48.084L97.651,48.002L97.626,47.919L97.6,47.838L97.573,47.756L97.546,47.675L97.517,47.595L97.487,47.515L97.456,47.435L97.424,47.356L97.391,47.278L97.358,47.2L97.323,47.122L97.288,47.045L97.251,46.968L97.214,46.892L97.176,46.816L97.137,46.741L97.097,46.667L97.056,46.593L97.014,46.519L96.972,46.446L96.928,46.374L96.884,46.302L96.839,46.23L96.793,46.16L96.746,46.089L96.698,46.02L96.65,45.951L96.601,45.882L96.551,45.815L96.5,45.747L96.448,45.681L96.396,45.615L96.342,45.55L96.288,45.485L96.234,45.421L96.178,45.358L96.122,45.295L96.065,45.233L96.007,45.172L95.949,45.111L95.889,45.052L95.83,44.992L95.769,44.934L95.708,44.876L95.646,44.819L95.583,44.763L95.52,44.707L95.456,44.653L95.391,44.599L95.326,44.545L95.26,44.493L95.194,44.441L95.126,44.39L95.059,44.34L94.99,44.291L94.921,44.243L94.852,44.195L94.781,44.148L94.711,44.102L94.639,44.057L94.567,44.013L94.495,43.969L94.422,43.927L94.348,43.885L94.274,43.844L94.2,43.804L94.125,43.765L94.049,43.727L93.973,43.69L93.896,43.653L93.819,43.618L93.741,43.583L93.663,43.55L93.585,43.517L93.506,43.485L93.426,43.454L93.346,43.424L93.266,43.395L93.185,43.368L93.103,43.341L93.022,43.315L92.939,43.29L92.857,43.265L92.774,43.242L92.69,43.22L92.606,43.199L92.522,43.179L92.438,43.16L92.353,43.142L92.267,43.125L92.181,43.109L92.095,43.095L92.008,43.081L91.921,43.068L91.834,43.056L91.746,43.046L91.658,43.036L91.57,43.028L91.481,43.021L91.392,43.014L91.302,43.009L91.213,43.005L91.122,43.002L91.032,43.001L90.935,43L58.941,43L58.7,42.985L58.462,42.942L58.232,42.87L58.012,42.771L57.805,42.646L57.615,42.497L57.444,42.326L57.295,42.136L57.17,41.929L57.071,41.709L56.999,41.479L56.956,41.241L56.941,41L56.941,9.006L56.94,8.909L56.939,8.819L56.936,8.728L56.932,8.639L56.927,8.549L56.92,8.46L56.913,8.371L56.905,8.283L56.895,8.195L56.885,8.107L56.873,8.02L56.86,7.933L56.846,7.846L56.832,7.76L56.816,7.674L56.799,7.588L56.781,7.503L56.762,7.419L56.742,7.335L56.721,7.251L56.699,7.167L56.676,7.084L56.651,7.002L56.626,6.919L56.6,6.838L56.573,6.756L56.546,6.675L56.517,6.595L56.487,6.515L56.456,6.435L56.424,6.356L56.391,6.278L56.358,6.2L56.323,6.122L56.288,6.045L56.251,5.968L56.214,5.892L56.176,5.816L56.137,5.741L56.097,5.667L56.056,5.593L56.014,5.519L55.972,5.446L55.928,5.374L55.884,5.302L55.839,5.23L55.793,5.16L55.746,5.089L55.698,5.02L55.65,4.951L55.601,4.882L55.551,4.815L55.5,4.747L55.448,4.681L55.396,4.615L55.342,4.55L55.288,4.485L55.234,4.421L55.178,4.358L55.122,4.295L55.065,4.233L55.007,4.172L54.949,4.111L54.889,4.052L54.83,3.992L54.769,3.934L54.708,3.876L54.646,3.819L54.583,3.763L54.52,3.707L54.456,3.653L54.391,3.599L54.326,3.545L54.26,3.493L54.194,3.441L54.126,3.39L54.059,3.34L53.99,3.291L53.921,3.243L53.852,3.195L53.781,3.148L53.711,3.102L53.639,3.057L53.567,3.013L53.495,2.969L53.422,2.927L53.348,2.885L53.274,2.844L53.2,2.804L53.125,2.765L53.049,2.727L52.973,2.69L52.896,2.653L52.819,2.618L52.741,2.583L52.663,2.55L52.585,2.517L52.506,2.485L52.426,2.454L52.346,2.424L52.266,2.395L52.185,2.368L52.103,2.341L52.022,2.315L51.939,2.29L51.857,2.265L51.774,2.242L51.69,2.22L51.606,2.199L51.522,2.179L51.438,2.16L51.353,2.142L51.267,2.125L51.181,2.109L51.095,2.095L51.008,2.081L50.921,2.068L50.834,2.056L50.746,2.046L50.658,2.036L50.57,2.028L50.481,2.021L50.392,2.014L50.302,2.009L50.213,2.005L50.122,2.002L50.032,2.001L49.941,2L49.85,2.001L49.76,2.002L49.669,2.005L49.58,2.009L49.49,2.014L49.401,2.021L49.312,2.028L49.224,2.036L49.136,2.046L49.048,2.056L48.961,2.068L48.874,2.081L48.787,2.095L48.701,2.109L48.615,2.125L48.53,2.142L48.444,2.16L48.36,2.179L48.276,2.199L48.192,2.22L48.108,2.242L48.025,2.265L47.943,2.29L47.86,2.315L47.779,2.341L47.697,2.368L47.616,2.396L47.536,2.424L47.456,2.454L47.376,2.485L47.297,2.517L47.219,2.55L47.141,2.583L47.063,2.618L46.986,2.653L46.909,2.69L46.833,2.727L46.757,2.765L46.682,2.804L46.608,2.844L46.534,2.885L46.46,2.927L46.387,2.969L46.315,3.013L46.243,3.057L46.171,3.102L46.101,3.148L46.03,3.195L45.961,3.243L45.892,3.291L45.823,3.34L45.756,3.39L45.688,3.441L45.622,3.493L45.556,3.545L45.491,3.599L45.426,3.653L45.362,3.707L45.299,3.763L45.236,3.819L45.174,3.876L45.113,3.934L45.052,3.992L44.993,4.052L44.933,4.111L44.875,4.172L44.817,4.233L44.76,4.295L44.704,4.358L44.648,4.421L44.594,4.485L44.54,4.55L44.486,4.615L44.434,4.681L44.382,4.747L44.331,4.815L44.281,4.882L44.232,4.951L44.184,5.02L44.136,5.089L44.089,5.16L44.043,5.23L43.998,5.302L43.954,5.374L43.91,5.446L43.868,5.519L43.826,5.593L43.785,5.667L43.745,5.741L43.706,5.816L43.668,5.892L43.631,5.968L43.594,6.045L43.559,6.122L43.524,6.2L43.491,6.278L43.458,6.356L43.426,6.435L43.395,6.515L43.365,6.595L43.337,6.675L43.309,6.756L43.282,6.838L43.256,6.919L43.231,7.002L43.206,7.084L43.183,7.167L43.161,7.251L43.14,7.335L43.12,7.419L43.101,7.503L43.083,7.589L43.066,7.674L43.05,7.76L43.036,7.846L43.022,7.933L43.009,8.02L42.997,8.107L42.987,8.195L42.977,8.283L42.969,8.371L42.962,8.46L42.955,8.549L42.95,8.639L42.946,8.728L42.943,8.819L42.942,8.909L42.941,9.006L42.941,41L42.926,41.241L42.883,41.479L42.811,41.709L42.712,41.929L42.587,42.136L42.438,42.326L42.267,42.497L42.077,42.646L41.87,42.771L41.65,42.87L41.42,42.942L41.182,42.985L40.941,43L8.947,43L8.85,43.001L8.76,43.002L8.669,43.005L8.58,43.009L8.49,43.014L8.401,43.021L8.312,43.028L8.224,43.036L8.136,43.046L8.048,43.056L7.961,43.068L7.874,43.081L7.787,43.095L7.701,43.109L7.615,43.125L7.53,43.142L7.444,43.16L7.36,43.179L7.276,43.199L7.192,43.22L7.108,43.242L7.025,43.265L6.943,43.29L6.86,43.315L6.779,43.341L6.697,43.368L6.616,43.396L6.536,43.424L6.456,43.454L6.376,43.485L6.297,43.517L6.219,43.55L6.141,43.583L6.063,43.618L5.986,43.653L5.909,43.69L5.833,43.727L5.757,43.765L5.682,43.804L5.608,43.844L5.534,43.885L5.46,43.927L5.387,43.969L5.315,44.013L5.243,44.057L5.171,44.102L5.101,44.148L5.03,44.195L4.961,44.243L4.892,44.291L4.823,44.34L4.756,44.39L4.688,44.441L4.622,44.493L4.556,44.545L4.491,44.599L4.426,44.653L4.362,44.707L4.299,44.763L4.236,44.819L4.174,44.876L4.113,44.934L4.052,44.992L3.993,45.052L3.933,45.111Z"/>
    </g>
</svg>
